<?xml version="1.0" encoding="utf-8"?>
<!-- Generator: Adobe Illustrator 25.0.1, SVG Export Plug-In . SVG Version: 6.00 Build 0)  -->
<svg version="1.1" id="Ebene_1" xmlns="http://www.w3.org/2000/svg" xmlns:xlink="http://www.w3.org/1999/xlink" x="0px" y="0px"
	 viewBox="0 0 170.1 85" style="enable-background:new 0 0 170.1 85;" xml:space="preserve">
<style type="text/css">
	.st0{fill:#13A538;}
	.st1{fill:#86BC25;}
	.st2{fill:#158C2F;}
</style>
<symbol  id="Græs_4" viewBox="-22.4 -11.9 44.8 23.8">
	<g>
		<path class="st0" d="M8.1-5.5l1.5-0.9c0,0-0.4,14.7,0.6,18.4C10.2,11.9,7.7,4.8,8.1-5.5z"/>
	</g>
	<g>
		<path class="st0" d="M11.4-5.3l1.2,0.8c0,0-0.2,11.6,0.2,12.8C12.8,8.3,11.1-0.4,11.4-5.3z"/>
	</g>
	<g>
		<path class="st0" d="M1.1-10.6l-1.3,0.8c0,0,0.3,11.6-0.3,12.8C-0.4,2.9,1.5-5.7,1.1-10.6z"/>
	</g>
	<g>
		<path class="st1" d="M15.3-5.8l0.8,0.8l0.1,9.6C16.2,4.7,14.9-2.9,15.3-5.8z"/>
	</g>
	<g>
		<path class="st2" d="M6.4-5.8c0,0,0,9.6-1.1,11.9c0,0,0-9-0.4-10.8L6.4-5.8z"/>
	</g>
	<g>
		<path class="st2" d="M22.4-9.6c0,0,0,9.6-1.1,11.9c0,0,0-9-0.4-10.8L22.4-9.6z"/>
	</g>
	<g>
		<path class="st2" d="M13.2-7.3c0,0,1.1,6.9,3.9,8.7c0,0-3-6.1-2.7-9.6L13.2-7.3z"/>
	</g>
	<g>
		<path class="st2" d="M13-7.6c0,0,1.1,6.9,3.9,8.7c0,0-3-6.1-2.7-9.6L13-7.6z"/>
	</g>
	<g>
		<path class="st1" d="M11.3-5.4c0,0,0.1,8.3-2.3,10.3c0,0,1.6-8,1.2-11.9L11.3-5.4z"/>
	</g>
	<g>
		<path class="st0" d="M6.1-8c0,0-0.3,9.5,1.2,13.3c0,0-0.6-12.8,0-15L6.1-8z"/>
	</g>
	<g>
		<path class="st1" d="M4-4.1c0,0,0.1,6.6-0.6,9.1c0,0-0.1-9.9-0.8-12.8L4-4.1z"/>
	</g>
	<g>
		<path class="st0" d="M4.9-7.9c0,0-0.6,6.4-3.7,9.2c0,0,3.3-8.3,2.8-11L4.9-7.9z"/>
	</g>
	<g>
		<path class="st0" d="M20.7-6.2c0,0-0.6,6.4-3.7,9.2c0,0,3.3-8.3,2.8-11L20.7-6.2z"/>
	</g>
	<g>
		<path class="st0" d="M16.7-7.2c0,0-0.3,2.6,1.4,4.9c0,0-0.8-5.7-0.4-7.6L16.7-7.2z"/>
	</g>
	<g>
		<path class="st2" d="M16-8.6c0,0,0,7.5,2.1,10.3c0,0-1.6-9.6-1.1-13.2L16-8.6z"/>
	</g>
	<g>
		<path class="st1" d="M2.7-6.3c0,0-1.3,10.5-1.9,11.5c0,0,0.8-10.9,0.3-13L2.7-6.3z"/>
	</g>
	<g>
		<path class="st1" d="M11.9-7.9c0,0,0.8,8.9,2.1,11.4c0,0-0.5-7.2-0.5-9.1L11.9-7.9z"/>
	</g>
	<g>
		<path class="st1" d="M18.1-8.4c0,0,0.8,8.9,2.1,11.4c0,0-0.5-7.2-0.5-9.1L18.1-8.4z"/>
	</g>
	<g>
		<path class="st1" d="M7.2-5.8c0,0,1.3,10.3,0.4,13.7c0,0,1.9-10.2,1-15.5L7.2-5.8z"/>
	</g>
	<g>
		<path class="st0" d="M-19.2-6.1l-1.5-0.8c0,0,0.4,12.1-0.6,15C-21.3,8.2-18.8,2.3-19.2-6.1z"/>
	</g>
	<g>
		<path class="st0" d="M-10.9-5.7l1.2,1c0,0-0.2,14.8,0.2,16.3C-9.5,11.6-11.2,0.6-10.9-5.7z"/>
	</g>
	<g>
		<path class="st0" d="M-12.2-11l1.3,0.8c0,0-0.3,11.6,0.3,12.8C-10.6,2.6-12.6-6.1-12.2-11z"/>
	</g>
	<g>
		<path class="st1" d="M-7-6.1l0.8,0.8l0.1,9.6C-6.1,4.3-7.4-3.3-7-6.1z"/>
	</g>
	<g>
		<path class="st2" d="M-17.5-6.1c0,0,0,9.6,1.1,11.9c0,0,0-9,0.4-10.8L-17.5-6.1z"/>
	</g>
	<g>
		<path class="st2" d="M0.1-10c0,0,0,9.6-1.1,11.9c0,0,0-9-0.4-10.8L0.1-10z"/>
	</g>
	<g>
		<path class="st2" d="M-9.1-7.7c0,0,1.1,6.9,3.9,8.7c0,0-3-6.1-2.7-9.6L-9.1-7.7z"/>
	</g>
	<g>
		<path class="st1" d="M-22.4-5.8c0,0-0.1,8.3,2.3,10.3c0,0-1.6-8-1.2-11.9L-22.4-5.8z"/>
	</g>
	<g>
		<path class="st0" d="M-17.2-8.4c0,0,0.4,9.5-1.2,13.3c0,0,0.6-12.8,0-15L-17.2-8.4z"/>
	</g>
	<g>
		<path class="st1" d="M-15.1-4.4c0,0-0.1,6.6,0.6,9.1c0,0,0.1-9.9,0.8-12.8L-15.1-4.4z"/>
	</g>
	<g>
		<path class="st0" d="M-1.5-6.5c0,0-0.6,6.4-3.7,9.2c0,0,3.3-8.3,2.8-11L-1.5-6.5z"/>
	</g>
	<g>
		<path class="st0" d="M-5.6-7.5c0,0-0.3,2.6,1.4,4.9c0,0-0.8-5.7-0.4-7.6L-5.6-7.5z"/>
	</g>
	<g>
		<path class="st2" d="M-6.3-9c0,0,0,7.5,2.1,10.3c0,0-1.6-9.6-1.1-13.2L-6.3-9z"/>
	</g>
	<g>
		<path class="st1" d="M-13.8-6.7c0,0,1.3,10.5,1.9,11.5c0,0-0.8-10.9-0.3-13L-13.8-6.7z"/>
	</g>
	<g>
		<path class="st1" d="M-10.3-8.3c0,0,0.8,8.9,2.1,11.4c0,0-0.5-7.2-0.5-9.1L-10.3-8.3z"/>
	</g>
	<g>
		<path class="st1" d="M-4.1-8.8c0,0,0.8,8.9,2.1,11.4c0,0-0.5-7.2-0.5-9.1L-4.1-8.8z"/>
	</g>
	<g>
		<path class="st1" d="M-18.3-6.2c0,0-1.3,10.3-0.4,13.7c0,0-1.9-10.2-1-15.5L-18.3-6.2z"/>
	</g>
	<g>
		<path class="st2" d="M-12.3-8c0,0-1.1,6.9-3.9,8.7c0,0,3-6.1,2.7-9.6L-12.3-8z"/>
	</g>
	<g>
		<path class="st0" d="M-5.5-8.2c0,0-0.6,6.4-3.7,9.2c0,0,3.3-8.3,2.8-11L-5.5-8.2z"/>
	</g>
</symbol>
<use xlink:href="#Græs_4"  width="44.8" height="23.8" x="-22.4" y="-11.9" transform="matrix(3.5831 0 0 -3.5831 85.0409 42.5181)" style="overflow:visible;"/>
</svg>
