<?xml version="1.0" encoding="utf-8"?>
<!-- Generator: Adobe Illustrator 25.0.1, SVG Export Plug-In . SVG Version: 6.00 Build 0)  -->
<svg version="1.1" id="Ebene_1" xmlns="http://www.w3.org/2000/svg" xmlns:xlink="http://www.w3.org/1999/xlink" x="0px" y="0px"
	 viewBox="0 0 108.3 249.8" style="enable-background:new 0 0 108.3 249.8;" xml:space="preserve">
<style type="text/css">
	.st0{fill:none;}
	.st1{fill:#E98036;}
	.st2{fill:#9A959B;}
	.st3{fill:#4C5861;}
	.st4{fill:#171114;}
	.st5{fill:#FBF6EE;}
	.st6{fill:#E5CFC9;}
	.st7{fill:#C1541D;}
	.st8{fill:#B03231;}
	.st9{fill:#A16750;}
	.st10{fill:#E8975A;}
	.st11{fill:#26272C;}
	.st12{fill:#284C8A;}
	.st13{fill:#34343A;}
	.st14{fill:#3B464F;}
	.st15{fill:#3D65A2;}
	.st16{fill:#D9712A;}
	.st17{fill:#622317;}
	.st18{fill:#844529;}
	.st19{fill:#6F9ACA;}
	.st20{fill:#CA4E48;}
	.st21{fill:#757B85;}
	.st22{fill:#5F6772;}
	.st23{fill:#E5B266;}
	.st24{fill:#F5C17D;}
	.st25{fill:#E35D5C;}
	.st26{fill:#DA5E17;}
	.st27{fill:#24366A;}
	.st28{fill:#8E1A1E;}
	.st29{fill:#D49F4D;}
</style>
<g>
	<path class="st0" d="M46.8,80C46.8,80,46.8,80,46.8,80C46.8,80,46.8,80,46.8,80L46.8,80z"/>
	<path class="st0" d="M77.9,163.1C77.9,163.1,77.9,163.1,77.9,163.1C77.9,163.1,77.9,163.1,77.9,163.1L77.9,163.1z"/>
	<path class="st0" d="M61.4,67.9C61.4,67.9,61.4,67.9,61.4,67.9C61.4,67.9,61.4,67.9,61.4,67.9L61.4,67.9z"/>
	<path class="st0" d="M43.6,79.5c0,0,0.1,0,0.1,0.1l0.1,0C43.8,79.5,43.7,79.5,43.6,79.5z"/>
	<path class="st0" d="M45.6,73.3c0.2,0.1,0.4,0.2,0.6,0.2l0,0C46,73.5,45.8,73.4,45.6,73.3z"/>
	<path class="st0" d="M46.8,76.1c1.6,0.4,3.2,0.7,4.9,0.7l0.1-0.1C50,76.8,48.4,76.6,46.8,76.1z"/>
	<path class="st0" d="M49.5,74.4C49.5,74.4,49.5,74.5,49.5,74.4c3.6,0.7,7.4,0.3,10.7-1.1C56.8,74.7,53,75.1,49.5,74.4z"/>
	<path class="st0" d="M91.5,195.3c0.7,0.5,1.1,1,1.4,1.2c0.3,0.3,0.6,0.7,0.9,1.1C93.3,196.7,92.5,195.9,91.5,195.3z"/>
	<rect x="43.2" y="133.2" class="st0" width="0.5" height="0"/>
	<path class="st0" d="M98.7,201.4l-0.6,0.6L98.7,201.4C98.7,201.4,98.7,201.4,98.7,201.4z"/>
	<path class="st0" d="M54.9,30.2c0.1,0.1,0.2,0.1,0.3,0.2C55.2,30.3,55.1,30.2,54.9,30.2C55,30.1,55,30.2,54.9,30.2
		C54.9,30.2,54.9,30.2,54.9,30.2z"/>
	<path class="st0" d="M48.9,166.3C48.9,166.3,48.9,166.3,48.9,166.3C48.9,166.3,48.9,166.3,48.9,166.3
		C48.9,166.3,48.9,166.3,48.9,166.3z"/>
	<path class="st0" d="M56.5,215.8c0-0.1,0-0.2,0-0.3C56.5,215.7,56.5,215.8,56.5,215.8C56.5,215.8,56.5,215.8,56.5,215.8z"/>
	<polygon class="st0" points="17.8,195.6 17.8,195.6 17.8,195.6 17.8,195.6 	"/>
	<path class="st0" d="M43,173.2c-0.1,0.2-0.2,0.3-0.3,0.5l0,0C42.8,173.5,42.9,173.4,43,173.2z"/>
	<path class="st0" d="M43.5,41.8c0.1-0.3,0.3-0.6,0.5-0.9C43.8,41.2,43.6,41.5,43.5,41.8z"/>
	<path class="st0" d="M76.2,176.1C76.2,176.1,76.2,176.1,76.2,176.1l0.1-0.1L76.2,176.1z"/>
	<path class="st0" d="M27.3,53.9C27.3,53.9,27.3,54,27.3,53.9L27.3,53.9L27.3,53.9z"/>
	<path class="st0" d="M39.4,205c-0.4,0-0.8,0.1-1.1,0.2L39.4,205z"/>
	<polygon class="st0" points="75.9,45.9 75.7,45.7 75.8,45.9 	"/>
	<polygon class="st0" points="26.6,234.4 26.6,234.4 25.1,235.1 	"/>
	<path class="st0" d="M97.3,204.7l-0.2-2l-0.1,0C97.1,203.4,97.2,204.1,97.3,204.7C97.3,204.7,97.3,204.7,97.3,204.7z"/>
	<path class="st0" d="M31.7,162.4C31.6,162.4,31.6,162.4,31.7,162.4c-0.1,0.3-0.8,1.1-1.2,1.6l0.1,0C31,163.4,31.8,162.5,31.7,162.4
		z"/>
	<path class="st0" d="M72.3,132.7C72.4,132.7,72.4,132.7,72.3,132.7C72.4,132.7,72.3,132.7,72.3,132.7
		C72.3,132.7,72.3,132.7,72.3,132.7z"/>
	<path class="st0" d="M83.1,83.9c0.2,0.3,0.3,0.6,0.5,1C83.4,84.5,83.2,84.2,83.1,83.9z"/>
	<path class="st0" d="M70.8,70.5C70.8,70.5,70.8,70.5,70.8,70.5C70.8,70.5,70.8,70.5,70.8,70.5L70.8,70.5z"/>
	<path class="st0" d="M83.3,134.6c0.7-0.3,1.5-0.7,2-0.8h0L83.3,134.6z"/>
	<path class="st0" d="M26.5,234.4C26.5,234.3,26.5,234.3,26.5,234.4C26.5,234.3,26.5,234.3,26.5,234.4
		C26.5,234.3,26.5,234.3,26.5,234.4z"/>
	<path class="st0" d="M24.8,139.3L24.8,139.3L24.8,139.3C24.8,139.3,24.8,139.3,24.8,139.3z"/>
	<path class="st0" d="M25.1,235.1c0.1,0.5,0.2,1,0.2,1.4C25.3,236.1,25.2,235.6,25.1,235.1z"/>
	<path class="st0" d="M35.6,205.6l-1.2-0.5L35.6,205.6C35.6,205.6,35.6,205.6,35.6,205.6z"/>
	<path class="st0" d="M83.1,134.7c0,0,0.1,0,0.1-0.1l0,0L83.1,134.7z"/>
	<path class="st0" d="M38.6,146.2L38.6,146.2C38.6,146.2,38.6,146.2,38.6,146.2L38.6,146.2z"/>
	<path class="st0" d="M56.1,151c-0.8-0.1-2.3,0-3.5,0.1c-1.6,2.1-3.1,4.5-4.9,6.4c-0.4,1-0.8,2.1-0.8,2.8l1.6,1.6v0
		c3.9,0.4,3.8,3.6,3,6.9l0,0l-0.1,0.2c-0.6,2.3-1.6,4.6-2,6.2l0.1,0.2c-1,2.9-2.1,5.6-3.1,8.5c-0.2,0.9-0.5,1.8-0.7,2.8
		c-0.1,0.3-0.1,0.6-0.2,0.9c-0.1,0.4-0.2,0.8-0.3,1.2c0,1.2-0.1,2.4-0.3,3.6c1.1-0.3,2.8-0.3,4.3-0.2l3.4,0.3c0,0,0,0,0,0
		c4.4,0.3,8.6,0.6,13.1,0.8c-0.1-1.6,1-1.6,2.1-1.4l0.2-0.4c0.1-0.3,0.3-0.6,0.6-0.8c1.6-3.2-1.3-6.6-0.1-10.1l-2.4-3c0,0,0,0,0,0
		c-3.2-2.8-4.2-7.8-1.5-11.7c0,0,0,0,0.1,0c-0.1-0.4-0.3-0.8-0.4-1.3c-0.4-0.9-2.7-5.1-3.6-7.3c-1.3-2-3.3-3.8-4-6.1
		C56.4,151,56.3,151,56.1,151z"/>
	<path class="st0" d="M28.5,203.2l-1.3,0.2L28.5,203.2C28.5,203.3,28.5,203.3,28.5,203.2z"/>
	<path class="st0" d="M31.3,161.4c0-0.8,0.8-1.4,1.1-2.1c0.3-0.6,0.6-1.1,0.8-1.7c-0.3,0.5-0.6,1-0.8,1.6
		C32.1,159.8,31.3,160.5,31.3,161.4z"/>
	<path class="st0" d="M31,172.8c0,0,0,0.1,0.1,0.1c0,0,0,0,0,0L31,172.8z"/>
	<rect x="67.6" y="137.5" class="st0" width="0.9" height="0"/>
	<path class="st1" d="M29.8,44.1c-2.2,2.6-9.3,4.4-4.2,7.5c0,0,0,0,0,0l1.4,0.2l-1.3,0.9l-0.1,1.7c0.2-0.3,0.6-0.7,0.7-0.9H27
		c0.1,0.2,0.2,0.3,0.3,0.5l0,0l-0.2-0.5c3.4-2,7.1-13.5,8.6-11.5L36,41L36,41c-0.6-1-0.1-2.6-1.9-3.1c0,0,0,0,0.1-0.1
		c-1.3,0.6-2.7,1-4.2,1.1l0,0c0,0,0,0-0.1,0c0,0-0.1,0-0.1,0c0,0,0,0,0,0c-4.2-1.1-8.8-1-13,0.3V40h10.4v0.5
		c-0.4,0.2-0.9,0.3-1.4,0.4C29.1,41.5,31.1,42.6,29.8,44.1z"/>
	<path class="st2" d="M63.8,198.7c0.2,0,0.4,0.1,0.7,0.1C64.3,198.7,64,198.7,63.8,198.7z"/>
	<path class="st2" d="M56.9,200.5c-0.3,0.1-0.6-0.3-0.8-0.6l-0.2,0.2l0.5,0.9c-1.4,0.2-4.9,0.7-6.8,0.8h1.7v0.6
		c-0.6,0.4-1.4,0.5-2.2,0.5l-1.5,0.5v0.3l-0.4,0.3c0.1,0,0.3,0,0.4,0c1-0.5,2.6-0.7,3.4-1.1l1.7,0.1c0.1-0.1,0.2-0.3,0.3-0.4l0.3,0
		c0.1,0.1,0.1,0.2,0.2,0.2c0.3,0.7,0.3,1.2,0.1,1.6c-0.7,0.6-2.3,0.6-3.4,0.6v0.3c-0.8,0-1.6-0.1-2.4-0.2l0.5,0.5l-0.1,0.1H50
		c2.2,2,4.7,3.4,7.6,2.7c0,0,0.1,0,0.1,0c0.1,0,0.2,0,0.3-0.1c0.2-0.1,0.4-0.1,0.6-0.2c2.3,0.9,4.9,1.5,7.4,1.5
		c-1.8,0.4-3.7,0.7-5.5,0.9c6-0.4,11.2-1.6,9.8-4.5c2.5,0,5.1,0.1,7.8,0.2l2-1.5c0-0.1,0.1-1,0.2-1.3c0-0.1,0-0.1,0-0.1l-1.4-0.1
		c-0.1,0-0.1,0-0.2,0c-0.2,0-0.4-0.1-0.5-0.3c-1.1-0.9-3.2-0.7-3.9-1.5c-0.9-1.3-1.8-0.8-2.8-0.6c0-0.4-0.1-1-0.1-1.4
		c0,0-0.1,0.1-0.1,0.1c-0.4-0.8-0.9-2.1-1.4-2.9c0,0,0,0,0,0.1l-0.7-0.7c-0.5-0.6-1-1.1-1.4-1.6c0,0-0.1-0.1-0.1-0.1
		c-0.9,2.6,0.9,5,1.7,7.6l-2.3-0.5c0.1-0.1,0.1-0.1,0.1-0.2c-1-0.1-2.5-0.4-3.1-1l-0.3-1.5c-0.2,0-0.4-0.1-0.7-0.1l0.1,1.3
		C61,201.6,58.1,197.6,56.9,200.5z M53.8,205.8l2.6-1.8l1,2.3L53.8,205.8z M73.9,201.6c0.8,0.9,3.3,0.5,4.2,1.6
		c-2.6-0.3-5.3,0.2-7-2.2C72.1,200.7,73,200.3,73.9,201.6z M58.7,208l-0.1-0.2h0.1C58.7,207.9,58.7,207.9,58.7,208z M59.2,204.1
		c2.5,0.3,6.1-1.3,7.8,0.8c-0.6,0-1.4,0-2.2,0c-0.2,2.8-1.5,2.4-3.5,0.4c0-0.1,0-0.2,0.1-0.3L59.2,204.1z M68.2,208.7l-1.5,0.7
		c-2,0.2-3.8-0.1-5.6-0.6l1.4-0.7l-2.3-2l1.4-0.2c1.9,2,3.4,1.7,3.5-0.7c0,0,1.4,0,2.1,0l0.6,1.8l2,0.5L68.2,208.7z M69.2,204.8h0.5
		l-0.4,0.7C69.3,205.3,69.2,205,69.2,204.8z M69.6,202l0.1,2.7H67c-1.7-2-5.3-0.4-7.8-0.8c-0.2-0.8-0.5-1.6-0.6-2.3c0,0,0,0,0,0
		c0-0.1,0-0.1-0.1-0.2l4.1-0.6C64.3,200.6,68.3,201.8,69.6,202z"/>
	<path class="st2" d="M48.9,201.8C48.9,201.8,48.9,201.8,48.9,201.8c0.6-0.5,2.5-1,4.2-1.3l-2.3,0.4l-0.4-1.1l1.8-0.2l-0.6-0.2
		l-1.5,0.2c0.2,0.4,0.3,0.8,0.4,1.1l-2,0.8c-0.4,0.1-1.2,0.2-1.8,0.4c-0.3,0.2-0.6,0.5-0.8,0.6c0.1,0,0.2,0,0.3,0
		C46.8,202.3,48.2,202,48.9,201.8z"/>
	<path class="st2" d="M44.7,204.8C44.7,204.8,44.7,204.8,44.7,204.8c0.1,0,0.3,0,0.5,0c0,0,0,0,0,0
		C45.1,204.8,44.9,204.8,44.7,204.8z"/>
	<path class="st2" d="M97.1,202.6c0,0,0,0.1,0,0.1l0.1,0l0.1,0l0.8-0.7l0.6-0.6c0,0,0,0,0,0.1c0.1,2.2,1.6,4.4,3.6,5.8
		c0.7,0.5,1.4,0.9,2.1,1.1c0.1-4.7-4-8.5-8.4-9.5c-0.2,0.4-0.3,1.1-0.3,1.8c-0.1-0.1-0.1-0.3-0.2-0.4v2.5
		C96.1,202.7,96.7,202.6,97.1,202.6z"/>
	<path class="st2" d="M76.5,192.5C76.5,192.5,76.5,192.5,76.5,192.5c-0.3,0-0.6,0-0.8,0.1c0,0,0,0,0,0c-1.3,0.2-2.5,0.7-3.3,2.3
		l-2-0.4c0-0.1,0-0.2,0-0.3c0,0.1,0,0.2,0,0.4c0,0,0,0,0,0l2,0.4c0.3-0.1,0.8-0.3,1.4-0.5l4.1-1.6c0.9-0.3,1.6-0.6,2-0.6l1,0.1
		c-0.1,0.1-0.2,0.3-0.4,0.4c0.1-0.1,0.2-0.1,0.3-0.2c0.2-0.2,1.2-0.2,1.4-0.1l7.4,2.6c2.2,0.9,7.5,6.3,3.9,7.9c1-0.1,1.6-1,1.6-1.4
		c-0.1-1.5-0.5-2.8-1.2-3.8c-0.3-0.4-0.6-0.8-0.9-1.1c-0.3-0.3-0.7-0.7-1.4-1.2c-1.5-0.9-3.3-1.5-5.1-1.9l0.3-0.2
		c-3.4-1.1-5.6-1.6-7.7-1.9c0.2,0.2,0.5,0.5,0.7,0.7C78.8,192.4,77.6,192.4,76.5,192.5z"/>
	<path class="st2" d="M88.8,202.1c-0.6-2.4,1.7-3.3-1-4.9c-2.1-0.9-5.3-3.9-7.1-1.3c-0.2,0.3-0.2,0.8,0.1,1.1c1.8,2,5,4.9,1.2,6.2
		l11,0.1c0,0-0.1,0-0.1,0c0.1,0,0.2,0,0.2,0c0,0,0.1,0,0.1,0v-0.4c0,0,0,0,0,0l-3.5-0.1C89.3,202.8,88.9,202.5,88.8,202.1z
		 M87.9,202.7l-3.2,0.1c-0.4,0-0.7-0.4-0.6-0.7c0.8-2.8-3.6-5.1-3.2-5.6c1.6-2.5,4.6-0.1,6.6,1.1c2.7,1.6,0.4,2.1,1,4.4
		C88.6,202.3,88.3,202.7,87.9,202.7z"/>
	<path class="st2" d="M57,198.6l0.2-0.1c-3.4,0.1-6.4,0.3-7,0.3c0,0-0.1,0-0.1,0l0.5,0.2L57,198.6z"/>
	<path class="st2" d="M75.7,211.3l-0.1,0.2c0,0-0.1,0-0.1,0l0.2,0C75.7,211.5,75.7,211.4,75.7,211.3z"/>
	<path class="st2" d="M70.2,212.8c0.1,0.3,0.3,0.6,0.5,0.9C70.5,213.4,70.3,213.1,70.2,212.8L70.2,212.8z"/>
	<path class="st2" d="M48,200l0.1-0.1l-1.2-0.6c-0.6,0.1-1.2,0.2-1.8,0.4l1.6-0.3L48,200z"/>
	<path class="st2" d="M67.7,192c0.1-0.2,0.1-0.4,0.2-0.6l-0.2,0.4c-1.1-0.2-2.2-0.2-2.1,1.4c-4.5-0.2-8.7-0.5-13.1-0.8
		c0,0.3,0,0.5,0.1,0.6c4.2,0.5,8.5,0.6,12.7,1c0.3,0.1,0.5,0.3,0.8,0.4l0.1,0.5c0.2,0,0.3,0.1,0.5,0.1l-0.2-1.2l0.4,0
		c-0.4-0.1-0.9-0.2-1.2-0.4C65.6,191.8,66.4,191.8,67.7,192z"/>
	<path class="st2" d="M61.6,212.8C61.6,212.8,61.7,212.9,61.6,212.8c0,0,0,0,0,0.1c0,0,0.1-0.1,0.1-0.1l0,0
		C61.7,212.9,61.7,212.8,61.6,212.8z"/>
	<path class="st3" d="M96.3,209.9l-0.8-0.1c0,0-0.1-0.1-0.1-0.1c0,0,0,0.1,0,0.1l0,0l0.4,5.2c0,0,0.1,0,0.1,0c0.3,0,0.6-0.1,1-0.1
		c3.3-1.3,1-3.1-0.4-5L96.3,209.9C96.3,209.9,96.3,209.9,96.3,209.9z"/>
	<path class="st3" d="M95.2,209.1c0-0.1-0.1-0.1-0.1-0.2c0.2,2.2-1.5,3.3-2.8,4.3c0,0,0,0,0.1,0C93.6,212.2,95.3,211.1,95.2,209.1z"
		/>
	<path class="st3" d="M94.2,208.7c-1.6,4.1-7.9,2.3-11.8,2.9c0.1,0,0.1,0.1,0.2,0.1c3.9-0.6,10.2,1.3,11.7-2.9H95c0,0,0-0.1-0.1-0.1
		H94.2z"/>
	<path class="st3" d="M75.8,211.6l0.1-0.9l-0.2,0.7C75.7,211.4,75.7,211.5,75.8,211.6L75.8,211.6z"/>
	<path class="st4" d="M42.9,232c-0.3-1-0.8-2.5-1.8-4.7l0,0C42,229.5,42.6,231,42.9,232z"/>
	<path class="st4" d="M22.9,227.5c-3.1-1.4-4.3-5.3-6.8-7.7C18.5,222.2,19.8,226.1,22.9,227.5z"/>
	<path class="st4" d="M26.5,234.3C26.5,234.3,26.5,234.3,26.5,234.3c-0.4-0.7-0.4-1.4-0.2-1.9C26.1,232.9,26.1,233.6,26.5,234.3z"/>
	<path class="st4" d="M44.1,226.4c-1.3-0.2-2.4-0.9-3.4-1.6c1,0.8,2.1,1.5,3.4,1.7V226.4z"/>
	<path class="st4" d="M13.9,217.6c-0.6-0.6-1.7-1.4-2.6-2.2C11.5,216.9,12.6,217.3,13.9,217.6z"/>
	<path class="st4" d="M38.4,218.9c-0.1,0.3-0.3,0.7-0.4,1C38.1,219.5,38.2,219.2,38.4,218.9C38.4,218.9,38.4,218.9,38.4,218.9
		c0-0.1,0-0.1,0-0.2L38.4,218.9z"/>
	<path class="st4" d="M59.1,217.3c0.4,0.9,0.7,1.7,1.1,2.2C59.8,218.9,59.5,218.2,59.1,217.3L59.1,217.3z"/>
	<path class="st4" d="M10.3,214.3c-0.2-0.2-0.3-0.5-0.4-0.7v0H9.4c0,0.2,0.1,0.3,0.1,0.5h0.7L10.3,214.3z"/>
	<polygon class="st4" points="25.8,227.2 25.4,228.3 26.1,227.5 	"/>
	<path class="st4" d="M28.3,228.3c-1.1-0.3-1.4-0.8-1.4-1.3C26.9,227.5,27.2,228,28.3,228.3z"/>
	<path class="st4" d="M93.1,216.7c0.1-0.6,0.5-1.1,1.3-1.2l-0.1-0.1C93.5,215.5,93.2,216,93.1,216.7z"/>
	<path class="st4" d="M93,217.4c-3.2-2.1-2.3-3-0.7-4.2c0,0,0,0-0.1,0C90.7,214.3,89.7,215.3,93,217.4l0,1.1l-3.2-0.8
		c-1.4,0.1-2.5-0.9-2.7-2.3l-0.4,1.6c0.6,1.7-0.5,2.3-1.9,2.7c0,0,0,0.1,0,0.1c-7.5,2.2-15.8,3.2-23.4,2.6
		c-4.2,0.8-9.5,2.6-14.2,1.1c0.3-0.2,0.6-0.6,0.8-0.6c2.1,0.4,3.1-3,1.2-3.9l8.2-0.4l0.4-0.4l-0.4,0.3c0,0,0-0.1,0-0.1
		c0,0-0.1,0.1-0.1,0.1l-8.2,0.3l-5.3-2c-1.1,0.5-2.1,1-3.1,1.4c-3,0.4-1.2,4.9-4,4.6l-2.3,0.5c0-0.1,0-0.2-0.1-0.3
		c0.8-1.6-0.9-2.2-1.9-3c0,0,0,0,0-0.1c-0.6-0.2-1.2-0.3-1.8-0.4c2,0.4,3.5,1.2,3.5,3.4c-6.9-1.3-13.9-2.1-20.2-5.4l-0.1,0.1
		c0.1,0,0.1,0,0.2,0c0.1,0.5,0.2,0.8,0.3,1.3c-1.7-0.7-3.7-1.5-4.9-3l0.3,0.6c-2.3,0.2-0.8,1.6-0.7,2.3c0.1,0.6,0.3,1.4,0.6,2.1
		c-0.2-0.7-0.3-1.4-0.5-2c-0.1-0.8-1.7-2.2,0.7-2.3l1.8,1.1c-0.3,2.2,0,4.4,0.3,6.7c-0.3-2.2-0.6-4.3-0.3-6.5c1,0.4,3.3,1.5,4.3,1.8
		c7.7,2.8,16.3,4.4,24.6,5c16.3,2.8,33.3,0.4,49.2-3.9c-1.4,0.8-3.5,3.5-2.8,4.9c0.7,0.7,0.9,1.3,0.9,1.9c0.2-0.6,0.2-1.2-0.7-1.9
		c-0.5-1.4,1.2-4,2.8-4.9c2.2-0.2,4.2-1.1,5.7-2.7l-2.6,0.4C93.1,218.2,93,217.8,93,217.4z"/>
	<path class="st4" d="M95.8,218.1C95.8,218.1,95.8,218.1,95.8,218.1l0-0.3l-0.5-0.7C95.6,217.5,95.8,217.9,95.8,218.1z"/>
	<path class="st3" d="M37.4,182.9c-0.1-0.7-0.8-1.5-2.1-2.4l-0.1,0.1c-0.1,0-0.1,0-0.2,0C35.2,181.5,36.8,182,37.4,182.9z"/>
	<polygon class="st3" points="35.3,180.1 35.3,180.1 35.3,180.4 35.4,180.4 	"/>
	<path class="st3" d="M42.8,185.2l0.8-0.4c0.1-0.8,0.3-1.4,0.6-2c0,0.1-0.1,0.1-0.1,0.2l0-0.1c-0.2,0.7-0.5,1.3-0.6,1.8
		c0.1-1.2-0.6-2.4-1.8-2.9c-0.7,0.3-1.1,1-1.4,1.5l2.3,1.9c0.8,0.3,1.1,0.8,1.3,1.6C43.8,186,43.6,185.4,42.8,185.2z"/>
	<path class="st3" d="M40.8,179.9l-0.3,0.4l-0.6,0.1l0.5,0L40.8,179.9C40.8,179.9,40.8,179.9,40.8,179.9z"/>
	<path class="st5" d="M68.7,39.3c-0.2,0-0.3,0-0.4,0c0,0,0,0,0,0C68.4,39.3,68.6,39.3,68.7,39.3z"/>
	<path class="st5" d="M70.7,48.6C70.7,48.5,70.7,48.5,70.7,48.6l-2.6-7.5L66,40.2l-1.7,3.2L63,43.2c0.2,1.7-0.2,3.7-1,5.1
		C64.9,48.9,67.8,49.6,70.7,48.6z"/>
	<polygon class="st5" points="72,40.2 71.9,40.2 72,40.2 	"/>
	<polygon class="st6" points="58.5,48.4 59.2,49.6 59.2,49.6 	"/>
	<path class="st6" d="M58.1,47.6c1.3,0.1,2.6,0.4,3.9,0.7c0.8-1.4,1.2-3.4,1-5.1l1.3,0.2l1.7-3.2l2.1,0.9l-0.4-1.2
		c0.2-0.3,0.4-0.4,0.6-0.5c0,0,0,0,0,0c-0.3,0.1-0.5,0.2-0.6,0.5c-1.7-1.3-3.4-2.2-5.2-2.5c-2,0.3-3.9,0.5-4.4,0.4c0,0-0.1,0-0.1,0
		l-0.3,1c-0.1,0.8-0.2,1.5-0.3,2.2c0.3,0,0.5,0.2,0.8,0.3c1-2,3.5-1.8,3.7,1.3c-0.1,1.4-0.6,2.2-1.3,2.4c-0.3,0.5-0.7,1.1-0.9,1
		c-0.6-0.6-1.8-1.3-2.8-1.9c0,0.3-0.1,0.6-0.1,0.8C58.6,45.1,57.5,46.8,58.1,47.6z"/>
	<path class="st2" d="M60.5,45c0.7-0.3,1.3-1,1.3-2.4c-0.2-3.1-2.7-3.3-3.7-1.3c-0.3-0.1-0.5-0.3-0.8-0.3c-0.2,1.1-0.4,2.2-0.5,3.1
		c1,0.6,2.2,1.3,2.8,1.9C59.8,46.1,60.2,45.5,60.5,45z M58.6,43.3c-0.1-1.4,1.4-1.4,1.4,0C60,44.7,58.6,44.7,58.6,43.3z"/>
	<polygon class="st7" points="68.5,137.2 70.1,136.5 68.5,137.2 	"/>
	<path class="st7" d="M90.3,129.1c-0.5-0.5-0.8-1-1.2-1.5c0,0,0,0,0,0c0,0,0,0-0.1,0c0.4,0.6,0.8,1.2,1.2,1.8
		c1.2-1.1,2.8-1.4,4.5-1.5c0,0.8-0.2,1.3-0.7,1.6c0.5-0.3,0.9-0.8,0.9-1.7c0.2-0.4,0.4-0.9,0.6-1.3c-0.2,0.3-0.5,0.6-0.8,0.9
		C93.1,127.6,91.5,127.9,90.3,129.1z"/>
	<path class="st1" d="M92.2,78.4l-0.7,0.4l0.7,0.8C92,81.1,92,82.6,92,84l0.7-0.1C92.4,82,92.2,80.2,92.2,78.4z"/>
	<path class="st2" d="M39.3,68.7c0,0,0,0-0.1-0.1c-1.4-1.7-2.5-3.4-5-3.1L34,65.6l0.4,1.6l2.3-0.2C36.6,69.3,37.9,69.2,39.3,68.7z"
		/>
	<path class="st8" d="M49.1,74.4c0-0.1,0-0.3,0.1-0.5c-0.9-0.3-1.8-0.6-2.3-0.8l-0.4,0.6c1,0.3,2,0.6,3,0.8c0,0,0,0,0,0
		C49.4,74.4,49.2,74.4,49.1,74.4z"/>
	<path class="st8" d="M46.2,73.6c0,0,0.1,0,0.1,0C46.3,73.6,46.3,73.6,46.2,73.6L46.2,73.6z"/>
	<path class="st7" d="M6.9,48.9c0,0-0.1-0.1-0.1-0.1C6.9,48.8,6.9,48.8,6.9,48.9c-0.2-0.4-0.4-0.7-0.5-1.1c-1.4,2.2,0,3,1,4.6
		l-0.1,0.8l0.1,0l1.1,1.4c0.6,0.6,2.1,2.2,3,3.3l0.7,0.1c-2.5-2.8-2.4-4.4-4-7C7.8,50.3,7.3,49.6,6.9,48.9z"/>
	<path class="st9" d="M45.7,36.5c0,0.1-0.1,0.1-0.3,0.1c0.4,0.1,0.8,0.2,1.2,0.3l1.1-3.2c0.1-0.8,0.2-1.6,0.9-2.5
		c0.9-0.8,5.6-1.3,6.2-1.1c0.1,0,0.1,0.1,0.2,0.1c0,0,0,0,0,0c0,0,0,0,0,0c-0.4-0.3-0.9-0.5-1.5-0.7l-3.1,0
		c-2.4,1.6-3.2,3.7-4.5,6.5c-0.1,0-0.4,0.1-0.7,0.2C45.5,36.2,45.7,36.4,45.7,36.5z"/>
	<path class="st10" d="M5.8,43.3c2.7-3.2,13.7-3.7,20-2.5c0.5-0.1,1-0.2,1.4-0.4V40H16.8v-0.7c4.2-1.4,8.8-1.5,13-0.3
		c0.1-0.5,0.2-0.9,0.3-1.4c-9.2,0.7-19.5-0.9-27,5.4v6.1c0.4,0.6,1.7,2.6,2.4,2.9c0-0.1,0-0.2,0-0.3C4.6,49.6,2.4,45.5,5.8,43.3z"/>
	<path class="st10" d="M30,38.9C29.9,38.9,29.9,38.9,30,38.9C29.9,39,29.9,39,30,38.9L30,38.9z"/>
	<path class="st11" d="M86.9,229.3c0.4-0.6,0.8-1.1,1.1-1.6c0.1-0.6-0.1-1.2-0.9-1.9c-0.7-1.4,1.4-4.1,2.8-4.9
		c-15.9,4.3-32.9,6.7-49.2,3.9c1,0.7,2.1,1.4,3.4,1.6v0.7l-3,0.3c1,2.2,1.5,3.6,1.8,4.7c1.4,4.7-2.1,0.9,0.8,9.3
		c-1.3,0.2-2.6,0.2-3.9,0.2c16.5,1.5,34.3,0.2,50.2-4.2h-2.5C89.7,234.4,84.7,232.1,86.9,229.3z"/>
	<path class="st1" d="M14.2,97.7l4.1-0.7c0.5-1.5,1.1-2.7,2-2.9c0-0.2,0-0.3,0-0.5c-3.1-3.8-1.6-4.3,4.2-10.6
		c1.8-1.9,2.9,3.3,6.3,2.8l0,0c0.3-2.9,0.6-5.7,1-8.7l-2.3-0.2c-0.3-1.6-0.1-3.5,0.1-5.4l-2.6-5l-0.5-0.3v0c-2.2,1.5-5.8,4-8.1,5.3
		c-2,0.2-2,2.1-2.8,3.2c-0.1,0.6-0.2,1.2-0.2,1.8c-0.2,1.4-0.3,2.7-0.5,4.1c0,0,0.1-0.1,0.1-0.1c0.2,0.1,0.3,1.1,0.9,1.1
		c-0.5,1.3-1,5.7-2,5.9c0-0.1,0-0.3,0-0.4c-0.2,1.7-0.3,3.4-0.5,5.1c0-0.1,0-0.2,0-0.2c0,0.5-0.1,1-0.1,1.4c0,0.1,0,0.2,0.1,0.2
		c0,0,0-0.1,0-0.1C13.8,94.8,14,96.3,14.2,97.7z"/>
	<path class="st12" d="M77.8,160.4C77.7,160.4,77.7,160.4,77.8,160.4c-0.1,0.3,0,0.6,0.1,0.8C77.9,160.9,77.8,160.6,77.8,160.4z"/>
	<path class="st12" d="M72.3,155.9c2.6,0.9,0.5,2.6,0.6,4.2c-4.2,0.9-6.2-2.4-8.5-5.5c-2.6-3.5-5.2-8.3-0.8-11.7
		c-1-3-5.8-4.3-8.4-6.4l-0.8,0c-0.2-0.1-0.4-0.2-0.7-0.3l-5.6,0.5c0,0,0,0,0.1,0c0,0,0,0-0.1,0c0,0.1,0,0.2,0,0.3l-0.6,0.5
		c0,0,0,0,0,0v1.1c-0.1,0.1-0.1,0.1-0.2,0.1l0.2,0.6c1.4,1,11.7,8.7,12.3,9.1c-2.6,3.2,1.6,5.9,1,8.9c0-0.1-0.1-0.2-0.2-0.2
		c0.9,2.2,3.2,6.5,3.6,7.3c0.2,0.4,0.3,0.8,0.4,1.3c0.1-0.1,0.4-0.1,0.4,0.2c0.5,2.6,1.3,5.7,2.7,8c0.5-0.2,1.1,0.1,1.4-0.3
		c1.5-1.4,4.3-2.3,6.1-1.3c0.6-1.4,1.7-2.8,2-4.2c0.5-1.6-1.4-4.2,0.6-4.9c0,0,0,0,0-0.1l0.1-1c-0.2-0.5-0.3-1.1-0.3-1.7
		c-1.6,0.2-1.4-1.6-1.9-2.8c-0.5-1.1-3.7-8.1-4.1-8.9l-1.5,0.1C70.9,151.2,71.6,153.6,72.3,155.9z M76,167.4c-3.5,0.8-3.9-1.3-3-4.7
		C76.1,162.7,76.9,164.5,76,167.4z"/>
	<path class="st13" d="M42.9,232c-0.3-1.1-0.9-2.5-1.8-4.7l0,0l3-0.3v-0.6c-1.3-0.2-2.4-0.9-3.4-1.7c-8.3-0.6-16.9-2.2-24.6-5
		c2.5,2.4,3.7,6.3,6.8,7.7v-2.1l4.2,0.4c-0.1,0.4-0.2,0.8-0.2,1.2c0,0.6,0.3,1,1.4,1.3c2.8,1.2-1,2.2-1.9,4.1
		c-0.2,0.5-0.2,1.2,0.2,1.9c0,0,0,0,0,0.1c0,0,0,0,0,0v0l-1.5,0.7c0.2,0.6,0.2,1,0.2,1.4c0.2,3.6-5.4-0.3-7.3-1v1.2l-0.1-0.1l0,0.1
		c6.9,2.5,14.5,4.9,21.9,4.9c1.3,0,2.6-0.1,3.9-0.2C40.8,232.9,44.3,236.7,42.9,232z"/>
	<path class="st14" d="M18,235.5c2,0.6,7.5,4.6,7.3,1c0-0.4-0.1-0.8-0.2-1.4l1.5-0.7c0,0,0,0,0,0c0,0,0,0,0-0.1
		c-0.4-0.7-0.4-1.3-0.2-1.9c0.9-2,4.7-2.9,1.9-4.1c-1.1-0.3-1.4-0.7-1.4-1.3c0-0.4,0.1-0.7,0.2-1.2l-4.2-0.4v2.1
		c-3.1-1.4-4.4-5.3-6.8-7.7c-1-0.3-3.3-1.4-4.3-1.8c-0.2,2.2,0,4.3,0.3,6.5c0.5,3,1.1,6.1,0.4,9.2l5.4,2.9l0.1,0.1V235.5z
		 M25.8,227.2l0.3,0.3l-0.7,0.8L25.8,227.2z"/>
	<path class="st15" d="M31.1,173c3.6,0.1,3.2-4.5,4.6-7l0.6,0.1l1.3,3l0.7-0.1c0-0.2,0-0.3,0-0.5c0-2.1-1.3-5.3,0.2-6.8
		c2.3-1.9,1.9-5,3.6-7.1c0.3-0.4,0.5-0.9,0.5-1.4c0-0.3,0-0.5,0-0.8c0-0.3,0-0.5,0-0.8c1.6-2.2-0.5-2.7,0.5-5.1
		c-0.8-0.6-1.5-1.1-2.2-1.7l-2,1.2c-0.1,0.1-0.2,0.2-0.3,0.3l0,0l0.4-0.3c-1.6,4.1-3.7,7.8-5.8,11.6c-0.3,0.5-0.5,1.1-0.8,1.7
		c-0.4,0.7-1.1,1.3-1.1,2.1c0,0.3,0.1,0.6,0.3,0.9c0,0,0,0.1,0,0.1c0,0,0,0,0,0c0.2,0.1-0.6,1-1.1,1.6l0.1,0.1l-0.1-0.1
		c0,0,0,0-0.1,0.1l-1.6,3.6c0.2,0.9,0.4,2,0.6,3c0.7,0.6,1.1,1.4,1.6,2.2L31.1,173z"/>
	<path class="st13" d="M99,229.9c-3.1-1.9,1.5-6.6-3.5-7.4l3-2v-3.2l-2.6,0.5v0.3c0,0,0,0,0,0c0,0,0,0.1,0,0.1l-0.1,0
		c-1.5,1.6-3.4,2.5-5.7,2.7c-1.6,0.9-3.3,3.5-2.8,4.9c0.8,0.8,0.9,1.4,0.7,1.9c-0.2,0.5-0.7,1-1.1,1.6c-2.2,2.8,2.8,5.1,0.6,8.1H90
		l9.7-3.7l-0.1-0.8l-0.6,0.5V229.9z"/>
	<path class="st16" d="M76.8,82.9c0,0,0,0.1,0,0.1c0.1-1.1-0.1-2.5,0-3.6c0-0.2,0.2-0.4,0.4-0.5c1.6-0.7,0.6-1.8,0.5-3
		c-0.1-0.6-0.2-1.8-0.3-3.1c-0.5,1.2-1.2,2.4-1.8,3.7C75.4,78.7,75.5,80.8,76.8,82.9z"/>
	<path class="st16" d="M82,68c0.8,1.1-0.2,1,1.6,0.7c0.2,0,0.4,0,0.5,0.2c0.4,0.5,0.6,1.2,0.8,1.9c0.9,1.6,3.2,5.8,3.9,7.1l0.1,0.2
		l-0.5,0.1c0.6,2.2,0.6,4.3,0.6,6.4L92,84c0-1.5,0.1-2.9,0.2-4.4l-0.7-0.8l0.7-0.4c-0.1-1.4-0.1-2.8,0.1-4l-2.4-3.9l-5.9-3.1
		c-0.2,0-3.7-2.3-4.5-2.4c0,0,0,0,0,0.1C80.1,65.5,80.9,66.3,82,68z"/>
	<path class="st16" d="M88.7,127.2c0.1,0.1,0.3,0.3,0.4,0.4c0.4,0.5,0.7,0.9,1.2,1.5c1.2-1.2,2.8-1.5,4.4-1.6
		c0.3-0.3,0.5-0.6,0.8-0.9c0.3-0.9,0.4-1.8,0.4-2.8l-4.3,0.8C91.2,125.3,90.5,126.1,88.7,127.2z"/>
	<path class="st17" d="M76.3,180l-4.3,1.4l-0.1-0.1l-3.5-0.8l0,0c-1.1,3.5,1.7,6.9,0.1,10.1c0,0,0.1-0.1,0.1-0.1
		c1.3,0.6,1.7,1.9,1.8,3.3c0,0.1,0,0.2,0,0.2c0,0.1,0,0.1,0,0.2c0,0.1,0,0.2,0,0.3l2,0.4c0.8-1.6,2-2.1,3.3-2.3c0,0,0,0,0,0
		c0.3,0,0.5-0.1,0.8-0.1c0,0,0,0,0,0c1.1-0.1,2.3-0.1,3.3-0.4c-0.2-0.2-0.5-0.5-0.7-0.7c-0.8-0.7-1.3-1.5-0.5-2.7
		c-2.6-0.3-8,2.3-8.4-1.2c2.4-1.3,5.9,0.1,8.5-0.3c0.3-0.6,0.7-1.2,1-1.9l-1.3,0.1c0,0,0,0,0,0c-0.7,0.2-1.7,0.2-2.7,0.1l-5.8,0.5
		c0.8-2.5,2.1-2.1,3.1-1.7c0.2,0.1,0.3,0.1,0.5,0.2l4.3-0.3l2-1.3l-6,0.6v-1.2h6c0-0.6,0.1-1.5,0.1-1.7c-0.6-0.5-1-0.8-1.6-1.3
		L76.3,180L76.3,180z"/>
	<path class="st18" d="M38.6,146.2C38.6,146.2,38.6,146.2,38.6,146.2c0.1-0.1,0.2-0.2,0.3-0.3l2-1.2c-0.1-0.1-0.3-0.2-0.4-0.3
		l1.6-1.6c0.2-0.1,0.5-0.2,0.7-0.3c-0.2,0-0.5,0.1-0.6,0.2l3-2l-0.4-0.7c-2.6,0.6-3.9-1.6-5,1.7l-1.1-0.9l-4.1,0.1l-1.8,1.2
		c0,2.3-1.2,2.7-6.5,2.6l3.6,1.7l-0.6,0.5H26c3.8,1,8,2.3,11.5,0.1c0,0,0-0.1,0-0.1L38.6,146.2z M31.8,145.1l6.8-1.4
		C36.5,145.7,34.2,146.6,31.8,145.1z"/>
	<path class="st15" d="M76.2,176.2c-3,1.5-6.3,1.5-8.5-2.3c0,0,0,0,0.1,0c-1.4-2.3-2.2-5.4-2.7-8c0-0.2-0.3-0.3-0.4-0.2
		c0,0,0,0-0.1,0c-2.7,3.9-1.7,8.9,1.5,11.7c1.5,0.6,2.9,1.5,4.4,2c-0.5-2.4,2.5-1.3,3.8-2.1l2,2.5l2.1-0.6l0.3-0.8l-2.3-2.4
		C76.2,176.1,76.2,176.1,76.2,176.2L76.2,176.2z"/>
	<path class="st16" d="M101.2,42.4C101.1,42.4,101.1,42.3,101.2,42.4C101.1,42.4,101.2,42.4,101.2,42.4
		C101.2,42.4,101.2,42.4,101.2,42.4z"/>
	<path class="st16" d="M101.2,42.4c-0.3,1.3-1.2,2.3-1.4,3.6l-2.2,5.5c-0.8,1.7-1.8,3.5-3.6,4c0,0,0,0,0,0l-1.9,2.3
		c-1.5,3.1-5.5,1.9-7.9,4.3l1.7,1.1l2.3-0.5l7.8-6.3c2.7-3.5,5.6-8,6.4-12.3C100.8,44.4,101.8,43,101.2,42.4z"/>
	<path class="st16" d="M72,40.2L72,40.2l0.1,0.2c0.9-0.7,1.8-1.4,2.3-2.4l0.8,0.2c-0.3,1.5-0.3,4,0.7,5c1.7,0.9,3.3,2.7,4.4,4.5
		c-0.1-0.7-0.2-1.3-0.2-2L80,45.6h-1.1c-0.9-1.3-4.4-4.2-1.7-5.2c1.1-3.5,6.4-2.3,10.3-2.1l0-1.4c-4.8,0-14.2-0.1-14.8-0.1
		c0.2,0,0.5-0.1,0.8-0.1l-0.8,0h-0.6l0.1,0.1L72,40.2z"/>
	<path class="st19" d="M78.9,163.8c1.1,3.5-2.2,6.9-2.6,10.3l2.3-1c0.6,0.5-1.1,1.7-1.8,2.4l-0.4,0.5l-0.1,0.1l2.1,2.2
		c3.6-2.7,6.5-10,1-14.7h-0.2c0,0.1,0,0.1,0,0.2H78.9z"/>
	<path class="st20" d="M28.3,187.7c0,0.1,0,0.1-0.1,0.2l1.1-0.7c-0.2-0.2-0.5-0.5-0.6-0.7c0,0,0,0,0,0c-2.2-0.2-2-1.7-1.4-3.2
		c0.8-1.4,2.6-1.6,2.8-3.7l-7,6.4c-4,0.9-5.1,4.9-6.8,8l1.2,1.4C17.8,190.5,21.3,187.3,28.3,187.7z"/>
	<path class="st20" d="M17.9,195.6c-0.1,0-0.1,0-0.2-0.1L17.9,195.6C17.9,195.6,17.9,195.6,17.9,195.6z"/>
	<path class="st9" d="M29.9,146.5l-3.6-1.7c5.3,0.1,6.5-0.3,6.5-2.6l1.8-1.2l-0.4,0l-2.9-1.5c-0.1,0.3,0.2,0.7,0.3,1l0,0l-0.2,2.6
		c-2.6,0.7-2.8-0.1-3-2.3l-0.2,0l-1.9-0.7l-2.8,0.7c0,0.1,0,0.2,0,0.3c-0.1,0-0.2-0.1-0.3-0.1l0.3,0.2l-2.6,0.9
		c0,0.2-0.1,0.4-0.1,0.6h-0.9c0.7,0.9,1.4,2,2.2,2.8c0.5,0.5,2,1.2,3.1,1.3l0.8,0.1h3.5L29.9,146.5z"/>
	<path class="st21" d="M98.7,201.4l-0.6,0.5l-0.8,0.7l-0.1,0l0.2,2c0,0,0,0,0,0c2.7,1.4,7.2,4.9,4.3,7.9l-4.9-2.5l-0.2-0.1
		c1.4,1.9,3.7,3.7,0.4,5c-0.4,0-0.7,0.1-1,0.1c0,0,0,0.1,0,0.1l-1.3,0.2c-0.1,0-0.2,0-0.4,0l0.1,0.1c0.1,0,0.2,0,0.3,0
		c0,0.1,0.4,0.9,0.7,1.6l0.5,0.7l2.6-0.5l1.1-0.9c-0.1-0.1-0.2-0.2-0.3-0.3c0.9-1.1,3.1-4.8,5.4-4.7c-0.1-1-0.2-1.9-0.3-2.9
		c-0.8-0.3-1.5-0.7-2.1-1.2C100.2,205.8,98.8,203.6,98.7,201.4z"/>
	<path class="st3" d="M12.1,224.4c-0.4-2.2-0.7-4.5-0.3-6.7l-1.8-1.1c-2.4,0.1-0.8,1.5-0.7,2.3c0.1,0.6,0.3,1.3,0.5,2
		c0.4,1.2,0.8,2.5,1.1,3.7l-1.5-0.3c-0.2,2,1.5,3-0.8,5.2l3.9,4.1C13.1,230.5,12.5,227.4,12.1,224.4z"/>
	<path class="st14" d="M101.3,222.5c0-0.3,0-0.5,0-0.8c-0.1,0-0.3,0-0.4,0c-2.6-0.4-0.9-2.5-0.7-4.1l-1.7-0.3v3.2l-3,2
		c5,0.8,0.4,5.5,3.5,7.4v3.5l0.6-0.5l2.1-1.8l-1.4-0.2C100.5,228.1,101.1,225.2,101.3,222.5z"/>
	<path class="st22" d="M105.1,211.4c-0.1,0-0.3,0-0.4,0c-2.3,0-4.5,3.6-5.4,4.7c0.1,0.1,0.2,0.2,0.3,0.3l3.2-2.7
		c-0.4,0.7-0.8,1.6-1.3,2.3c2.4,2.2,1.3,5.5-0.2,5.7c0,0.3,0,0.5,0,0.8c2.9,0.1,1.2,4.8,1.9,6.8c2.5-4.4,1.5-9.3,1.7-14.1l-1.6-0.7
		l1.4-1.4c0,0.1,0,0.2,0.1,0.3l0.4-0.4L105.1,211.4z"/>
	<path class="st21" d="M9.3,224.3l1.5,0.3c-0.3-1.2-0.8-2.5-1.1-3.7c-0.2-0.7-0.4-1.5-0.6-2.1c-0.1-0.7-1.6-2.1,0.7-2.3L9.6,216
		c-0.3-0.4-0.6-0.9-0.8-1.4L7.1,213c-0.6,5.3-0.5,11.3,1.4,16.5C10.8,227.3,9.1,226.3,9.3,224.3z"/>
	<path class="st7" d="M92.5,132c0.2-0.1,0.3-0.2,0.4-0.3l-1.7-1.5c0.4-0.1,0.7-0.1,1.1-0.2c-0.5,0.1-1.1,0.1-1.6,0.3
		c-0.2-0.3-0.3-0.5-0.5-0.7c0.2,0.3,0.4,0.6,0.6,0.9c-0.5,1.9-2.1,2.7-3.6,3.9c0.8,0.4,1.9,0.6,2.1,1c-0.5,1.3-1,3.1-0.7,4.7l0,0
		l0.2-0.2c0.6-2.9,3.1-3.2,5.5-3.8l0,0l0.6-0.6c0.5-0.5,1.1-0.8-0.3-2.3c-0.2-0.1-0.4-0.3-0.6-0.4c0,0.3,0,0.5,0.1,0.8L92.5,132z"/>
	<path class="st9" d="M88.7,140.1L88.7,140.1c0,0.1,0,0.1,0,0.2l-2.5,1.4l0.2-2.8c-0.3,0.1-0.5,0.1-0.7,0.2c0,0,0.1,0,0.1,0
		c-0.7,2.3-2.4,3.4-4.5,3.9l0.6,0.3c0.9-0.5,2.1-1.1,3.8-1.6l0.4,0.6c-0.6,1.3-2.5,1.8-3.3,3.2c-0.1,0.2-0.2,0.4-0.2,0.6
		c3.9,0.3,6.9-2.4,9-5.4l-2.7-0.9L88.7,140.1z"/>
	<path class="st1" d="M87.5,36.8l0,1.4c0,0,0.1,0,0.1,0c4.7,0.4,9.1,0.6,13.6,4.1c0,0,0,0,0,0c0,0,0,0,0,0c0,0,0,0,0.1,0
		c0,0,0,0,0,0c0.6,0.6-0.4,2,1.2,1.7c1.7-5.1-6.3-6.2-9.3-7.4l-2.9,0.1C90.1,36.9,89,36.9,87.5,36.8z"/>
	<path class="st1" d="M11.4,57.8l0.2,0c-0.9-1.1-2.4-2.7-3-3.3L8.9,55c-0.2,0.3-0.6,0.3-0.9,0.5c1,0.2,1.5,1,1.5,2
		c0,0.3,0,0.6,0,0.9l0.8,1.1c3.6,2.4,6.5,6.2,11.2,6.2C20.7,61.5,13.2,61.4,11.4,57.8z"/>
	<path class="st6" d="M19.3,199.6c0.6,0.1,1.6,0.4,2.6,0.7l-0.4-1.2c2.8-0.2,5.1-0.1,7.8-0.4l0.7,0c-2.5-0.3-4.8-0.8-6.4-1.1
		c-2.3-0.2-4.8-0.9-5.9-1.9c0.1,0,0.1,0,0.2,0l-0.1-0.1c-0.1,0-0.1-0.1-0.2-0.1c0-0.1,0-0.1,0-0.2l-1.3-1.5
		c-0.2,1.8-0.8,3.4-1.7,4.9l2.9,0.4c0,0,0-0.1,0-0.1L19.3,199.6z"/>
	<path class="st9" d="M34.4,26.2c1-0.8,1.9-1.4,2.7-1.8h-1.4c-2.5,1.2-4.6,2.4-6.2,4.5c1.4,0.8,3.1,1.6,3.7,3.1
		c0.9-1.2,1.9-2.4,2.8-3.4L34.4,26.2z"/>
	<path class="st19" d="M31.7,162.3c-0.2-0.3-0.3-0.6-0.3-0.9c0-0.9,0.7-1.5,1.1-2.2c0.3-0.5,0.5-1,0.8-1.6c2.1-3.8,4.2-7.6,5.8-11.6
		l-0.4,0.3l0,0l-1.1,0.7c0,0,0,0.1,0,0.1c-2.1,6.9-9.1,13.1-8.7,20.5l1.6-3.6C30.8,163.4,31.6,162.7,31.7,162.3
		C31.7,162.3,31.7,162.3,31.7,162.3z"/>
	<path class="st9" d="M91.5,195.3c0.9,0.6,1.8,1.4,2.4,2.4c0.6,1,1,2.2,1.2,3.8c0,0.4-0.7,1.2-1.6,1.4c0,0,0,0-0.1,0l-0.2,0
		c0,0,0,0,0,0v0.4c0.6-0.1,1.5-0.3,2.3-0.4v-2.7c-0.8-2.6-1.7-4.3-3.9-5.9c-0.1,0.1-0.3,0-0.3-0.1l-3.3-1.4c-0.1,0-0.2,0-0.3-0.1
		l-0.9,0.6l-0.3,0.2C88.3,193.8,90.1,194.4,91.5,195.3z"/>
	<path class="st7" d="M92.2,57.9c-3,1.8-8.8,2.3-10.5,2.7c-0.3,0.1-0.6-0.1-0.7-0.4c0,0,0-0.1,0-0.1c-0.1,0.9-0.2,1.7-0.3,2.6
		c1.9,0.9,3.1,1.4,5.3,0.6l-1.7-1.1C86.7,59.8,90.7,61,92.2,57.9z"/>
	<path class="st3" d="M101.3,222.5c-0.2,2.7-0.8,5.6-1,8.4l1.4,0.2l0.1,0l1.5-1.6c0-0.1,0-0.1-0.1-0.2
		C102.5,227.3,104.2,222.6,101.3,222.5z"/>
	<path class="st23" d="M13.9,87c0-1.6-0.6-5.3,1-6.5c0.2-1.4,0.3-2.7,0.5-4.1c0.1-0.6,0.1-1.2,0.2-1.8c-2.1,3.6-1.7,8.2-3,12.2
		c-0.2,1.7,0.5,3.3,0.8,5.1c0,0.1,0,0.2,0,0.2C13.6,90.4,13.7,88.7,13.9,87z"/>
	<path class="st10" d="M92.2,78.4c0.1,1.7,0.3,3.6,0.5,5.5l1.8-0.3c-0.8-3.1-1.5-6.2-2.3-9.1C92.1,75.7,92.1,77,92.2,78.4z"/>
	<path class="st24" d="M97.1,126.9c-0.8,2-2.4,3.6-3.9,5l-0.2-0.2c-0.1,0.1-0.3,0.2-0.4,0.3l1.7,1.5c-0.1-0.3-0.1-0.6-0.1-0.8
		c0-0.9,0.6-1.7,1.4-2.3c2.1-1.8,3.7-4.6,4.4-7.3l-1,0.2C98.3,124.6,97.6,125.9,97.1,126.9z"/>
	<path class="st19" d="M32.2,179.8l2.9,0.5c0,0.1,0,0.2,0,0.3c0.1,0,0.1,0,0.2,0l0.1-0.1c0,0,0,0-0.1,0l0.1-0.1l0-0.3
		c-0.2,0-0.3,0-0.4,0c-1.9-1.4-3.7-4.8-4-7.2c0,0,0.1,0,0.1,0c0,0,0-0.1-0.1-0.1c-0.4-0.8-0.9-1.6-1.6-2.2c0.1,3.1,3.6,6.2,0.7,8.8
		h2.2C32.3,179.6,32.2,179.7,32.2,179.8z"/>
	<path class="st10" d="M88.9,139.9l2.7,0.9l2.8-4.7l0,0C92,136.7,89.5,137,88.9,139.9z"/>
	<path class="st23" d="M13.4,93.5c0,0,0,0.1,0,0.1c-0.6,1.5-0.8,2.9-0.9,4.4l1.7-0.3C14,96.3,13.8,94.8,13.4,93.5z"/>
	<path class="st2" d="M9.7,206.7c0,1.7,0.3,3.7,0.1,5.4c0,0-0.1,0-0.1,0c0.1,0.4,0.1,0.8,0.2,1.1l1.4-0.3c-3.2-5-0.2-6.9,3.6-8
		l-2.4-0.1c0,0,0-0.1,0-0.1l-2.4-0.3c0,0-0.1,0-0.1,0L9.8,206l0,0c0,0.1,0,0.2,0,0.2C9.7,206.3,9.7,206.5,9.7,206.7z"/>
	<path class="st22" d="M70.2,187.5c0.4,3.5,5.8,0.9,8.4,1.2c0,0,0,0,0.1,0l0.1-1.5c0,0-0.1,0-0.1,0
		C76.1,187.5,72.5,186.2,70.2,187.5z"/>
	<path class="st2" d="M13.7,201.2l3.7-0.8c0-0.1,0.1-0.2,0.2-0.3l0,0c-0.1-0.2,0-0.6-0.1-0.9l-2.9-0.4l-3,2l2.2,0.2
		C13.7,201,13.7,201.1,13.7,201.2z"/>
	<path class="st22" d="M13.4,201.3l0.3-0.1c0-0.1,0.1-0.2,0.1-0.2l-2.2-0.2l-1.5,3.6l0.1,0l2.4,0.3
		C12.9,203.6,13.1,202.3,13.4,201.3z"/>
	<path class="st2" d="M79.9,182.3v0.6l-0.1,0l-2,1.3c0.1,0.4,0.5,0.8,0.6,1.2l1.3-0.1l0.2,0c1.2-1.3,2.5-4.4,0-4.7
		C79.9,180.8,79.8,181.6,79.9,182.3L79.9,182.3z"/>
	<path class="st14" d="M9.1,211.7h0.6c0,0.1,0.1,0.3,0.1,0.4c0.1,0,0.1,0,0.1,0c0.2-1.7-0.2-3.6-0.1-5.4c0-0.2,0-0.3,0-0.5
		c0-0.1,0-0.2,0-0.2l-2.2,2.8l0.2,0.6l-0.6,1.1v1h1.9C9.1,211.5,9.1,211.6,9.1,211.7z"/>
	<polygon class="st14" points="9.8,206 9.8,206 9.8,206 	"/>
	<path class="st9" d="M87.5,36.8c1.6,0,2.7,0,2.8,0l2.9-0.1l0,0c-5.8-1-13.8-0.8-19.8-0.1c-0.3,0-0.5,0.1-0.8,0.1
		C73.3,36.8,82.6,36.8,87.5,36.8z"/>
	<path class="st3" d="M9.4,214.2h0.1c0-0.2,0-0.3-0.1-0.5h0c-0.1-0.7-0.2-1.3-0.3-2h0c0-0.1,0-0.1,0-0.2H7.2L7.1,213l0.1,0.1
		l1.6,1.5L9.4,214.2z"/>
	<path class="st11" d="M78,161.5l0.7,1.6l-0.1,0c0.1,0.2,0.2,0.5,0.3,0.7h0.3c0-0.1,0-0.1,0-0.2c0.1-1-0.8-1.6-1.3-2.4
		c-0.1-0.2-0.2-0.5-0.2-0.8c0,0,0-0.1,0-0.1c0,0,0,0.1,0,0.1c0,0.7,0.1,1.2,0.3,1.7L78,161.5z"/>
	<path class="st10" d="M8,55.4c0.2-0.2,0.7-0.1,0.9-0.5l-0.3-0.4l-1.1-1.4l-0.1,0l-1.5-0.8l0,0c0.4,0.9,1.4,2.9,1.9,3.2v0.5l1.7,1.6
		c0-0.1,0-0.2,0-0.3C9.5,56.4,9,55.7,8,55.4z"/>
	<path class="st21" d="M103.3,214.6l1.6,0.7l0.1,0c0-0.5-0.1-1.2-0.2-1.8c0-0.1,0-0.2-0.1-0.3L103.3,214.6z"/>
	<path class="st25" d="M6.9,48.9c0.4,0.7,0.8,1.4,1.4,2C8,50.3,7.5,49.6,6.9,48.9z"/>
	<path class="st25" d="M21.9,56.1l3.1-3.1l0.4-1.4l0.2,0c0,0,0,0,0,0c-5.1-3.1,2-4.9,4.2-7.5c1.4-1.5-0.6-2.6-4-3.2
		c-6.3-1.2-17.3-0.7-20,2.5c0,0,0.1,0,0.1-0.1l0.6,4.5c0,0,0,0,0,0c0.2,0.4,0.3,0.7,0.5,1C16.2,60.5,12.3,44.5,21.9,56.1z M21.9,41
		c-3.6,0.6-7.3,0.3-10.9,0.4C14.6,40,18.2,40.9,21.9,41z"/>
	<path class="st1" d="M7.4,53.1l0.1-0.8c-1-1.6-2.4-2.4-1-4.6c0,0,0,0,0,0l-0.6-4.5c0,0-0.1,0-0.1,0.1c-3.4,2.2-1.1,6.3-0.2,8.3
		c0.1,0.3,0.2,0.5,0.3,0.7h0l0,0L7.4,53.1z"/>
	<path class="st1" d="M21.9,41c-3.7-0.1-7.3-1-10.9,0.4C14.6,41.3,18.3,41.6,21.9,41z"/>
	<path class="st23" d="M48.6,91.7c-0.1-0.6-0.1-1.1-0.1-1.7c2.5-2.4,0.2-4.4,0.5-7.1c0,0,0-0.1,0-0.1c-1.3-0.8-1.5-2.5-2.3-2.8
		c0,0,0,0,0,0l0,0c-0.1-0.1-0.3-0.1-0.5,0c0.4-0.1,1.2-0.2,2.1-0.4c-0.3-0.1-0.6-0.2-0.9-0.4H47l-0.3-0.5c-6,0-9.2-5.5-13.2-9.3
		c2.2,4.4,5.6,8,10.1,10.2c0.1,0,0.2,0.1,0.3,0.1l-0.1,0c0.1,0.1,0.3,0.2,0.4,0.2l-3.1-0.1c0.1,3.2-0.4,10.8-5.2,7.1
		c-1.2-0.6-1.9-2.1-3.5-1.1c-0.3,0.2-1.2,0.2-1.6,0.2c0,0.1,0,0.1,0,0.2c0,2.8,1.4,5.5,1.4,8.5L48.6,91.7z M45,79.7l-0.2-0.1
		L45,79.7z"/>
	<polygon class="st23" points="30.8,85.8 30.8,85.8 30.8,85.8 	"/>
	<path class="st24" d="M30.8,85.9c0.4,0,1.3,0,1.6-0.2c1.6-1,2.3,0.5,3.5,1.1c4.8,3.7,5.3-3.9,5.2-7.1l3.1,0.1
		c-0.2-0.1-0.3-0.2-0.4-0.2c0,0-0.1,0-0.1-0.1c-4.5-2.2-7.9-5.8-10.1-10.2c-0.2-0.2-0.5-0.4-0.7-0.7c-0.2-0.3-0.3-0.6-0.3-0.9
		l-6-8.1l0.7-0.5l11,5.4c1.9,0.1,5.1,0.5,6.9-0.2c5.5-3.2,5.2-9.3,5.4-15.6c0-0.4,0.8-0.8,1.1-1.1l1-0.3c1-0.2,1.9-0.1,2.5,0.1
		c-0.5-0.4-1-0.7-1.6-0.7c-1,0.3-1.9,0.1-3.9-0.6c0-0.1,0-0.2,0-0.3c0,0.1,0,0.1,0,0.2c-0.1-0.1-0.2-0.1-0.3-0.2L49,46c0,0,0,0,0,0
		l-2,3.2l0,0l-0.2,0.6c0,0.1,0.1,0.1,0.1,0.2c0.1,1,0.1,4.1-4.8,7.8c-3.8,3.4-9.8,0.6-14.1-1.9c0,0,0-0.1,0.1-0.1L27.3,54
		c0,0,0,0,0-0.1c-0.1-0.2-0.2-0.3-0.3-0.5h-0.7c-0.1,0.2-0.4,0.6-0.7,0.9L25.4,61c2.2,0.1,2.2,2.8,3,4.2c1.3,1.3,2,4.2,1.2,6.3l0,0
		c-0.1,1.9-0.4,3.9-0.1,5.4l2.3,0.2c-0.4,3-0.7,5.8-1,8.7c0,0,0,0,0,0C30.8,85.8,30.8,85.8,30.8,85.9z"/>
	<path class="st26" d="M20.3,96.6l4.4-0.8c0.2-3,1.1-6.1,1.8-7.3h1.1c0.6,2.2,1.8,4.2,2.5,6.3l0.7-0.1c0.2-1.3,0.9-3.2-0.8-3.9
		c-0.5-0.2-0.3-1.6-0.3-2.7c0-0.4,0.1-0.9,0.4-1.3l0.7-1.1c0,0.1,0,0.1,0,0.2c0-0.1,0-0.1,0-0.2c0,0,0-0.1,0-0.1c0,0,0,0,0,0
		c-3.4,0.5-4.5-4.7-6.3-2.8c-5.8,6.3-7.3,6.8-4.2,10.6c0,0.2,0,0.3,0,0.5c0,0,0,0,0,0C20.3,94.9,20.3,95.7,20.3,96.6z"/>
	<path class="st16" d="M20.3,94.1C20.3,94.1,20.3,94.1,20.3,94.1c-0.8,0.2-1.5,1.4-2,2.9l2-0.3C20.3,95.7,20.3,94.9,20.3,94.1z"/>
	<path class="st10" d="M30.8,86.1c0-0.1,0-0.1,0-0.2L30,87c-0.2,0.4-0.4,0.8-0.4,1.3c0,1.1-0.2,2.4,0.3,2.7c1.7,0.7,1,2.6,0.8,3.9
		l1.4-0.2C32.2,91.6,30.7,88.9,30.8,86.1z"/>
	<path class="st6" d="M27,66.4L27,66.4l1.4-1.3c0,0,0,0,0,0c-0.8-1.5-0.8-4.1-3-4.2l0,0.1c0,0.3,0.2,1.2,0.4,1.6L25.1,65l0,0
		c0.7,0.1,1.7-0.2,1.4,1.2v0L27,66.4z"/>
	<path class="st23" d="M28.3,65.2C28.3,65.2,28.3,65.2,28.3,65.2L27,66.4l0,0l2.6,5l0,0C30.3,69.4,29.6,66.5,28.3,65.2z"/>
	<path class="st10" d="M13.9,87c0,0.2,0,0.3,0,0.4c1-0.2,1.5-4.6,2-5.9c-0.6,0-0.7-1-0.9-1.1c0,0-0.1,0.1-0.1,0.1
		C13.3,81.7,13.8,85.4,13.9,87z"/>
	<path class="st16" d="M36,41L36,41L36,41l0.7,0.3l0,0c1.2-2.7,3.9-4.4,6.7-4.7c-1.3-0.1-2.9-0.4-4.4-0.7c-1.6,0.5-3.2,1.3-4.9,2
		c0,0,0,0-0.1,0.1C35.9,38.4,35.4,40,36,41z"/>
	<path class="st7" d="M67.7,39.9l0.4,1.2l2.6,7.4c2.4-1.7-3-7.3,0.7-7.5l0-0.1c0.2-0.2,0.4-0.3,0.7-0.5L72,40.2h0
		c-1,0-2.3-0.8-3.2-0.9c-0.2,0-0.3,0-0.4,0C68,39.4,67.8,39.6,67.7,39.9z"/>
	<path class="st9" d="M48.1,19.7c0.8-2.6,0.9-5.7,3.3-7.4h1.6c1.4,2.8,2.9,5.4,3.9,8.2c-0.8-3-1.6-5.4-2.4-8.6l-0.2-1.2l-1.2-2.6
		l-0.4-0.2c0,0,0,0,0,0c0.2,0.7,0.3,2.5-1.3,2.7c-1.8,0-1-1.2-0.6-2.2c-3,4.7-3.9,11-4.3,16.6l1.1-0.3C46.4,23,47.1,21,48.1,19.7z"
		/>
	<path class="st17" d="M58,37.8C58,37.8,58,37.7,58,37.8C58,37.7,58,37.7,58,37.8C58,37.7,58,37.7,58,37.8z"/>
	<path class="st17" d="M29.8,39c0,0,0.1,0,0.1,0c0,0,0,0,0.1,0c1.5-0.1,2.8-0.6,4.2-1.1c1.6-0.7,3.2-1.5,4.9-2
		c-2-0.4-3.7-0.9-3.6-1.2c0-0.5,3.8-0.9,7.4,0.4c0.7,0.3,1.8,0.7,2.4,1.1c0.3-0.1,0.5-0.1,0.7-0.2c1.3-2.8,2.1-4.9,4.5-6.5l0,0
		l-0.5-3c-0.2-0.9,0.5-1.8,1.4-1.9c3.1-0.2,6.1,2.6,2.4,4.9l-0.1,0c0.6,0.2,1.1,0.5,1.5,0.7c0.1,0.1,0.2,0.1,0.4,0.2
		c-0.1-0.1-0.2-0.1-0.3-0.2c-0.1,0-0.1-0.1-0.2-0.1c-0.6-0.2-5.3,0.3-6.2,1.1c-0.7,0.9-0.8,1.7-0.9,2.5l0.1-0.2
		c2.3,1.8,2.4,9.4,1.8,12.3c0,0.1,0,0.2,0,0.3c1.9,0.7,2.9,0.9,3.9,0.6c0.7-0.2,1.5-0.6,2.8-1.3v0l0.5-0.5c0,0,0,0,0,0
		c0-0.3,0.1-0.5,0.1-0.8c0.1-0.9,0.3-2,0.5-3.1c0.1-0.7,0.2-1.5,0.3-2.2c0.3-2.9,0.2-5.8-1.3-7.6c2.2,1.5,1.8,4.3,1.6,6.4
		c0.2-0.5,3.5-2.1,7.1-2.2c1.1,0,3.2,0.1,3.2,0.4c0.1,0.4-3,1.1-5.8,1.6c1.9,0.3,3.6,1.2,5.2,2.5c0.2-0.3,0.4-0.4,0.6-0.5
		c0.1,0,0.3-0.1,0.4,0c1,0,2.3,0.9,3.2,0.9l0,0l0.2-3.4l-0.1-0.1l-2.2-3.4l3.9-2.6c-3.4-4.2-10.9-8-15.4-3.9
		c-0.2-2.3-0.7-4.3-1.5-6.3c-1.1-2.8-2.5-5.4-3.9-8.2h-1.6c-2.4,1.8-2.5,4.9-3.3,7.4c-1,1.3-1.6,3.3-0.4,4.9l-1.1,0.3l0,0h-1.2
		c-3.9-1.3-5.6-1.9-8.2-0.5c-0.8,0.4-1.6,1-2.7,1.8l1.6,2.4c-0.9,1-1.9,2.2-2.8,3.4c-1.3,1.7-2.5,3.6-3.1,5.6
		C30,38,29.8,38.5,29.8,39C29.8,38.9,29.8,38.9,29.8,39z"/>
	<path class="st9" d="M58,37.7C58,37.7,58,37.7,58,37.7C57.9,37.6,58,37.6,58,37.7c0.2-2.3,0.6-5-1.6-6.5c1.6,1.7,1.6,4.7,1.3,7.6
		L58,37.7C58,37.7,58,37.7,58,37.7z"/>
	<path class="st27" d="M66.7,142.3c-2.1-0.6-3.6-2.9-4.4-5.7c0,0,0,0,0.1,0.1l0-0.1l-7.1-0.1c2.5,2.1,7.4,3.3,8.4,6.4
		c-4.4,3.4-1.8,8.2,0.8,11.7c2.3,3.1,4.3,6.4,8.5,5.5c-0.1-1.6,2-3.3-0.6-4.2c-0.7-2.3-1.4-4.7-2.1-7.1l1.5-0.1l-2-3.2
		c0,0,0,0-0.1,0l0.1,0.1C68.1,144.9,67.3,143.7,66.7,142.3z"/>
	<path class="st27" d="M56.1,151c0.1,0,0.3,0.1,0.4,0.1C56.4,151,56.3,151,56.1,151z"/>
	<path class="st27" d="M49.6,149.4l-0.3-0.6c-1.2-2.1-2.5-3.5-2.9-6c1.3,0.8,2.1,1.6,3.3,2.4c2.3,1,2.4,1.3,3.7,3.5l-2.2,0.9
		c0.2,0.1,0.4,0.3,0.6,0.4c1.4,0.7,3.3,0.4,4.8,1.1c0.8,2.3,2.7,4.1,4,6.1c0.1,0.1,0.1,0.2,0.2,0.2c0.6-3-3.6-5.7-1-8.9
		c-0.6-0.4-10.9-8.1-12.3-9.1l0,0c-0.7,0.6-1.4,1.1-2,1.5c-0.2,1.6-1.5,1.5-2.5,1.7c-0.3,0.1-0.5,0.1-0.7,0.3l-1.6,1.6
		c0.1,0.1,0.3,0.2,0.4,0.3c0.7,0.5,1.4,1.1,2.2,1.7c0,0,0,0,0-0.1C45.1,147.7,47.2,149.1,49.6,149.4z"/>
	<path class="st15" d="M61.8,131.3l-0.1-0.1l-0.8-0.4c-2.7,0.4-5.5,0.3-8.2,0.5l-4.5,0.8c0.1,1.5-0.2,3.2-0.1,4.5c0,0,0,0,0.1,0
		c1.5-1.5,5-1.8,6.5-0.6l-1,0.1c0.2,0.1,0.4,0.2,0.7,0.3l0.8,0l7.1,0.1l-0.2-0.7C61.9,134.4,62,132.8,61.8,131.3z"/>
	<path class="st17" d="M47.2,138.2l0.1,0.5c0.1,0,0.1-0.1,0.2-0.1v-1.1c0,0,0,0,0,0l-0.4,0.3c-0.8,0.5-1.5,0.7-2.2,0.6
		c-2,0.5-2.9,0-3.7-1.4c0,0,0,0,0,0l-1-0.5c-1.5,3.2-6,5.2-9.1,2.2c0-0.1,0-0.2,0-0.3l-0.5,0.1c0,0.1,0,0.2,0,0.3l-2.1,0.7
		c0-0.1,0-0.1,0-0.2l-2.5,0.6l0.3,0.1l-0.1,0l1.9,0.7l0.2,0c0-0.1,0-0.1,0-0.2l3.3-0.1c-0.1-0.3-0.3-0.7-0.3-1l2.9,1.5l0.4,0
		l4.1-0.1l1.1,0.9c1.2-3.3,2.5-1.1,5-1.7l-0.1-0.2L47.2,138.2z"/>
	<path class="st27" d="M76.2,176.2L76.2,176.2l0.2-0.2l0.4-0.5l-1.2-1.2l-0.6-0.6c0-0.5,0.1-0.9,0.3-1.4c-1.8-1-4.6-0.1-6.1,1.3
		c-0.3,0.4-0.9,0.2-1.4,0.3c0,0,0,0-0.1,0C69.9,177.7,73.2,177.7,76.2,176.2z"/>
	<path class="st15" d="M75.6,174.3l1.2,1.2c0.7-0.7,2.4-1.9,1.8-2.4l-2.3,1c0.5-3.4,3.8-6.8,2.6-10.3c-0.1-0.2-0.2-0.5-0.3-0.7
		l-0.7,0.2l0-0.1c0,0,0,0,0,0c-2,0.7-0.1,3.3-0.6,4.9c-0.2,1.4-1.4,2.8-2,4.2c-0.2,0.5-0.3,0.9-0.3,1.4L75.6,174.3z"/>
	<path class="st27" d="M76,167.4c0.9-2.9,0.1-4.7-3-4.7C72.1,166.1,72.5,168.2,76,167.4z"/>
	<path class="st19" d="M48.1,136.6C48.1,136.6,48.1,136.6,48.1,136.6l5.6-0.5l1-0.1C53.1,134.8,49.6,135.2,48.1,136.6z"/>
	<polygon class="st19" points="77.9,163.3 78.6,163.1 78.7,163.1 78,161.5 77.9,162.1 77.9,163.1 77.9,163.1 	"/>
	<path class="st13" d="M14.5,219c-0.1-0.5-0.2-0.8-0.3-1.3c-0.1,0-0.1,0-0.2,0l0,0c0,0,0,0-0.1-0.1c-1.3-0.3-2.4-0.7-2.6-2.2
		c-0.4-0.3-0.7-0.7-0.9-1l-0.2-0.2H9.4l-0.6,0.4c0.2,0.5,0.5,1,0.8,1.4C10.8,217.4,12.7,218.3,14.5,219z"/>
	<path class="st12" d="M35.3,179.6l5.7-0.2c0.6-1.2,1.6-1.3,3.3-3.2l0.3-0.1c-1.1,0.1-2.4,0.5-3.2-0.6c-1.9,1.8-4.5,3.1-7.3,1.5
		c-1.1-3.3,2.6-4.1,3.4-6.9l5.1,3.6c0.1-0.2,0.2-0.3,0.3-0.5c1.9-2.7,3.4-5.8,2.4-9.2c-0.9,2.7-2,5.6-3,8.5l-0.7-0.2
		c0.1-0.9,0.2-1.8,0.4-2.7c0,0,0,0,0,0l-0.5-8.3c2.3-0.3,2.5-0.8,2-2.9l4.7-3c1-1.8,2.5-4.1,2.7-4.6l1.7,0.1c0,0.1-0.1,0.1-0.1,0.2
		c1.2,0,2.6-0.2,3.5-0.1c0.2,0,0.3,0.1,0.4,0.1c-1.5-0.7-3.4-0.4-4.8-1.1c-0.2-0.1-0.4-0.2-0.6-0.4l2.2-0.9
		c-1.3-2.2-1.4-2.5-3.7-3.5c-1.2-0.8-2-1.6-3.3-2.4c0.4,2.5,1.7,3.9,2.9,6l0.3,0.6c-2.4-0.3-4.5-1.7-6.4-3c0,0,0,0,0,0.1
		c-0.9,2.4,1.1,3-0.5,5.1c0,0.3,0,0.5,0,0.8c0,0.3,0,0.5,0,0.8c-0.1,0.5-0.2,1-0.5,1.4c-1.7,2.1-1.3,5.2-3.6,7.1
		c-1.4,1.5-0.1,4.8-0.2,6.8c0,0.2,0,0.3,0,0.5l-0.7,0.1l-1.3-3l-0.6-0.1c-1.5,2.5-1,7.1-4.6,7c0,0,0,0,0,0c0,0-0.1,0-0.1,0
		c0.3,2.4,2.1,5.8,4,7.2c0,0,0.1,0,0.4,0c0,0,0,0,0,0L35.3,179.6z"/>
	<path class="st12" d="M40.9,179.7L40.9,179.7l-0.1,0.2c0,0,0,0,0,0L40.9,179.7z"/>
	<path class="st3" d="M94.7,215.5c-0.1,0-0.2,0-0.3,0c-0.8,0.1-1.2,0.5-1.3,1.2c0,0.1,0,0.2,0,0.3c0,0.1,0,0.3,0,0.4c0,0,0,0,0,0
		c0,0.4,0.1,0.8,0.1,1.2l2.6-0.4l0.1,0c0,0,0-0.1,0-0.1c0-0.2-0.2-0.6-0.4-1C95,216.4,94.7,215.6,94.7,215.5z"/>
	<path class="st26" d="M89,127.6c-0.1-0.1-0.3-0.3-0.4-0.4C88.8,127.3,88.9,127.5,89,127.6C89,127.6,89,127.6,89,127.6
		C89,127.6,89,127.6,89,127.6z"/>
	<path class="st26" d="M86.7,126.6c0.7,0.1,1.6,0.3,1.9,0.6c1.9-1.1,2.6-1.9,2.9-2.6l-4.8,0.9C86.8,125.8,86.8,126.2,86.7,126.6z"/>
	<path class="st26" d="M77.2,78.9c-0.2,0.1-0.4,0.3-0.4,0.5c-0.1,1.1,0,2.4,0,3.6c0,0.1,0,0.2,0,0.2c0.9,1,1.9,2.3,3.3,2.8
		c0,0,0-0.1,0-0.1c1.2-2.8,2.2-3,2.9-2c0.2,0.2,0.3,0.6,0.5,1c0,0,0,0,0,0.1c0,0.1,0,0.1,0.1,0.2c0,0.1,0.1,0.2,0.1,0.3l5.2-0.9
		c0-2.1,0-4.2-0.6-6.4l0.5-0.1l-0.1-0.2c0,0,0,0.1,0,0.1c-3.8,0-4.1-6-4.1-7.5c0.1,0.1,0.1,0.2,0.2,0.3c-0.1-0.7-0.4-1.4-0.8-1.9
		c-0.1-0.2-0.3-0.2-0.5-0.2C81.8,69,82.7,69.1,82,68c-1.1-1.6-1.9-2.5-2.5-2.8c-0.2,2.8-1,5.3-2.1,7.7c0.1,1.3,0.2,2.5,0.3,3.1
		C77.7,77.1,78.8,78.2,77.2,78.9z"/>
	<path class="st23" d="M79.2,58.6c-0.1,0.4-0.5,1.1-0.7,1.5h0c-1.3,3.9-4.6,7.4-6.6,10.8l0.1,0.1c-0.8,1.8,0,3.5,0.3,5.4
		c0.5-1.1,0.7-2.3,1.4-2.8c1.6-0.8,1.3-2.6,1.8-3.9c0.5,2.2,0.2,4.5,0.1,6.8c0.7-1.2,1.3-2.5,1.8-3.7c1.1-2.4,1.8-4.9,2.1-7.7
		c0,0,0,0,0-0.1c0-0.1,0-0.2,0-0.2c0,0,0,0,0-0.1c0,0-0.1,0-0.1,0.1C77,62.5,80.9,59.8,79.2,58.6z"/>
	<path class="st24" d="M79,54.3c-1.2,4.6-6.1,6-9.5,8.6c3.1-1.5,9.4-4.5,9.4-4.4c0.3-0.1,0.4,0,0.3,0.2c1.7,1.1-2.2,3.9,0.2,6.2
		c0,0,0.1,0,0.1-0.1c0.6-0.4-0.4-2,1.2-2.1c0.1-0.9,0.2-1.8,0.3-2.6C80.3,58.2,79.8,55.9,79,54.3z"/>
	<path class="st7" d="M88.8,78C88.7,77.9,88.7,77.9,88.8,78c-0.7-1.4-3-5.6-3.9-7.2c-0.1-0.1-0.1-0.3-0.2-0.3C84.7,72,85,78,88.8,78
		z"/>
	<path class="st18" d="M69.8,196.6c0.5,0.8,1,2.1,1.4,2.9c0,0,0.1-0.1,0.1-0.1c0-0.2,0.1-0.4,0.3-0.5c1.7-1.6,3.4-3.3,5.1-4.8
		c1.1-0.7,2.7-0.5,3.8-1.4c0.1-0.1,0.3-0.3,0.4-0.4l-1-0.1c-0.3,0.1-1.1,0.3-2,0.6l-4.1,1.6c-0.6,0.2-1.1,0.4-1.4,0.5l-2-0.4
		c0,0,0,0,0,0c0,0,0,0.1,0,0.1C70.2,195.3,70,195.9,69.8,196.6z"/>
	<path class="st12" d="M71.8,181.2l0.1,0.1l4.3-1.4l-0.1-0.1l-2-2.5c-1.3,0.8-4.3-0.3-3.8,2.1l1.6,1.8L71.8,181.2z"/>
	<path class="st9" d="M67.7,192C67.7,192,67.7,192,67.7,192c0.1,0.7,0,1.2,0,1.8c0,0.2,0,0.3,0.1,0.4c0,0.1-0.1,0.1-0.1,0.2
		c0.5,0.5,1,1,1.4,1.6l0.7,0.7c0,0,0,0,0-0.1c0.2-0.7,0.4-1.3,0.6-1.9c0,0,0-0.1,0-0.1c0-0.1,0-0.2,0-0.4c0-0.1,0-0.1,0-0.2
		c0-0.1,0-0.2,0-0.2c-0.1-1.4-0.5-2.7-1.8-3.3c0,0-0.1,0.1-0.1,0.1c-0.2,0.2-0.4,0.5-0.6,0.8C67.8,191.5,67.7,191.7,67.7,192z"/>
	<path class="st27" d="M68.3,180.4L68.3,180.4l3.5,0.8l0.1,0l-1.6-1.8c-1.5-0.5-2.9-1.4-4.4-2c0,0,0,0,0,0L68.3,180.4z"/>
	<path class="st22" d="M73.5,184.5l-0.5,0.6l3.3,0.4l-0.6,0c1,0.1,2.1,0.1,2.7-0.1c0,0,0,0,0,0c-0.1-0.4-0.5-0.8-0.6-1.2L73.5,184.5
		z"/>
	<polygon class="st28" points="79.9,182.3 73.8,182.3 73.8,183.5 79.7,182.9 79.9,182.9 	"/>
	<path class="st21" d="M73,185.1l0.5-0.6c-0.2,0-0.3-0.1-0.5-0.2c-1-0.4-2.3-0.9-3.1,1.7l5.8-0.5l0.6,0L73,185.1z"/>
	<path class="st10" d="M31.8,145.1c2.4,1.6,4.7,0.6,6.8-1.4L31.8,145.1z"/>
	<path class="st3" d="M45.4,140.9c0.6-0.5,1.4-1,2-1.5l0,0l-0.2-0.6l-0.1-0.5l-2.5,1.7l0.1,0.2l0.4,0.7l-3,2
		c0.2-0.1,0.4-0.1,0.6-0.2C43.9,142.4,45.2,142.5,45.4,140.9z"/>
	<path class="st20" d="M81.3,45.8c0.3,0.5,0.5,1,0.7,1.4c2.1,1.3,8.6,0,10.9,3.8l7-4.9c0.2-1.3,1.1-2.3,1.4-3.6c0,0,0,0,0,0
		c0,0,0,0-0.1,0c0,0-0.1,0-0.1-0.1c-4.5-3.5-8.9-3.7-13.6-4.1c0,0-0.1,0-0.1,0c-3.9-0.2-9.2-1.3-10.3,2.1c0,0,0,0,0.1,0l2.9,5.2H80
		l0.1,0.1c0,0,0,0,0,0L81.3,45.8z"/>
	<path class="st8" d="M81.9,47.2c0.4,1,0.3,2.1-1,3l-0.1,0l-0.5,2.6c-0.3,0.5-0.9,1.4-1.4,1.5c0.9,1.7,1.4,3.9,2,5.8
		c0,0,0,0.1,0,0.1c0.1,0.3,0.4,0.5,0.7,0.4c1.7-0.4,7.5-0.9,10.5-2.7c-0.2-1,0.1-2.2,1.4-2.3c0.5-2.1,0.8-3,4.1-4l2.2-5.5l-7,4.9
		C90.5,47.2,84,48.5,81.9,47.2z"/>
	<path class="st7" d="M93.6,55.5c-1.3,0.1-1.6,1.3-1.4,2.3l1.9-2.3c0,0,0,0,0,0c1.9-0.5,2.8-2.3,3.6-4C94.4,52.5,94,53.4,93.6,55.5z
		"/>
	<path class="st26" d="M71.4,41c0.1,0,0.1,0,0.2,0c0.4,0,0.6,0.8,0.6,1.6l3.5,3.1l0.2,0.1l0,0L76,46l-0.3,0.5l-2.6-0.6c0,0,0,0,0,0
		c0.3,0.5,0.7,1,0.9,1.3c1.6-0.7,3.9,1.4,5.1,4.5c0.5,0.4,1,0.8,1.3,1.1l0.5-2.6l-1,0.1c0.6-0.8,0.5-1.7,0.4-2.6
		c-1.1-1.8-2.7-3.6-4.4-4.5c-1-1-1-3.5-0.7-5L74.4,38c-0.6,1-1.4,1.7-2.3,2.4c-0.2,0.2-0.4,0.3-0.7,0.5L71.4,41z"/>
	<path class="st7" d="M77.3,40.4C77.2,40.4,77.2,40.4,77.3,40.4c-2.8,1,0.7,3.9,1.6,5.2h1.3L77.3,40.4z"/>
	<path class="st1" d="M79.9,50.3l1-0.1l0.1,0c1.3-0.9,1.3-1.9,1-3c-0.2-0.5-0.4-1-0.7-1.4l-1.2-0.1c0,0,0,0,0,0c0,0.7,0.1,1.3,0.2,2
		C80.4,48.6,80.4,49.5,79.9,50.3z"/>
	<path class="st28" d="M28.2,195.7c-0.5-7.5,7.3-4.6,10.1-0.7l0.6-0.7l-6.8-6c2.2-1.9,5.7-3.4,5.3-5.4c-0.6-0.9-2.1-1.3-2.3-2.3
		c0-0.1,0-0.2,0-0.3l-2.9-0.5c-1.2,2.1-2.7,4.2-3.2,6.6c-0.1,0-0.1,0-0.2,0c0,0,0,0,0,0c0.1,0.2,0.4,0.5,0.6,0.7l0.2-0.1l0.9,0.9
		l-0.1,0.6l-2.5-0.3c-1.1,1-4.7,2-4.5,4.7c0.2,4.5-1.9,4.2-5.4,2.8c0,0-0.1,0-0.1,0c0,0,0,0,0,0c-0.1,0-0.1,0-0.2,0
		c1.2,1,3.6,1.7,5.9,1.9c-0.4-0.1-0.8-0.2-1.1-0.2C24.2,196.9,28.6,198.7,28.2,195.7z"/>
	<path class="st8" d="M17.8,195.6C17.8,195.6,17.8,195.6,17.8,195.6c0.1,0,0.1,0,0.2,0.1c3.5,1.5,5.6,1.8,5.4-2.8
		c-0.2-2.7,3.4-3.7,4.5-4.7l2.5,0.3l0.1-0.6l-0.9-0.9l-0.2,0.1l-1.1,0.7c0-0.1,0-0.1,0.1-0.2c-6.9-0.4-10.4,2.8-10.7,7.6
		c0,0,0,0,0,0c0,0.1,0,0.1,0,0.2C17.6,195.5,17.7,195.5,17.8,195.6z"/>
	<path class="st8" d="M27.4,183.2c-0.6,1.5-0.8,3,1.4,3.2c0.1,0,0.1,0,0.2,0c0.5-2.4,2-4.5,3.2-6.6c0.1-0.1,0.1-0.2,0.2-0.3h-2.2
		C30,181.6,28.2,181.8,27.4,183.2z"/>
	<path class="st24" d="M20.8,142.2l-0.5,0.2c0.6-1.2-0.8-2.2-1.2-3.3l0.9,0.4c-0.1-0.2-0.2-0.5-0.3-0.7c-0.5,0-1.9-0.3-2.4-0.5
		c0,0.1,0,0.2,0,0.3l-1.1-0.7l-0.5,0.1l0.1,0.7l0.8,0.8l2.1,2.2l0.6,1.2h1.5C20.7,142.6,20.8,142.4,20.8,142.2z"/>
	<path class="st1" d="M19.9,139.4l-0.9-0.4c0.4,1.1,1.8,2.1,1.2,3.3l0.5-0.2l2.6-0.9l-0.3-0.2l-0.5-0.5L19.9,139.4z"/>
	<path class="st18" d="M28.3,140.9c0.3,2.2,0.4,3,3,2.3l0.2-2.6l0,0l-3.3,0.1C28.3,140.7,28.3,140.8,28.3,140.9z"/>
	<path class="st18" d="M25.9,140l-0.3-0.1L25.9,140l-1,0.1l-0.1-0.8h0l0,0l-1.1-1.6c-1.5,0.8-0.4,2.1-0.4,3.1l0,0l2.8-0.7l0.1,0
		L25.9,140z"/>
	<polygon class="st17" points="24.8,139.3 24.8,139.3 25,140.2 25.9,140.1 25.6,139.9 24.8,139.4 	"/>
	<path class="st6" d="M92.8,203.3c-4.2,0.6-8.4,0.5-12.7,0.2v-0.1c0,0,0,0,0,0c0,0.3-0.2,1.2-0.2,1.3l-2,1.5
		c2.6,0.1,5.2,0.3,7.8,0.3c0.1,0,0.2,0,0.4,0c0.6,0,1.1,0,1.7,0c0.6,0,1.1,0,1.7,0c1.9,0,3.9,0,5.7-0.1c0.6-0.5,1.4-1.2,2-1.7
		c-0.1-0.6-0.1-1.3-0.2-2.1c0,0,0-0.1,0-0.1c-0.4,0.1-1,0.2-1.6,0.3c-0.8,0.1-1.7,0.3-2.3,0.4c0,0-0.1,0-0.1,0
		C93,203.3,92.9,203.3,92.8,203.3z"/>
	<path class="st3" d="M95.5,207.7c0.3,0.3,0.5,0.6,0.7,0.8C96,208.2,95.7,207.9,95.5,207.7z"/>
	<path class="st3" d="M95.3,206.5c0.1,0,0.3,0,0.4,0l-0.2,1.2c0.2,0.1,0.5,0.4,0.7,0.8v1l0.5,0.5l-0.1,0l0.2,0.1l4.9,2.5
		c2.9-3-1.6-6.5-4.3-7.9c0,0,0,0,0,0c0,0-0.1,0-0.1,0.1C96.6,205.3,95.9,205.9,95.3,206.5z"/>
	<path class="st14" d="M95.5,209.9L95.5,209.9c0,0,0-0.1,0-0.1c0-0.1-0.1-0.1-0.1-0.3c0-0.1-0.1-0.3-0.2-0.4c0.1,2-1.6,3.2-2.9,4.1
		c-1.5,1.2-2.5,2.1,0.7,4.2c0,0,0,0,0,0c0-0.1,0-0.3,0-0.4c0-0.1,0-0.2,0-0.3c0.1-0.7,0.4-1.2,1.2-1.3c0.1,0,0.2,0,0.4,0l1.3-0.2
		c0,0,0-0.1,0-0.1c0,0-0.1,0-0.1,0L95.5,209.9z"/>
	<path class="st14" d="M93.1,216.7c0,0.1,0,0.2,0,0.3C93,216.9,93.1,216.8,93.1,216.7z"/>
	<path class="st13" d="M100.1,217.6c0-0.1,0-0.2,0-0.2c0.4-0.7,0.8-0.9,1.2-1.5c0.1,0,0.1,0.1,0.1,0.1c0.4-0.8,0.9-1.6,1.3-2.3
		l-3.2,2.7l-1.1,0.9L100.1,217.6z"/>
	<path class="st16" d="M25.8,62.7c-0.2-0.4-0.4-1.2-0.4-1.6l0,0.2l-0.3,0.1c-4.5,0.1-9.2-0.1-12.6-3.3c-0.1-0.1-0.1-0.1-0.2-0.2
		l-0.7-0.1l-0.2,0c1.9,3.7,9.4,3.7,10.1,7.8c0,0,0,0.1,0,0.1L25,65l0,0L25.8,62.7z"/>
	<path class="st3" d="M100.2,217.4c0,0.1,0,0.2,0,0.2c-0.2,1.6-1.9,3.7,0.7,4.1c0.1,0,0.3,0,0.4,0c1.5-0.2,2.6-3.5,0.2-5.7
		c0,0-0.1-0.1-0.1-0.1C101,216.5,100.6,216.7,100.2,217.4z"/>
	<path class="st17" d="M90.2,129.5c-0.4-0.6-0.8-1.3-1.2-1.8c-0.1-0.2-0.2-0.3-0.3-0.4c-0.3-0.2-1.2-0.5-1.9-0.6
		c0,0.1-0.1,0.3-0.1,0.4l-0.4,6.8c0.4,4.7-2,5.7-5.2,4.3c0,0,0,0,0,0l-1.9-0.7l-0.4,0.1c0,0,0,0,0,0c-2.9,1.8-5,1.5-8.5-1.1
		l-2.4,1.2l-2.7,0.2l-2.9-2l0.2,0.7l0,0.1c1.9,2,4.4,3.6,6.9,2.3c0.8,0.5-0.9,2.5,1.4,2.2l0.3-1.9c1.9,0.1,5.3,1.1,5.8,0.8
		c1.9-1.2,3.2-1.3,4.8-0.8c2,0.6,2.9-0.1,4.1-0.2c0.2-0.1,0.5-0.1,0.7-0.2l-0.2,2.8l2.5-1.4c0-0.1,0-0.1,0-0.2
		c-0.2-1.6,0.2-3.4,0.7-4.7c-0.2-0.4-1.3-0.6-2.1-1c1.5-1.2,3.1-2,3.6-3.9c-0.2-0.3-0.4-0.6-0.6-0.9
		C90.2,129.5,90.2,129.5,90.2,129.5C90.2,129.5,90.2,129.5,90.2,129.5z"/>
	<path class="st10" d="M94,129.6c-0.4,0.3-1,0.4-1.6,0.4c-0.4,0.1-0.8,0.1-1.1,0.2l1.7,1.5l0.2,0.2c1.5-1.4,3.1-3,3.9-5l-2.2,1
		C94.9,128.8,94.5,129.3,94,129.6z"/>
	<path class="st1" d="M94.7,128c-1.7,0.1-3.3,0.4-4.5,1.5c0,0,0,0,0,0c0,0,0.1,0.1,0.1,0.1c0.2,0.2,0.3,0.4,0.5,0.7
		c0.5-0.2,1.1-0.2,1.6-0.3c0.6-0.1,1.2-0.2,1.6-0.4C94.4,129.3,94.7,128.8,94.7,128z"/>
	<path class="st17" d="M86.1,142.4l-0.4-0.6c-1.7,0.5-2.8,1-3.8,1.6l0.4,0.2c-2.5,4.1-6.6,2.5-10.2,1.4l3.5,2.2l7-1
		c0.1-0.2,0.1-0.4,0.2-0.6C83.5,144.2,85.4,143.6,86.1,142.4z"/>
	<path class="st18" d="M82.3,143.6l-0.4-0.2l-0.6-0.3c2.1-0.5,3.8-1.6,4.5-3.9c0,0-0.1,0-0.1,0c-1.1,0.1-2.1,0.8-4.1,0.2
		c-1.6-0.5-2.9-0.4-4.8,0.8c-0.5,0.3-3.9-0.7-5.8-0.8l-0.3,1.9c-2.3,0.3-0.6-1.7-1.4-2.2c-2.6,1.3-5.1-0.4-6.9-2.3c0,0,0,0-0.1-0.1
		c0.9,2.8,2.3,5.1,4.4,5.7c-0.1-0.2-0.2-0.4-0.2-0.6h1.4l0.3,0.7c0.3,0,0.7-0.1,1-0.2c1.7-0.7,1.1,0.6,1.1,1.4h1.2l0.1-0.1
		c-0.2,0.2-0.4,0.6-0.5,0.7l0.9,0.8C75.7,146.1,79.8,147.7,82.3,143.6z M71.8,143.2c3,0.4,6.5-0.6,9.5-0.2
		C80.1,146,74.6,144.6,71.8,143.2z"/>
	<path class="st10" d="M81.3,143c-3-0.4-6.5,0.6-9.5,0.2C74.6,144.6,80.1,146,81.3,143z"/>
	<path class="st1" d="M95.4,126.6c-0.1,0.4-0.3,0.9-0.6,1.3l2.2-1c0.5-1,1.2-2.3,1.8-3.6l-3,0.5C95.8,124.7,95.7,125.7,95.4,126.6z"
		/>
	<path class="st17" d="M37,198.9c1.9-0.4,4.1,0,4.9-1.9c0.1-0.2,0.1-0.3,0.2-0.5c-0.9-3.4,1.8-7.4,1.8-9.7c-0.1-0.8-0.5-1.3-1.3-1.6
		l-2.3-1.9c0,0,0,0,0,0.1l-4.9-2.9l0.3,0l-0.3-0.1l0,0l-0.1,0.1c0,0,0,0,0.1,0c1.3,0.9,1.9,1.7,2.1,2.4c0.4,2-3.2,3.5-5.3,5.4l6.8,6
		l-0.6,0.7c-2.8-3.9-10.6-6.8-10.1,0.7c0.4,3-4,1.2-5.7,1.7c0.3,0.1,0.7,0.1,1.1,0.2c1.6,0.3,3.9,0.8,6.4,1.1l7,0.3
		C37,199,37,198.9,37,198.9z"/>
	<path class="st21" d="M30.9,199.2c0.1,0,0.2-0.1,0.3-0.1l6.1,0.6c-0.1-0.2-0.2-0.4-0.2-0.6l-7-0.3l-0.7,0c-2.7,0.3-5,0.2-7.8,0.4
		l0.4,1.2c1.3,0.3,2.6,0.7,3.4,0.9C26,198.9,29,199.1,30.9,199.2z"/>
	<path class="st11" d="M20.3,201.7l-4.8,1.2c-0.1,0.6-0.1,1.3-0.2,1.9c2-0.5,4.1-0.9,5.8-1.3l0,0.5l0.9-0.1c-0.5-2.1-1.8-2.6-2.6-4
		l-1.8,0.1c-0.1,0.2-0.2,0.3-0.2,0.3l0.2,0L20.3,201.7z"/>
	<path class="st14" d="M17.6,200.1l1.8-0.1c-0.1-0.1-0.1-0.2-0.2-0.4c0,0,0.1,0,0.1,0l-1.8-0.6c0,0,0,0.1,0,0.1c0,0,0,0.1,0,0.1
		C17.5,199.4,17.5,199.9,17.6,200.1L17.6,200.1z"/>
	<path class="st1" d="M16.1,137.8l1.1,0.7c0-0.1,0-0.2,0-0.3c0-0.3,0-0.5-0.1-0.7L16.1,137.8z"/>
	<path class="st8" d="M71.6,198.9c-0.1,0.1-0.2,0.3-0.3,0.5c-0.1,0.5,0.1,1.1,0.1,1.4c1-0.2,1.9-0.7,2.8,0.6
		c0.7,0.8,2.8,0.6,3.9,1.5c0.1,0.2,0.3,0.3,0.5,0.3c0.1,0,0.2,0,0.2,0l1.4,0.1l0.8-0.1l1,0c3.9-1.3,0.6-4.3-1.2-6.2
		c-0.3-0.3-0.3-0.8-0.1-1.1c1.8-2.6,5,0.4,7.1,1.3c2.7,1.6,0.4,2.5,1,4.9c0.1,0.4,0.5,0.7,0.9,0.7l3.5,0.1l0.2,0c0,0,0,0,0.1,0
		c3.7-1.5-1.7-7-3.9-7.9l-7.4-2.6c-0.2-0.1-1.2-0.1-1.4,0.1c-0.1,0.1-0.2,0.1-0.3,0.2c-1.2,0.9-2.7,0.7-3.8,1.4
		C75,195.6,73.3,197.3,71.6,198.9z"/>
	<path class="st8" d="M80.2,203.4v-0.1C80.2,203.3,80.1,203.3,80.2,203.4C80.1,203.4,80.1,203.4,80.2,203.4z"/>
	<path class="st27" d="M40.6,180.3l0.3-0.4l0.1-0.1l0,0l2-0.4l0-0.1l0.3,0.1l2.4-0.5c0.8-1.7,1.3-3.5,1.9-5.2
		c-1.2,0.3-2.6,1.9-2.8,2.4l-0.2,0l-0.3,0.1c-1.7,1.9-2.8,2-3.3,3.2l-5.7,0.2l0.1,0.6l0,0.2l0.3,0.1l4.4-0.1L40.6,180.3z"/>
	<path class="st3" d="M66.5,141.7c0.1,0.2,0.1,0.4,0.2,0.6c0.6,1.5,1.4,2.7,3,3.3l-0.1-0.1l-1.4-3l-0.3-0.7H66.5z"/>
	<path class="st17" d="M69.2,142.2C69.2,142.2,69.2,142.2,69.2,142.2l1.1,1.4C70.4,142.8,70.9,141.5,69.2,142.2z"/>
	<path class="st21" d="M10,213.6c0.1,0.2,0.2,0.5,0.4,0.7c0.3,0.4,0.6,0.7,0.9,1c0.9,0.8,2,1.6,2.6,2.2c0,0,0,0,0.1,0.1l0,0l0.1-0.1
		c6.3,3.3,13.3,4.1,20.2,5.4c0-2.2-1.5-3-3.5-3.4c-3.1-0.4-6.4,0.1-8.8-1.9c0-0.1,0-0.2,0-0.3l-7-2.7l0.2-0.8l7.1,0.6
		c1.2-2.6-0.8-1.3,0-4.1c1.3,0.5,3-0.5,1.3-1.3c-3.7,0-8,1.4-9.9,4.8c-3.2-0.8-2.7-4.2-0.9-5.1c2.7-1.4,6.2-1.3,7.6-3.6l0.7-1.2
		l0-0.5c-1.6,0.4-3.8,0.8-5.8,1.3c0,0,0,0.1,0,0.1l-0.3,0c-3.8,1.1-6.8,3-3.6,8l-1.4,0.3c0,0,0,0.1,0,0.1V213.6z"/>
	<path class="st14" d="M15.3,204.8c0.1-0.6,0.1-1.3,0.2-1.9l4.8-1.2l-2.7-1.3l-0.2,0l-3.7,0.8l-0.3,0.1c-0.3,1.1-0.5,2.3-0.8,3.4
		c0,0,0,0.1,0,0.1l2.4,0.1L15.3,204.8C15.3,204.8,15.3,204.8,15.3,204.8z"/>
	<path class="st13" d="M10,213.3c0,0,0-0.1,0-0.1c-0.1-0.4-0.1-0.7-0.2-1.1c0-0.1,0-0.3-0.1-0.4H9.1c0.1,0.7,0.2,1.3,0.3,2H10V213.3
		z"/>
	<path class="st20" d="M25.6,52.6l1.3-0.9l-1.4-0.2l-0.2,0L25,52.9l-3.1,3.1c-9.6-11.6-5.6,4.4-14.9-7.2c0,0,0-0.1-0.1-0.1
		c0,0,0.1,0.1,0.1,0.1c0.6,0.7,1,1.4,1.4,2c1.5,2.6,1.5,4.1,4,7c0.1,0.1,0.1,0.1,0.2,0.2c3.4,3.2,8.1,3.4,12.6,3.3l0.3-0.1l0-0.2
		l0-0.1l0.2-6.6L25.6,52.6z"/>
	<path class="st10" d="M28.9,54.8c3.2-1.2,4.7-4.3,5-7.4l1.1,2c0.3-2.6,0.5-5.6,1.6-8l0.1-0.1L36.1,41l0,0l-0.4,0.9
		c-1.5-2-5.2,9.5-8.6,11.5l0.2,0.5l0,0.1l0.8,1.8C28.4,55.4,28.5,54.9,28.9,54.8z"/>
	<path class="st14" d="M84.9,218.2c0.1-0.6,0-1.3-0.2-1.8l-3.2-0.3l-0.2-0.1c-2.5,1.3-7.5-0.1-8.1-3l-1.9-0.1l-0.1,0.7l-0.5,0.1
		c-0.2-0.3-0.3-0.6-0.5-0.9l-4.7-0.2c-0.2,0.2-0.5,0.5-1,0.6c-1,0.3-1.4,2-3,1.6c-1.6,3.1,3.6,2,2,6.6c-1.5-0.3-2.4-0.7-3-1.4
		c-0.1-0.1-0.2-0.2-0.2-0.3c0,0-0.1-0.1-0.1-0.1c-0.4-0.6-0.7-1.3-1.1-2.2l-1.3,0.9l-0.4,0.4l-8.2,0.4c1.9,0.9,0.9,4.3-1.2,3.9
		c-0.2,0-0.5,0.4-0.8,0.6c4.7,1.5,10-0.3,14.2-1.1c7.6,0.6,15.9-0.4,23.4-2.6c0,0,0-0.1,0-0.1c-0.1,0-0.1,0-0.1,0L84.9,218.2z"/>
	<path class="st11" d="M54.9,213.3l1.5,1.1c0-0.2,0-0.3,0-0.4c1.9,0.3,4.1,0.3,5.3-1c0-0.1,0-0.1,0-0.1c0,0,0,0,0,0
		c-4.6-1.1-9.8-0.1-14.3-1.4l0.3,0.6l-3.8-1c0.1,0.5,0,1.3,0,1.5c-0.4,2.7-3.1,5-5.5,6.5c0,0,0-0.1,0-0.1c0,0,0,0,0,0
		c-0.1,0.3-0.3,0.6-0.4,1c-0.4,1-0.7,2-1.2,2.9c2.8,0.3,1-4.2,4-4.6c1-0.4,2-0.8,3.1-1.4l-0.1,0C46.6,214.4,51.2,212.7,54.9,213.3z"
		/>
	<path class="st13" d="M95.1,208.9C95,208.8,95,208.8,95.1,208.9l-0.8-0.1c-1.5,4.2-7.8,2.3-11.7,2.9c1.7,0.8,3.3,1.7,4.1,2.9
		c-0.8-0.1-1.5,0.5-1.4,1.8l-0.6,0c0.2,0.6,0.3,1.2,0.2,1.8l1.9-1.2l0.4-1.6l2.7,2.3l3.2,0.8l-0.1-1.1c-3.2-2.1-2.2-3-0.7-4.2
		C93.6,212.2,95.3,211,95.1,208.9z"/>
	<path class="st14" d="M38.4,218.9l0-0.2c0.2-1.4,0.2-2.8,0.4-4.2c-2.4,1.4-4.9,3-6.2,5.5c-0.1,0-0.1,0-0.2-0.1c0,0,0,0,0,0.1
		c1,0.8,2.7,1.4,1.9,3c0.1,0.1,0.1,0.2,0.1,0.3l2.3-0.5c0.5-1,0.8-2,1.2-2.9C38.1,219.5,38.2,219.2,38.4,218.9z"/>
	<path class="st11" d="M84.8,219.7c0.1,0,0.1,0,0.1,0c1.3-0.4,2.4-0.9,1.9-2.7l-1.9,1.2L84.8,219.7z"/>
	<path class="st11" d="M89.9,217.7l-2.7-2.3C87.4,216.8,88.5,217.8,89.9,217.7z"/>
	<path class="st6" d="M66.5,69.3l-4.2,3c-0.7,0.4-1.4,0.7-2.1,1.1c-3.3,1.5-7.1,1.8-10.7,1.2c-1-0.2-2.1-0.5-3-0.8l0,0
		c0,0-0.1,0-0.1,0c0,0-0.1,0-0.1,0c-0.2-0.1-0.4-0.2-0.6-0.2c-3.2-1.2-5.2-2.5-6.3-4.7c-1.4,0.5-2.7,0.6-2.5-1.7l-2.3,0.2
		c3,4.3,7.3,7.6,12.3,9c1.6,0.4,3.3,0.6,5,0.6l-0.1,0.1c0.1,0,0.2,0,0.3,0l-1.7,1.8l0.1,0.5h-3c0.3,0.2,0.6,0.3,0.9,0.4
		c2.3-0.4,5.8-0.7,8.2,0.1c2.1-1.1,4.3-2.3,6.6-2.1l0,0l7.6-7.1c0,0,0,0,0,0c0.9-1.6,1.7-3.1,2.7-4.5l-0.4-0.4l-0.8-0.8
		C71.2,66.5,69.4,69.4,66.5,69.3z"/>
	<path class="st5" d="M46.7,78.7l0.3,0.5h3.4l-0.1-0.5l1.7-1.8c-0.1,0-0.2,0-0.3,0c-1.7,0-3.3-0.3-4.9-0.7c-5-1.4-9.3-4.7-12.3-9
		L34,65.6l-0.9,0.7c-0.1,0.4-0.5,1-0.6,1.5l0,0c0,0.3,0.1,0.6,0.3,0.9c0.2,0.2,0.5,0.4,0.7,0.7C37.4,73.1,40.7,78.7,46.7,78.7z"/>
	<path class="st23" d="M56.7,52.4c-0.7,2.4,0.1,6.4-3,6.9c-4,0.7-1.6-7.8-2.1-11.6c-0.3,0.3-1.1,0.7-1.1,1.1
		c-0.3,6.4,0.1,12.4-5.4,15.6c0,0,0.1,0,0.1,0c4.1,0.8,15,0.6,20.4,0.3l0,0l2.4-1.1c0.2-0.1,0.8-0.4,1.5-0.7c3.5-2.6,8.3-4,9.5-8.6
		l-1.5,0.5l-0.7,0.8c0,0-0.1,0-0.1,0c-3.8,2.1-8.2,1.5-12.4,0.9c0,0,0,0.1,0,0.1l-1.1-0.2c-4.7-0.8-4.7-7.6-6.9-10.9
		c-1.3,0.7-2.1,1.1-2.8,1.3c0.6,0.1,1.2,0.3,1.6,0.7C56.9,48,57.3,49.8,56.7,52.4z"/>
	<path class="st1" d="M46.6,48.8L46.6,48.8c-3.8,0.5-7.5,1.6-11.4,1.2l-0.1-0.5c0,0-0.1,0-0.1,0c0-0.1,0-0.1,0-0.2l-1.1-2
		c-0.3,3.1-1.8,6.2-5,7.4c-0.4,0.1-0.5,0.6-0.7,1c0,0,0,0.1-0.1,0.1c4.3,2.5,10.3,5.3,14.1,1.9c0.4-3.2,0.6-7.8,4.3-8.2
		c0.1,0,0.4,0.1,0.4,0.2l0.2-0.6l0,0L47,49.3L46.6,48.8z"/>
	<path class="st6" d="M44.3,67.6l2.4,0.4l15.7-0.7c0.6-0.4,1.3-0.7,2-0.9l1.2-1.7c-5.4,0.3-16.3,0.5-20.4-0.3c0,0-0.1,0-0.1,0
		c-1.8,0.6-5,0.3-6.9,0.2l2.4,1.2L44.3,67.6z"/>
	<path class="st29" d="M53.7,59.3c3.1-0.5,2.3-4.5,3-6.9c0.7-2.6,0.2-4.4-1.6-4.9c-0.7-0.2-1.5-0.2-2.5-0.1l-1,0.3
		C52.1,51.5,49.7,60,53.7,59.3z"/>
	<path class="st18" d="M31.6,63.8l1.5,2.5v0l0.9-0.7l0.1-0.1c2.6-0.4,3.6,1.4,5,3.1c0,0,0,0,0-0.1c0-0.1,0.5,0.2,1.2,0.6
		c0.1-1-1.4-2.2,0.2-3.3l-2.4-1.2l-11-5.4l0.7,1C28.7,61.7,29.7,63.2,31.6,63.8z"/>
	<path class="st10" d="M42.2,57.8c4.9-3.7,4.9-6.8,4.8-7.8c0-0.1,0-0.1-0.1-0.2c-0.1-0.2-0.3-0.2-0.4-0.2
		C42.8,50,42.6,54.6,42.2,57.8z"/>
	<path class="st16" d="M33.1,66.3L33.1,66.3l-1.5-2.5c-1.9-0.6-2.9-2.2-3.7-3.7l-0.7-1l-0.7,0.5l6,8.1l0,0
		C32.6,67.3,33,66.7,33.1,66.3z"/>
	<path class="st7" d="M27.7,88.6h-1.1c-0.8,1.1-1.6,4.3-1.8,7.3l5.4-1C29.5,92.8,28.2,90.7,27.7,88.6z"/>
	<path class="st1" d="M28.1,135.8c0,0.1,0,0.2,0.1,0.4c0.2,1,0.2,2.2,0.3,3.3c0,0.1,0,0.1,0,0.2l2.1-0.7c0-0.1,0-0.2,0-0.3
		C30.8,137.2,30.5,136.6,28.1,135.8z"/>
	<path class="st1" d="M80.4,52.8c-0.4-0.3-0.8-0.6-1.3-1.1c0.1,0.1,0.1,0.3,0.2,0.5l-5.4-4.9c0.1,0,0.1-0.1,0.2-0.1
		c-0.3-0.4-0.6-0.8-0.9-1.3c-0.3-0.1-1.1-1-1-2.4l0.1-0.9l0,0c-0.1-0.8-0.3-1.6-0.6-1.6c-0.1,0-0.1,0-0.2,0
		c-3.6,0.2,1.7,5.8-0.7,7.5c0,0,0,0-0.1,0.1c-2.8,1-5.8,0.4-8.7-0.3c-1.3-0.3-2.6-0.6-3.9-0.7c0,0,0.1,0.1,0.1,0.1l0.4,0.8l0.7,1.1
		L60,49c2.9,1.4,6.6,0.9,9.6,1c3.4,0.2,5.2,3.3,7.9,4.8l1.5-0.5C79.5,54.2,80.1,53.3,80.4,52.8z"/>
	<path class="st24" d="M63.2,56.3c-1.6-1.5-3.5-2.9-3.5-5.3l-0.9-1l0.4-0.3l-0.6-1.2l-0.4-0.8c0,0-0.1-0.1-0.1-0.1
		c-0.6-0.8,0.5-2.5-1.3-2.7c0,0,0,0,0,0l-0.5,0.5v0C58.5,48.7,58.5,55.5,63.2,56.3z"/>
	<path class="st5" d="M35,49.4c0,0.1,0,0.1,0,0.2c0,0,0.1,0,0.1,0L35,49.4c3.1-0.7,7.1,0.3,9.5-1.6c0,0,0,0,0,0
		c-1.9-1.1-2.6-3.1-2.4-5.4l-1,0.2l-1.4-2.4l-3,1.2c0,0,0-0.1,0.1-0.1l0,0l-0.1,0.1C35.5,43.8,35.3,46.8,35,49.4z"/>
	<path class="st4" d="M27.2,203.4l1.3-0.2c0-0.1-0.1-0.1-0.1-0.2l1.6-0.1l0.4,0.1l3.9,2l1.2,0.5c-0.6-4.1,6.5-5,9.4-6.2l-0.2,0.4
		l0.4-0.1c0.6-0.1,1.3-0.3,1.8-0.4l-0.4-0.2l3.1-0.4l0.4,0.1c0,0,0.1,0,0.1,0c0.6,0,3.6-0.2,7-0.3l0.7-0.5l5.1,0.4l0,0.2
		c0.2,0,0.5,0,0.7,0.1l0,0c0,0,0.1,0,0.1,0c0.2,0,0.5,0,0.7,0.1c2,0.2,5.3,0.2,3.1,2.5c-0.1,0-0.3,0-0.5-0.1
		c-0.1,0.1-0.1,0.1-0.1,0.2l2.3,0.5c-0.7-2.6-2.6-5.1-1.7-7.6c0,0,0.1,0.1,0.1,0.1c0-0.1,0.1-0.1,0.1-0.2c-0.1-0.1-0.1-0.2-0.1-0.4
		c0,0,0,0.1,0,0.1c-0.2,0-0.5-0.1-0.8-0.1l-0.4,0l0.2,1.2c-0.2,0-0.3-0.1-0.5-0.1l0.1,0.7c-2.5-0.4-4.9-0.8-7.3,0.7
		c-0.6,0.4-2.3-0.5-2.9-1.1c-1-2-4,0.6-4-2.2c0.2,0,0.3,0,0.5,0c0-0.2-0.1-0.4-0.1-0.6c0,0,0,0,0,0l-3.4-0.3
		c-1.6-0.1-3.2-0.1-4.3,0.2c-0.4,2.6-1.3,5-3.1,7.1l0.5,0c-3,3.1-7.4,3.1-11.1,2.1c0,0.2-0.1,0.3-0.3,0.5l-5.5-0.5
		c0-0.1,0.1-0.2,0.1-0.3c-0.8-0.2-2.1-0.5-3.4-0.9c-1-0.3-2-0.5-2.6-0.7c0,0-0.1,0-0.1,0c0.1,0.1,0.1,0.2,0.2,0.4
		c0.8,1.3,2.1,1.8,2.6,4L27.2,203.4z M52.3,192.4l-3.4-0.3C50.2,192.2,51.5,192.3,52.3,192.4z"/>
	<path class="st2" d="M48.9,192.1l3.4,0.3C51.5,192.3,50.2,192.2,48.9,192.1z"/>
	<path class="st11" d="M40.9,179.7l-0.1,0.1l-0.3,0.5l0,0c0.2,0.5,1,0.9,1.3,1.3c0,0,0,0,0,0l1.8,0.3l-0.7-2.6L40.9,179.7z"/>
	<path class="st11" d="M45,188.6c0.1-0.4,0.2-0.8,0.3-1.2c0.1-0.3,0.2-0.6,0.2-0.9c0.2-0.9,0.5-1.8,0.7-2.8
		c-0.1,0.2-0.2,0.5-0.3,0.7c0.2-1.5,0.5-3,1-4.5l-1.4-1.2c0,0,0,0,0,0l-2.4,0.5l2.7,0.5c-0.6,0.8-1.1,1.5-1.8,3
		c-0.3,0.6-0.5,1.3-0.6,2l-0.8,0.4c0.8,0.3,1.1,0.9,1.1,1.6c0,2.3-2.8,6.4-1.8,9.7c1-2.8,2.1-5.7,3-8.5C45,188.2,45,188.4,45,188.6z
		 M45.9,185.2l-0.5,2L45.9,185.2z"/>
	<path class="st9" d="M48.9,163c0.6,2,1,3.8,1.6,5.7l0.5-0.2l0.5,0.2c0.9-3.3,0.9-6.5-3-6.9v0l0.4,0.4
		C48.9,162.4,48.9,162.7,48.9,163z"/>
	<path class="st9" d="M49.1,172.8c0,0.1,0,0.2-0.1,0.3l0.1,0c0.1,0.5,0.2,1.4,0.3,1.9c0,0,0,0,0,0.1l0,0c0.4-1.6,1.4-3.9,2-6.2
		L49.1,172.8C49.1,172.8,49.1,172.8,49.1,172.8z"/>
	<path class="st27" d="M46.9,160.2c0.1-0.6,0.5-1.7,0.8-2.8c-0.1,0.1-0.2,0.3-0.3,0.4c-0.1-0.3,0.4-1.3,1-2.4l-4.7,3
		c0.5,2.1,0.3,2.6-2,2.9l0.5,8.3c0,0,0,0,0,0c0.5-2.8,1.4-5.6,3.6-7.8L46.9,160.2z"/>
	<path class="st3" d="M45.1,188c-0.9,2.8-2.1,5.7-3,8.5c-0.1,0.2-0.1,0.3-0.2,0.5c-0.8,1.9-3,1.5-4.9,1.9c0,0,0,0.1,0,0.2
		c0.1,0.2,0.2,0.4,0.2,0.6l0.5,0l3.8-0.4c1.8-2.1,2.7-4.5,3.1-7.1c0.2-1.2,0.3-2.4,0.3-3.6C45,188.4,45,188.2,45.1,188z"/>
	<path class="st11" d="M48.9,166.3C48.9,166.3,48.9,166.3,48.9,166.3c-0.1-1.2-0.2-2.3-0.1-3.4c0,0,0,0.1,0,0.1c0-0.3,0-0.6,0-0.8
		l-2-2l-1.1,1.6C47.3,163,48.3,164.6,48.9,166.3z"/>
	<path class="st3" d="M47.2,180.1L47,180c-0.5,1.5-0.8,3-1,4.5c0.1-0.2,0.2-0.5,0.3-0.7c1-2.8,2.1-5.6,3.1-8.5l-0.1-0.2l0,0
		C48.6,176.7,47.8,178.4,47.2,180.1z"/>
	<path class="st22" d="M47.4,157.8c0.1-0.1,0.2-0.2,0.3-0.4c1.8-1.9,3.4-4.2,4.9-6.4c0-0.1,0.1-0.1,0.1-0.2l-1.7-0.1
		c-0.2,0.5-1.7,2.8-2.7,4.6C47.7,156.5,47.3,157.4,47.4,157.8z"/>
	<path class="st9" d="M60.3,130l-7.6,1.3c2.7-0.2,5.5-0.1,8.2-0.5l0,0C60.7,130.6,60.5,130.3,60.3,130z"/>
	<path class="st10" d="M61.8,131.3c0.2,1.5,0.1,3,0.3,4.5l2.9,2C66.1,133.9,65.8,131.6,61.8,131.3z"/>
	<path class="st1" d="M43.1,138.1l1.6-0.4c-0.5-1.5-0.9-2.9-1.4-4.3v0c-1.7,0.4-1.9,1.8-2.3,3.3c0.1,0.1,0.1,0.2,0.2,0.4
		c0.8,1.4,1.7,1.9,3.7,1.4c0.2,0,0.3-0.1,0.5-0.1L43.1,138.1z"/>
	<path class="st15" d="M47.6,173.6c0,0,0-0.1,0-0.1L49,173c0-0.1,0.1-0.2,0.1-0.3c0.4-2.1,0.1-4.3-0.1-6.5c0,0,0,0,0,0
		c-0.6-1.7-1.7-3.3-3.2-4.5c-2.2,2.2-3.1,4.9-3.6,7.8c-0.2,0.9-0.3,1.8-0.4,2.7l0.7,0.2c1-2.9,2.1-5.8,3-8.5
		c0.9,3.4-0.5,6.5-2.4,9.2c-0.1,0.2-0.2,0.3-0.3,0.5l0.3,0.2c-0.4,0.5-1,1.1-1.5,1.6c0.8,1.1,2,0.8,3.2,0.6l0.2,0
		C44.9,175.5,46.4,174,47.6,173.6z"/>
	<path class="st27" d="M43,173.9l-0.3-0.2l0,0l-5.1-3.6c-0.8,2.8-4.5,3.6-3.4,6.9c2.8,1.6,5.3,0.3,7.3-1.5
		C42,175,42.5,174.4,43,173.9z"/>
	<path class="st23" d="M58.8,85.1c1.4,0.2,3.2,1,4.6,0.6c1.6-0.6,2.7-0.8,4,0.4c0.6,0.6,0.8,1.4,0.8,2.2l8.6-1.5
		c-0.5-5.4-8-9.9-13.3-8.6c-0.4-0.1-1.6,1-2,1.2C60.5,81,58,82,58.8,85.1z"/>
	<path class="st7" d="M80.1,86.1l3.6-0.6c0-0.1-0.1-0.2-0.1-0.3c0-0.1,0-0.1-0.1-0.2c0,0,0,0,0-0.1c-0.1-0.4-0.3-0.7-0.5-1
		c-0.7-1-1.8-0.8-2.9,2C80.1,86,80.1,86,80.1,86.1C80.1,86.1,80.1,86.1,80.1,86.1C80.1,86.1,80.1,86.1,80.1,86.1z"/>
	<path class="st16" d="M80.2,86.1C80.1,86.1,80.1,86.1,80.2,86.1c-1.5-0.6-2.5-1.8-3.4-2.8c0.1,1,0.6,2.2,1,3.3L80.2,86.1
		C80.1,86.1,80.1,86.1,80.2,86.1z"/>
	<path class="st9" d="M77,61.3C77,61.3,77,61.3,77,61.3c0.2,1.1-2.2,3.5-3.2,5l-0.3-0.3c-0.9,1.4-1.8,2.9-2.7,4.5c0,0,0,0,0,0
		l1.1,0.5c2.1-3.5,5.3-7,6.6-10.8h-0.8C77.5,60.4,77.2,60.9,77,61.3z"/>
	<path class="st9" d="M56.5,79.6C56.5,79.6,56.6,79.6,56.5,79.6l4.9-0.4c0,0,0,0,0,0c0.4-0.3,1.7-1.3,2-1.2h0l0,0
		c0,0-0.1-0.1-0.1-0.1l-0.3-0.4C60.8,77.3,58.6,78.5,56.5,79.6z"/>
	<path class="st1" d="M85.2,133.8C85.2,133.8,85.2,133.8,85.2,133.8L85.2,133.8L85.2,133.8z"/>
	<path class="st17" d="M65.6,64.7L65.6,64.7l-1.2,1.7c1.1-0.4,2.2-0.8,3.1-1.1c-0.4,0.8-1,1.8-1.7,2.7l0.8,0.1
		c1.5-1.7,3.2-3.2,6.1-4.1c-0.1,0.2-0.3,0.4-0.4,0.7l0.8,0.8c0.7-1.7,0.8-4.6,3.9-4.2c0.2-0.3,0.5-0.8,0.6-1.1h0.8
		c0.2-0.4,0.6-1.1,0.7-1.5c0-0.2,0-0.3-0.3-0.2c0-0.1-6.3,2.9-9.4,4.4c-0.7,0.3-1.3,0.6-1.5,0.7L65.6,64.7z"/>
	<path class="st21" d="M67.7,192c-1.3-0.2-2.1-0.2-2,1.4c0.3,0.2,0.8,0.3,1.2,0.4c0.3,0.1,0.6,0.1,0.8,0.1c0,0,0-0.1,0-0.1
		C67.7,193.1,67.8,192.6,67.7,192C67.7,192,67.7,192,67.7,192z"/>
	<path class="st7" d="M72.1,43.5c-0.1,1.4,0.6,2.2,1,2.4c0,0,0,0,0,0l2.6,0.6L76,46l-0.1-0.1l-0.2-0.2l-3.5-3.1l0,0L72.1,43.5z"/>
	<path class="st7" d="M79.2,52.2c0-0.2-0.1-0.3-0.2-0.5c-1.1-3.1-3.5-5.2-5.1-4.5c-0.1,0-0.1,0.1-0.2,0.1L79.2,52.2z"/>
	<path class="st4" d="M60.3,210.5c-4.5,0.5-9,0.4-13.5-0.2l0.6,1.2c4.4,1.3,9.7,0.3,14.3,1.4c0,0,0.1,0,0.1,0l0,0
		c0.2-0.2,0.4-0.5,0.5-0.8c0.5,0,3-1,3.5-1.2c0.1,0.6,0.1,1.3-0.2,1.7l4.7,0.2l0,0c-0.2-0.4-0.3-0.8-0.4-1.2
		c0.6-0.4,1.1-0.7,1.7-0.8l-0.3,2.1l1.9,0.1c0-0.1-0.1-0.3-0.1-0.4l0.8-0.3l0.8-0.1l0.3,0.2l-0.6-0.4l1.2-0.3c0,0,0,0,0.1,0l0.1-0.2
		l0.2-0.7l0.2-1.5c1.6,0.7,4.1,1.4,6.3,2.4c3.9-0.7,10.2,1.2,11.8-2.9h0.8c0,0,0,0.1,0.1,0.1c0,0,0,0.1,0.1,0.1
		c0,0.1,0.1,0.1,0.1,0.2c0.1,0.1,0.1,0.3,0.2,0.4h0.8v-1c-0.2-0.2-0.4-0.5-0.7-0.8l0.2-1.2c-0.1,0-0.3,0-0.4,0
		c-1.9,0.1-3.8,0.1-5.7,0.1c-0.6,0-1.1,0-1.7,0c-0.6,0-1.1,0-1.7,0c-0.1,0-0.2,0-0.4,0c-2.6-0.1-5.2-0.2-7.8-0.3
		c-2.7-0.1-5.3-0.2-7.8-0.2C71.5,208.8,66.3,210.1,60.3,210.5z M61.9,212.4l0.3-0.3L61.9,212.4z M62.6,211.9H63H62.6z"/>
	<path class="st9" d="M80.2,203.5c4.3,0.3,8.5,0.4,12.7-0.2c0,0,0.1,0,0.1,0l-11-0.1l-1,0l-0.8,0.1V203.5z"/>
	<path class="st14" d="M95.5,207.7c0.2,0.2,0.5,0.5,0.7,0.8C96,208.1,95.7,207.8,95.5,207.7z"/>
	<path class="st21" d="M96.7,210l-0.5-0.5h-0.8c0.1,0.1,0.1,0.2,0.1,0.3c0,0.1,0,0.1,0.1,0.1l0.8,0.1c0,0,0,0,0,0L96.7,210l-0.1,0
		L96.7,210z"/>
	<path class="st1" d="M75.2,134c-0.5,0.1-1-0.5-1.6-0.9c-0.4,0-0.8-0.2-1.2-0.4c0,0,0,0-0.1,0c0,0,0,0,0,0c-1.8-0.4-1.5-2.6-1.5-4.5
		l-1.9,0.3c0.1,2.1,0.2,4.1,0.6,6.2c0.2,0.6,0.3,1.2,0.4,1.8c3.4,2.6,5.5,2.9,8.5,1.1C77.8,135.3,78.5,133.1,75.2,134z"/>
	<path class="st10" d="M85.2,133.8c-0.4,0.2-1.3,0.6-2,0.8l0,0c0,0-0.1,0-0.1,0.1l-0.9,0.4c0,1.3,0.5,2.7-1.3,3.1
		c3.3,1.4,5.6,0.4,5.2-4.3L85.2,133.8C85.2,133.8,85.2,133.8,85.2,133.8z"/>
	<path class="st16" d="M80.3,134.3c-1.4-0.5-3-1.1-3.8-1.4l-1.3,0.4c0-0.1-0.7,0.1-1.5,0c0.5,0.3,1.1,1,1.6,0.9
		c3.3-0.9,2.6,1.3,3.3,3.5c0,0,0,0,0,0l0.4-0.1C79.5,135.7,79.1,134.1,80.3,134.3z"/>
	<path class="st1" d="M82.3,135.1c-0.4-0.2-1.1-0.5-2-0.8c-1.2-0.1-0.8,1.4-1.3,3.2l1.9,0.7c0,0,0,0,0,0
		C82.8,137.8,82.3,136.4,82.3,135.1z"/>
	<path class="st3" d="M38.8,214.4c0-0.1,0-0.1,0-0.2c0.6-0.8,3.5-3.1,4.7-3.9c0.1-0.1,0.1,0,0.2,0.1c0.4-1.5,1.6-1,2.4-0.9v-1.4
		l-0.7-0.2l2.5-2.3H48l0.1-0.1l-0.5-0.5c-1.1-0.1-2-0.1-2.4,0c0-0.1,0-0.2,0-0.3c-0.2,0-0.4,0-0.5,0c-0.3,1.4-1.8,3.2-6.4,1.2
		c-1,0-2,0-2.6,0c0-0.1,0-0.2-0.1-0.3l-1.2-0.6l-3.9-2l-0.4-0.1l-1.6,0.1c0,0.1,0,0.1,0.1,0.2c0,0,0,0,0,0.1l0.5,0
		c0.6,2.1,4.6,1,2.6,4.5l3.2,0.2v0.8c-3.9,1.5-2.8,2.2-3.4,4.7c1.8-1.2,3.5-2.4,5.3-3.5c0.2,3.7-2.6,5.9-5.2,8.1
		c-5.4,0.4-6.9-0.8-2.3-3.3l-3.7,0.1l-2,1.3l-0.4-0.6l0.8-1.2l-1.2,0.3c0,0.9-0.4,2-0.4,2.9l-0.4-0.1c0,0.1,0,0.2,0,0.3
		c2.4,2,5.7,1.4,8.8,1.9c0.6,0.1,1.2,0.2,1.8,0.4c0.1,0,0.1,0,0.2,0.1C34,217.4,36.5,215.8,38.8,214.4z"/>
	<path class="st22" d="M62.6,200.8l-4.1,0.6c0,0.1,0,0.1,0.1,0.2c0,0,0,0,0,0c0.2,0.7,0.4,1.6,0.6,2.3c2.5,0.4,6.1-1.2,7.8,0.8h2.7
		l-0.1-2.7C68.3,201.8,64.3,200.6,62.6,200.8z"/>
	<path class="st13" d="M35.7,206c0.6,0.1,1.6,0,2.6,0c-0.4-0.2-0.9-0.4-1.3-0.6l0.8-0.1c1.6-2.7,4.2-2.7,7.2-2.7l-1.3-1.2l0.8-1.5
		l0.3,0l0.2-0.4c-2.9,1.2-10,2.1-9.4,6.2c0,0,0,0.1,0,0.1C35.6,205.7,35.6,205.8,35.7,206z"/>
	<path class="st11" d="M65.3,194c-4.2-0.4-8.6-0.5-12.7-1c-0.2,0-0.3,0-0.5,0c0,2.8,3,0.2,4,2.2c0.6,0.6,2.3,1.5,2.9,1.1
		c2.4-1.5,4.8-1.1,7.3-0.7l-0.1-0.7l-0.1-0.5C65.8,194.3,65.6,194.1,65.3,194z"/>
	<path class="st13" d="M37.2,199.6l-6.1-0.6c-0.1,0-0.2,0.1-0.3,0.1c0.1,0,0.2,0,0.3,0c-1.1,0.8,0.1,1.4-0.2,2.2
		c3.7,1,8.1,0.9,11.1-2.1l-0.5,0l-3.8,0.4L37.2,199.6z"/>
	<path class="st22" d="M50.4,199.8l0.4,1.1l2.3-0.4c1.1-0.2,2.2-0.4,2.8-0.4l0.2-0.2c-0.1-0.2-0.2-0.4-0.2-0.4l1.1-0.9l-6.5,0.3
		l1.3,0.4l-0.3,0l0.6,0.2L50.4,199.8z"/>
	<path class="st3" d="M55.9,199.5c0,0.1,0.1,0.2,0.2,0.4c0.2,0.3,0.5,0.6,0.8,0.6c1.2-2.9,4.1,1.1,6.2-0.6l-0.1-1.3l0-0.2l-5.1-0.4
		l-0.7,0.5l-0.2,0.1L55.9,199.5z"/>
	<path class="st14" d="M43.7,201.3l1.3,1.2c0.3,0,0.6,0,0.8,0c0.2-0.2,0.5-0.4,0.8-0.6c-0.3,0.1-0.6,0.2-0.9,0.2L48,200l-1.3-0.6
		l-1.6,0.3l-0.4,0.1l-0.3,0L43.7,201.3z"/>
	<path class="st3" d="M31.2,199.2c-0.1,0-0.2,0-0.3,0c-1.9,0-4.9-0.3-5.7,1.9c0,0.1-0.1,0.2-0.1,0.3l5.5,0.5
		c0.2-0.2,0.3-0.3,0.3-0.5C31.2,200.6,30.1,199.9,31.2,199.2z"/>
	<path class="st13" d="M67.1,201.2c0.2,0,0.3,0,0.5,0.1c2.2-2.3-1-2.4-3.1-2.5c-0.3,0-0.5,0-0.7-0.1c0,0-0.1,0-0.1,0l0.3,1.5
		C64.5,200.8,66.1,201.1,67.1,201.2z"/>
	<path class="st13" d="M63.7,198.7L63.7,198.7c0,0,0.1,0,0.1,0C63.7,198.7,63.7,198.7,63.7,198.7z"/>
	<path class="st3" d="M48,200l-2.3,2.1c0.2-0.1,0.5-0.1,0.9-0.2c0.7-0.2,1.4-0.3,1.8-0.4l2-0.8c-0.1-0.3-0.2-0.7-0.4-1.1l1.5-0.2
		l0.3,0l-1.3-0.4l-0.5-0.2l-0.4-0.1l-3.1,0.4l1.6,0.8L48,200z"/>
	<path class="st22" d="M41.7,181.8c1.2,0.5,1.9,1.7,1.8,2.9c0.1-0.6,0.4-1.1,0.6-1.8c0-0.1,0-0.1,0-0.2l-0.3-0.7l-0.1,0l-1.8-0.3
		c0,0,0,0,0,0c-0.3-0.4-1.1-0.8-1.3-1.3l0,0l-0.5,0l-4.4,0.1l-0.3,0l4.9,2.9c0,0,0,0,0-0.1C40.6,182.7,41,182.1,41.7,181.8z"/>
	<path class="st28" d="M87.5,197.6c-2-1.2-5-3.6-6.6-1.1c-0.4,0.5,4,2.8,3.2,5.6c-0.1,0.3,0.2,0.7,0.6,0.7l3.2-0.1
		c0.4,0,0.7-0.4,0.6-0.7C87.9,199.7,90.2,199.2,87.5,197.6z"/>
	<path class="st28" d="M78.1,203.2c-0.9-1.1-3.4-0.7-4.2-1.6c-0.9-1.3-1.8-0.9-2.8-0.6C72.8,203.4,75.5,202.9,78.1,203.2z"/>
	<path class="st22" d="M22.7,214.6l1.2-0.3l-0.8,1.2l0.4,0.6l2-1.3l3.7-0.1c-4.6,2.5-3.1,3.6,2.3,3.3c2.6-2.2,5.4-4.4,5.2-8.1
		c-1.8,1-3.5,2.3-5.3,3.5c0.6-2.5-0.5-3.2,3.4-4.7V208l-3.2-0.2c2-3.5-2-2.4-2.6-4.5l-0.5,0l-1.3,0.1l-5.3,0.5l-0.9,0.1l-0.7,1.2
		c-1.4,2.3-4.9,2.2-7.6,3.6c-1.8,1-2.3,4.3,0.9,5.1c1.9-3.4,6.2-4.8,9.9-4.8c1.7,0.8,0,1.8-1.3,1.3c-0.9,2.8,1.1,1.4,0,4.1l-7.1-0.6
		l-0.2,0.8l7,2.7l0.4,0.1C22.3,216.7,22.7,215.5,22.7,214.6z"/>
	<path class="st6" d="M48,44c-0.7,0.9-1.3,1.9-2,2.7h-1.1c-1.5-1.4-1.9-3.4-1.4-4.9c0.1-0.3,0.3-0.6,0.5-0.9c0.5-0.6,1.2-1,2.1-1.1
		c-0.1-0.4-0.2-0.7-0.2-1l0.6-1.9c-0.4-0.1-0.8-0.3-1.2-0.3c-0.4,0.1-1.1,0-2-0.1c-2.8,0.3-5.5,2.1-6.7,4.7c0,0,0,0.1-0.1,0.1l3-1.2
		l1.4,2.4l1-0.2c-0.2,2.3,0.6,4.3,2.4,5.4c0,0,0,0,0,0c-2.4,1.9-6.4,0.9-9.4,1.6l0,0.2l0.1,0.5c3.9,0.4,7.6-0.7,11.4-1.2l0,0l0-0.1
		c0.2-1,1.5-2.4,2.5-2.8l0.2-0.2C48.8,45.4,48.4,44.8,48,44z"/>
	<path class="st22" d="M56.6,215.9C56.6,215.9,56.5,215.8,56.6,215.9C56.5,215.8,56.5,215.8,56.6,215.9c-0.1-0.1-0.1-0.2-0.1-0.4
		c-0.1-0.3-0.1-0.8-0.2-1.2l-1.5-1.1c-3.7-0.6-8.3,1.1-11.1,3.5l0.1,0l5.3,2l8.2-0.3c0,0,0.1-0.1,0.1-0.1
		C57.4,217.4,58.2,216.1,56.6,215.9z"/>
	<path class="st3" d="M59.2,217.3c0.4,0.9,0.7,1.7,1.1,2.3c0,0,0.1,0.1,0.1,0.1c0.1,0.1,0.1,0.2,0.2,0.3c0.6,0.7,1.5,1.2,3,1.4
		c1.6-4.6-3.6-3.5-2-6.6c1.6,0.4,2-1.3,3-1.6c0.5-0.1,0.8-0.3,1-0.6c0.4-0.5,0.4-1.1,0.2-1.7c-0.5,0.2-3,1.2-3.5,1.2
		c-0.1,0.3-0.3,0.6-0.5,0.8c0,0-0.1,0.1-0.1,0.1c-1.2,1.3-3.4,1.3-5.3,1c0,0.1,0,0.2,0,0.4c0,0.4,0.1,0.8,0.2,1.2c0,0.1,0,0.2,0,0.3
		c0,0,0,0.1,0,0.1c1.6,0.3,0.9,1.6,0.9,2.5c0,0,0,0.1,0,0.1l0.4-0.3L59.2,217.3L59.2,217.3z"/>
	<path class="st11" d="M76.1,209.2l-0.2,1.5l-0.1,0.9l0,0l-0.2,0l-1.2,0.3l0.6,0.4l6.7,3.4c-0.1,0.1-0.3,0.2-0.4,0.3l0.2,0.1
		l3.2,0.3l0.6,0c-0.1-1.3,0.6-1.9,1.4-1.8c-0.8-1.1-2.3-2.1-4.1-2.9c-0.1,0-0.1-0.1-0.2-0.1C80.1,210.6,77.6,209.8,76.1,209.2z"/>
	<path class="st13" d="M74.9,212.2l-0.3-0.2l-0.8,0.1l-0.8,0.3c0,0.2,0,0.3,0.1,0.4c0.6,2.9,5.6,4.3,8.1,3c0.2-0.1,0.3-0.2,0.4-0.3
		L74.9,212.2z"/>
	<path class="st3" d="M69.9,211.6c0.1,0.4,0.2,0.8,0.4,1.2c0.1,0.3,0.3,0.6,0.4,0.9l0.5-0.1l0.1-0.7l0.3-2.1
		C71,210.9,70.5,211.2,69.9,211.6z"/>
	<path class="st13" d="M46.3,210.2c0-0.1,0-0.2-0.1-0.3v-0.3c-0.8-0.1-2-0.6-2.4,0.9c0-0.1-0.1-0.1-0.2-0.1
		c-1.2,0.8-4.1,3.1-4.7,3.9c0,0.1,0,0.1,0,0.2c-0.3,1.4-0.3,2.8-0.4,4.2c0,0.1,0,0.1,0,0.2c0,0,0,0.1,0,0.1c2.4-1.5,5.1-3.8,5.5-6.5
		c0.1-0.2,0.1-1,0-1.5l3.8,1l-0.3-0.6l-0.6-1.2C46.6,210.2,46.4,210.2,46.3,210.2z M46.2,210.7v-0.4V210.7z"/>
	<path class="st2" d="M72.3,64.7c0.1-0.3,0.3-0.5,0.4-0.7c-2.9,0.9-4.6,2.4-6.1,4.1l-0.1,1.2C69.4,69.4,71.2,66.5,72.3,64.7z"/>
	<path class="st28" d="M49.1,73.8c0,0.2-0.1,0.4-0.1,0.5c0.1,0,0.3,0,0.5,0.1c3.5,0.6,7.3,0.3,10.7-1.1c0.7-0.3,1.4-0.6,2.1-1.1
		l-0.7-0.6c-3.2,1.8-6.9,2.7-10.4,2.2C50.9,74.3,50.1,74.1,49.1,73.8z"/>
	<path class="st9" d="M45.6,73.3c0.2,0.1,0.4,0.2,0.7,0.2c0,0,0.1,0,0.1,0c0,0,0.1,0,0.1,0l0.4-0.6c0,0-0.1,0-0.1,0l-6.4-3.9
		c0,0,0-0.1,0-0.1c-0.7-0.4-1.2-0.6-1.2-0.6c0,0,0,0.1,0,0.1c0.1,0.1,0.1,0.1,0.1,0.1C40.3,70.9,42.4,72.1,45.6,73.3z"/>
	<path class="st9" d="M46.5,73.7L46.5,73.7c0,0-0.1,0-0.1,0C46.4,73.6,46.4,73.6,46.5,73.7z"/>
	<path class="st18" d="M73.8,66.2c1-1.5,3.5-3.9,3.3-5c0,0,0,0,0,0c-3.2-0.4-3.2,2.5-3.9,4.2l0.4,0.4L73.8,66.2z"/>
	<path class="st18" d="M63.7,70.4c-0.7,0.5-1.4,0.9-2.1,1.3l0.7,0.6l4.2-3l0.1-1.2L65.7,68C65,68.9,64.2,69.8,63.7,70.4z"/>
	<path class="st16" d="M60,49l-0.7,0.6L58.8,50l0.9,1c0,0,0,0,0-0.1l2.1,0.7c4.6-2.8,2.4,4.3,6.2,4c2.8-0.2,6-1.4,8.8-0.1
		c0,0-0.1,0-0.1,0.1c0,0,0.1,0,0.1,0l0.7-0.8c-2.7-1.5-4.5-4.6-7.9-4.8C66.6,49.9,62.9,50.4,60,49z"/>
	<path class="st1" d="M68,55.6c-3.8,0.3-1.6-6.8-6.2-4c-0.6,2.1,1.6,3.3,2.5,4.8c4.2,0.6,8.6,1.2,12.4-0.9c0,0,0.1,0,0.1-0.1
		C74,54.2,70.8,55.4,68,55.6z"/>
	<path class="st10" d="M61.8,51.6l-2.1-0.7c0,0,0,0,0,0.1c0,2.5,1.9,3.9,3.5,5.3l1.1,0.2c0,0,0-0.1,0-0.1
		C63.4,54.8,61.2,53.6,61.8,51.6z"/>
	<path class="st8" d="M62.6,67.3c-0.1,0.2-0.5,0.4-1.1,0.6c0,0,0,0,0,0l0.2,0c-4.6,5.8-10.3,3.5-14.7,1.2c0,0,0-0.4,0-0.7l-0.1,0
		L46.7,68l-2.4-0.4c0.1,3.4,7.2,1.9,6.9,6.2c0,0,0,0.1,0,0.1c3.6,0.5,7.3-0.4,10.4-2.2c0.7-0.4,1.4-0.8,2.1-1.3
		c0.6-0.5,1.4-1.4,2.1-2.4c0.7-1,1.4-2,1.7-2.7c-0.9,0.3-2,0.6-3.1,1.1c-0.7,0.3-1.4,0.6-2,0.9L62.6,67.3z"/>
	<path class="st20" d="M46.8,73.1C46.8,73.1,46.8,73.1,46.8,73.1c0.6,0.2,1.5,0.5,2.4,0.8c1,0.3,1.8,0.4,2,0c0,0,0-0.1,0-0.1
		c0.3-4.3-6.8-2.8-6.9-6.2l-3.7-1.8c-1.6,1-0.1,2.3-0.2,3.3c0,0,0,0.1,0,0.1L46.8,73.1z"/>
	<path class="st17" d="M47,68.4L47,68.4l8.1,0.7l6.3-1.2c0,0,0,0,0,0c0.6-0.2,1-0.4,1.1-0.6l-0.2,0L46.7,68l0.2,0.4L47,68.4z"/>
	<path class="st2" d="M43.5,41.8c-0.6,1.5-0.1,3.5,1.4,4.9H46c0.7-0.8,1.3-1.8,2-2.7c-0.8-1.3-1.4-3-1.8-4.2
		c-0.9,0.1-1.7,0.6-2.1,1.1C43.8,41.2,43.6,41.5,43.5,41.8z M46.3,43.3c0,1.4-1.6,1.4-1.6,0C44.7,41.9,46.3,41.9,46.3,43.3z"/>
	<path class="st17" d="M49.4,175C49.4,175,49.4,174.9,49.4,175c-0.1-0.6-0.2-1.5-0.3-2l-1.5,0.5c0,0,0,0.1,0,0.1
		c-0.7,1.7-1.2,3.5-1.9,5.2c0,0,0,0,0,0L47,180l0.2,0.1C47.8,178.4,48.6,176.7,49.4,175z"/>
	<path class="st17" d="M43,179.3l0.7,2.6l0.1,0l0.3,0.7c0,0.1,0,0.1,0,0.2l0,0.1c0-0.1,0.1-0.1,0.1-0.2c0.7-1.5,1.3-2.2,1.8-3
		l-2.7-0.5l-0.3-0.1L43,179.3z"/>
	<path class="st14" d="M50.5,168.7c-0.6-1.9-1-3.7-1.6-5.7c0,0,0-0.1,0-0.1c-0.1,1.1,0,2.2,0.1,3.4c0,0,0,0,0,0
		c0.2,2.2,0.5,4.4,0.1,6.5c0,0,0,0.1,0,0.1l2.3-4l0.1-0.2l0,0l-0.5-0.2L50.5,168.7z"/>
	<path class="st4" d="M69.2,204.8c0,0.2,0.1,0.5,0.1,0.7l0.4-0.7H69.2z"/>
	<path class="st22" d="M46.3,210.2c0.2,0,0.4,0,0.5,0.1c4.5,0.6,9,0.7,13.5,0.2c1.9-0.2,3.7-0.5,5.5-0.9c-2.5,0-5.1-0.6-7.4-1.5
		c-0.2,0.1-0.4,0.1-0.6,0.2c-0.1,0-0.2,0-0.3,0.1c0,0-0.1,0-0.1,0c-2.8,0.7-5.4-0.7-7.6-2.7h-2l-2.5,2.3l0.7,0.2v1.7
		C46.3,210,46.3,210.1,46.3,210.2z"/>
	<path class="st3" d="M67.2,205.2c-0.7,0-2.1,0-2.1,0c-0.1,2.4-1.6,2.7-3.5,0.7l-1.4,0.2l2.3,2l-1.4,0.7c1.8,0.5,3.6,0.8,5.6,0.6
		l1.5-0.7l1.6-1.2l-2-0.5L67.2,205.2z"/>
	<path class="st16" d="M72.3,132.7c-0.7-0.6-0.4-2.9-0.4-4.6l-1,0.2C70.8,130.1,70.6,132.4,72.3,132.7
		C72.3,132.7,72.3,132.7,72.3,132.7C72.3,132.7,72.3,132.7,72.3,132.7C72.3,132.7,72.3,132.7,72.3,132.7z"/>
	<path class="st21" d="M39.4,205l5.4-0.9c0,0.2,0,0.5,0,0.7c0.2,0,0.4,0,0.5,0c0-1.5,1-1.8,2-1.9v-0.1l2.4-0.1l-0.6,0.2
		c0.9,0,1.7-0.1,2.2-0.5v-0.6h-1.7c-0.2,0-0.5,0-0.6,0c-0.7,0.2-2.1,0.5-2.8,0.7c-0.1,0-0.2,0-0.3,0c-0.3,0-0.6,0-0.8,0
		c-3,0-5.6,0.1-7.2,2.7l0.5-0.1C38.6,205.1,39,205,39.4,205z"/>
	<path class="st14" d="M50.1,205c1,0.1,2.7,0,3.4-0.6c0.2-0.4,0.2-0.9-0.1-1.6c-0.1-0.1-0.1-0.1-0.2-0.2l-0.3,0
		c-0.1,0.1-0.2,0.3-0.3,0.4l0.2,0c-1.2,2.2-3.6,1.4-5.7,1.5c0,0-0.1-0.1-0.2-0.1c0.2-0.1,0.4-0.2,0.6-0.4c-0.1,0-0.3,0-0.4,0
		l0.4-0.3v-0.3l-0.3,0.1v-0.6c-1,0.1-1.9,0.3-2,1.9c0,0,0,0,0,0c0,0.1,0,0.2,0,0.3c0.5-0.1,1.4-0.1,2.4,0c0.8,0.1,1.6,0.1,2.4,0.2
		V205z"/>
	<path class="st14" d="M44.8,204.1l-5.4,0.9l-1.1,0.2l-0.5,0.1l-0.8,0.1c0.5,0.2,0.9,0.5,1.3,0.6c4.6,2,6.2,0.3,6.4-1.2c0,0,0,0,0,0
		C44.8,204.5,44.8,204.3,44.8,204.1z"/>
	<path class="st13" d="M64.8,204.3c0,0.2,0,0.4,0,0.6c0.9,0,1.7,0,2.2,0c-1.7-2.1-5.3-0.5-7.8-0.8l2.2,0.9c0-0.1,0.1-0.2,0.1-0.4
		L64.8,204.3z"/>
	<path class="st14" d="M48.9,201.8C48.9,201.8,48.9,201.8,48.9,201.8c0.3,0,0.5,0,0.7,0c1.9-0.1,5.4-0.6,6.8-0.8l-0.5-0.9
		c-0.6,0.1-1.6,0.2-2.8,0.4C51.4,200.8,49.6,201.2,48.9,201.8z"/>
	<path class="st28" d="M55.1,69.1L47,68.4v0c0,0.3,0,0.7,0,0.7c4.4,2.3,10.1,4.6,14.7-1.2l-0.2,0l0,0L55.1,69.1z"/>
	<path class="st22" d="M64.7,204.9c0-0.2,0-0.4,0-0.6l-3.3,0.3c0,0.1-0.1,0.3-0.1,0.4c0,0.1-0.1,0.3-0.1,0.3
		C63.2,207.3,64.5,207.7,64.7,204.9z"/>
	<path class="st22" d="M47.2,204.5c2.1-0.1,4.5,0.7,5.7-1.5l-0.2,0l-1.7-0.1c-0.8,0.4-2.4,0.7-3.4,1.1c-0.2,0.1-0.4,0.2-0.6,0.4
		C47.1,204.4,47.2,204.5,47.2,204.5z"/>
	<polygon class="st3" points="47.3,202.8 47.3,203.5 47.6,203.4 49,202.9 49.7,202.7 	"/>
	<polygon class="st13" points="53.8,205.8 57.4,206.3 56.4,204 	"/>
	<path class="st22" d="M58.7,208c0-0.1,0-0.1,0-0.2h-0.1L58.7,208z"/>
	<path class="st18" d="M46,38.9c0,0.2,0.1,0.6,0.2,1c0.3,1.2,1,2.9,1.8,4.2c0.4,0.7,0.9,1.4,1.3,1.7c0.1,0.1,0.2,0.2,0.3,0.2
		c0-0.1,0-0.1,0-0.2c0.6-2.9,0.4-10.5-1.8-12.3l-0.1,0.2l-1.1,3.2L46,38.9z"/>
	<path class="st23" d="M46.6,48.8L46.6,48.8l0.4,0.5l0.1-0.1l2-3.2c0,0,0,0,0,0C48,46.4,46.7,47.8,46.6,48.8z"/>
	<path class="st4" d="M60,43.3c0-1.4-1.5-1.4-1.4,0C58.6,44.7,60,44.7,60,43.3z"/>
	<path class="st4" d="M46.3,43.3c0-1.4-1.6-1.4-1.6,0C44.7,44.7,46.3,44.7,46.3,43.3z"/>
	<path class="st29" d="M67.4,86.1c-1.3-1.2-2.4-1-4-0.4c-1.4,0.4-3.2-0.4-4.6-0.6C58,82,60.5,81,61.4,79.3c0,0,0,0,0,0l-4.9,0.4
		c0,0-0.1,0-0.1,0c-2.4-0.8-5.9-0.4-8.2-0.1c-0.9,0.1-1.7,0.3-2.1,0.4c0.2,0,0.4,0,0.5,0c0,0,0,0,0,0c0.8,0.3,1,2,2.3,2.8
		c0,0,0,0.1,0,0.1c-0.3,2.7,2,4.7-0.5,7.1c0,0.6,0,1.1,0.1,1.7l19.5-3.4C68.1,87.5,68,86.7,67.4,86.1z"/>
	<path class="st29" d="M70.8,70.5l-7.6,7.1l0,0l0.3,0.4c0,0,0,0.1,0.1,0.1l0,0h0c5.3-1.3,12.8,3.2,13.3,8.6l1-0.2
		c-0.3-1.1-0.8-2.3-1-3.3c0-0.1,0-0.2,0-0.2c0,0,0-0.1,0-0.1c-1.2-2.1-1.3-4.2-1.2-6.3c0.1-2.3,0.4-4.6-0.1-6.8
		c-0.5,1.3-0.2,3.1-1.8,3.9c-0.7,0.5-0.9,1.7-1.4,2.8c-0.3-1.9-1.1-3.6-0.3-5.4L71.8,71L70.8,70.5L70.8,70.5z"/>
	<path class="st29" d="M60.3,130c0.2,0.2,0.3,0.5,0.5,0.8l0,0l0.8,0.4l0-1.4L60.3,130z"/>
	<path class="st13" d="M45.4,36.6c0.1,0,0.2-0.1,0.3-0.1c0-0.1-0.2-0.3-0.5-0.4c-0.6-0.4-1.7-0.8-2.4-1.1c-3.6-1.3-7.4-0.9-7.4-0.4
		c0,0.3,1.6,0.8,3.6,1.2c1.5,0.3,3.1,0.6,4.4,0.7C44.3,36.6,45,36.7,45.4,36.6z"/>
	<path class="st13" d="M58,37.7C58,37.7,58,37.7,58,37.7c0.5,0.3,2.4,0.1,4.4-0.3c2.8-0.5,5.9-1.2,5.8-1.6c0-0.3-2.1-0.4-3.2-0.4
		C61.4,35.5,58.2,37.1,58,37.7C58,37.6,57.9,37.6,58,37.7C58,37.7,58,37.7,58,37.7z"/>
	<path class="st17" d="M51.4,10.5c1.5-0.2,1.5-2,1.3-2.7c0,0,0,0,0,0c-0.1-0.1-0.2-0.2-0.4-0.2h-0.9c-0.2,0-0.3,0.1-0.4,0.3
		C51,8,51,8.1,50.9,8.3C50.4,9.3,49.7,10.5,51.4,10.5z"/>
	<path class="st4" d="M53.5,29.4c3.7-2.3,0.7-5.1-2.4-4.9c-0.9,0.1-1.5,1-1.4,1.9l0.5,3l0,0L53.5,29.4L53.5,29.4z"/>
	<polygon class="st0" points="33.1,125.3 33.1,125.3 33.1,125.3 	"/>
	<rect x="43.6" y="133" transform="matrix(0.7071 -0.7071 0.7071 0.7071 -81.2416 69.8059)" class="st0" width="0" height="0"/>
	<path class="st0" d="M23.1,127.5C23.1,127.5,23.1,127.5,23.1,127.5l0.1-0.2C23.2,127.4,23.2,127.4,23.1,127.5z"/>
	<path class="st0" d="M26.4,124.5L26.4,124.5L26.4,124.5C26.5,124.5,26.5,124.5,26.4,124.5z"/>
	<polygon class="st0" points="19.8,130.5 19.7,130.5 19.8,130.5 	"/>
	<path class="st0" d="M84.6,123c-0.3-0.3-0.6-0.6-0.9-0.9C84,122.4,84.3,122.7,84.6,123z"/>
	<path class="st7" d="M21.1,137c0.1-0.6,0.5-1,1.5-0.9l-0.1-0.8L23,135c-1.4-0.3-3.3-1.3-4.2-1.9c-0.1,0-0.3,0-0.4,0l-1.9,0.9
		l-1.3,2.3v0.4c0,0,0.1,0,0.1,0c0,0,0,0,0,0c0.9-0.1,1.6,0.2,1.9,1c0.1,0.2,0.1,0.4,0.1,0.7c0.5,0.2,1.9,0.5,2.4,0.5
		c0.1,0.2,0.2,0.4,0.3,0.7l2.6,1.1l0.5,0.5c0.1,0,0.2,0.1,0.3,0.1C22.6,140.6,20.9,138.3,21.1,137z"/>
	<polygon class="st23" points="94.6,84 94.6,84 94.6,84 	"/>
	<path class="st10" d="M26.1,126.2c-0.1-0.2-0.1-0.5-0.2-0.6L26.1,126.2z"/>
	<path class="st10" d="M28.1,136.1c-0.1-0.1-0.3-0.2-0.4-0.4c-1.9-2-1.3-5.5-1.5-8.2c0.1-0.3,0-0.9-0.2-1.4l-0.2-0.6
		c0-0.1-0.1-0.8-0.1-1l0.7-0.1l0,0c0-0.3-0.8-0.3-1.1,0l-2.1,2.8l-0.1,0.2l-0.1,0.1c0,0.2,0.1,0.5,0.1,0.7l0,0l0.6,6.3l0.3-0.2
		c0,0.5-0.1,1.4-0.2,2.1c-0.1,0.5-0.1,0.9-0.1,1.3l1.1,1.6c0,0,0,0,0,0l0.8,0.5l0.3,0.1l2.5-0.6C28.4,138.3,28.3,137.1,28.1,136.1z"
		/>
	<path class="st18" d="M18.9,131.9L18.9,131.9c0,0.1,0,0.1,0,0.2c0,0.1,0,0.3,0,0.4c0,0.2,0,0.4,0,0.6c0.9,0.6,2.9,1.6,4.2,1.9
		l0.7-0.4l-0.6-6.3l0,0l-3.3,2.2l0,0l-0.1,0.1"/>
	<path class="st10" d="M43.6,133L43.6,133C43.7,133,43.7,133,43.6,133L43.6,133z"/>
	<path class="st10" d="M47.6,131.2c0,0.1-0.1,0.1-0.1,0.2c-0.3,0.5-0.6,0.8-1,1.1c-0.8,0.5-1.7,0.7-2.8,0.5l-0.1,0l-0.4,0.4
		c0.5,1.4,0.9,2.8,1.4,4.3l-1.6,0.4l2.3,0.2c-0.2,0.1-0.3,0.1-0.5,0.1c0.7,0,1.4-0.1,2.2-0.6l0.4-0.3l0.6-0.5c0-0.1,0-0.2,0-0.3
		c-0.1-1.3,0.3-3,0.1-4.5C48.2,132.2,47.6,131.2,47.6,131.2"/>
	<polygon class="st24" points="15.6,137.5 15.6,137.9 16.1,137.8 	"/>
	<path class="st17" d="M24.1,134.4l-0.3,0.2L23,135l-0.5,0.3l0.1,0.8c-1-0.1-1.4,0.3-1.5,0.9c-0.1,1.3,1.5,3.7,2.3,4.2
		c0-0.1,0-0.2,0-0.3l0,0c0-1-1.1-2.3,0.4-3.1c0-0.4,0-0.8,0.1-1.3C23.9,135.7,24.1,134.9,24.1,134.4z"/>
	<path class="st1" d="M15.3,136.7C15.3,136.7,15.3,136.7,15.3,136.7c0.1,0.2,0.2,0.5,0.3,0.8l0.6,0.4l1-0.2
		C16.9,136.9,16.2,136.6,15.3,136.7z"/>
	<path class="st7" d="M31.4,134.6c0,0.2,0,0.3,0,0.4C31.4,134.9,31.4,134.7,31.4,134.6z"/>
	<path class="st7" d="M31.4,125.3c0,1.1-0.1,2.2-0.1,3.3c0.1,2.2,0,4.2,0.1,6.4c0,0,0,0,0,0c-4.9,0.8-0.1-6-5.1-7.4
		c0.1-0.3,0-0.9-0.2-1.4l0.2,0.6l-0.2-0.6c-0.1-0.2-0.1-0.5-0.2-0.6c0-0.1-0.1-0.8-0.1-1l0.7-0.1l0.1,0l0.5,0L31.4,125.3"/>
	<path class="st16" d="M26.3,127.6c0.2,2.7-0.4,6.2,1.5,8.2c0.1,0.1,0.2,0.2,0.4,0.4c0-0.1,0-0.3-0.1-0.4c2.5,0.8,2.7,1.4,2.5,2.8
		l0.5-0.1c0.1-1,0.2-2.1,0.3-3.4c0,0,0-0.1,0-0.1C26.4,135.8,31.3,129,26.3,127.6z"/>
	<path class="st1" d="M63.3,122.9l-0.9-0.1c-0.5,0.1-0.9,0.5-0.9,1l0.1,5.9l0,1.4l0.1,0.1c4,0.3,4.3,2.5,3.2,6.5l2.7-0.2v0
		c0.2-3.2-0.5-5.9-1.5-8.6c-0.7-1.7-1.5-3.5-2.2-5.3"/>
	<path class="st1" d="M38.8,129.1c0,0-0.1,0.1-0.1,0.1c-0.1,0.1-0.2,0.3-0.3,0.4c0,0,0,0.1,0,0.1c-0.4,0.9-0.3,2.2,0,3.5
		c-5.3,1.9-6.1,1.3-5.8-3.6c0,0,0-0.1,0-0.1h-0.6c0.3,1.4-0.4,3.9-0.5,5c0,0.1,0,0.3,0,0.4c0,0,0,0,0,0c0,0,0,0,0,0c0,0,0,0,0,0
		c0,0,0,0.1,0,0.1c-0.1,1.2-0.2,2.4-0.3,3.4c0,0.1,0,0.2,0,0.3c3.1,3,7.6,1,9.1-2.2c0-1,0.1-1.9,0.1-3c0-0.2,0-0.4,0-0.6
		c0.1-0.9,0.2-2.9,0.4-4.5C39.8,128.5,39.2,128.8,38.8,129.1z"/>
	<path class="st16" d="M47.1,125.3L47.1,125.3c-0.5-0.1-1-0.1-1.2,0.1c-1.1,2.2-3.5,3.6-3.9,6.2c-0.1,0.6-1.1,0.9-1.7,1.4
		c0,0.2,0,0.4,0,0.6c0,1-0.1,2-0.1,3l1,0.5c0,0,0,0,0,0c-0.1-0.1-0.1-0.2-0.2-0.4c0.4-1.5,0.6-2.9,2.3-3.3l0.4-0.4
		c0.6-2.7-0.2-4.3,3.8-2.8L47.1,125.3z"/>
	<path class="st1" d="M47.8,130.3l-0.3-0.2c-4-1.5-3.2,0.1-3.8,2.8h0c0,0,0,0,0,0c1.1,0.2,2,0,2.8-0.5c0.4-0.3,0.7-0.6,1-1.1
		c0-0.1,0.1-0.1,0.1-0.2C47.8,130.9,47.9,130.5,47.8,130.3z"/>
	<path class="st7" d="M45.8,122.8c-0.2-0.1-0.3-0.2-0.5-0.2c-0.4-0.2-0.9-0.3-1.4-0.2l-1.4,0.3c-0.3,0.1-0.5,0.2-0.8,0.4
		c-0.2,0.2-0.4,0.4-0.5,0.6c0.3,0.1,0.4,0.2,0.6,0.3c0.7,0.6-0.4,1.7,0.2,2.4l-1.2,0.4c0,0.7-0.1,1.3-0.2,1.7c0,0,0,0,0,0
		c-0.1,1.6-0.3,3.6-0.4,4.5c0.6-0.5,1.6-0.8,1.7-1.4c0.4-2.6,2.8-4,3.9-6.2c0.2-0.2,0.7-0.2,1.2-0.1l0.1-0.6l-0.4-0.8
		C46.5,123.4,46.2,123,45.8,122.8z"/>
	<path class="st1" d="M86.7,125.4c-0.3-1-0.8-1.8-1.7-2.6c0,0,0,0-0.1-0.1c-0.5-0.5-1.3-0.6-2-0.3l-0.3,0.1l2.5,2.6c0,0,0.1,0,0.1,0
		v8.6l0.9,0.1l0.4-6.8c0.1-0.2,0.1-0.3,0.1-0.4C86.8,126.2,86.8,125.8,86.7,125.4z"/>
	<path class="st1" d="M70.8,126.4l-1.8,1.1c0,0.3,0,0.7,0.1,1l1.9-0.3C70.9,127.5,70.9,126.9,70.8,126.4z"/>
	<path class="st16" d="M69.6,134.7c-0.2-0.6-0.3-1.1-0.5-1.6c-1.7,0.2-1.5-2-1.6-4.3c0-2-0.1-4.1-1.5-5.2c-0.9-1,0.2-1,0.8-1.2
		l-0.5-0.7c-0.4-0.5-1.2-0.4-1.5,0.1l-0.9,1.9c0,0,0,0,0,0.1c0.7,1.8,1.5,3.5,2.1,5.2c1,2.7,1.8,5.5,1.5,8.6l0.8-0.4l1.6-0.8
		C69.9,135.9,69.8,135.3,69.6,134.7z"/>
	<path class="st16" d="M66.9,122.3C66.9,122.3,66.9,122.4,66.9,122.3C66.9,122.4,66.9,122.4,66.9,122.3
		C66.9,122.4,66.9,122.4,66.9,122.3z"/>
	<path class="st10" d="M31.4,125.3c0,1.1-0.1,2.2-0.1,3.3c0.4,0.2,0.6,0.5,0.7,1h0.6c0-1.8,0.1-3.3,0.5-4.3H31.4z"/>
	<path class="st16" d="M31.3,128.6c0.1,2.2,0,4.2,0.1,6.4c0,0,0,0,0,0c0,0,0,0,0,0c0-0.1,0-0.2,0-0.4c0.2-1.1,0.8-3.6,0.5-5
		C31.8,129.1,31.6,128.7,31.3,128.6z"/>
	<path class="st16" d="M40.8,126.7l-0.2,0l-0.5-2.2c0,0,0,0,0,0c-3.9-2-6.1-1.9-7.1,0.7c0,0,0,0,0,0c-0.4,1-0.6,2.5-0.5,4.3
		c0,0,0,0.1,0,0.1c-0.3,4.9,0.5,5.5,5.8,3.6c-0.3-1.3-0.5-2.6,0-3.5c0,0,0-0.1,0-0.1c0.1-0.2,0.2-0.3,0.3-0.4c0,0,0.1-0.1,0.1-0.1
		c0.4-0.3,1-0.6,1.8-0.6c0,0,0,0,0,0C40.7,128.1,40.8,127.4,40.8,126.7z"/>
	<path class="st18" d="M41.3,123.7c-0.2,0-0.9,0.8-1.1,0.9l0.5,2.2l0.2,0l1.2-0.4c-0.6-0.7,0.5-1.7-0.2-2.4
		C41.8,123.9,41.6,123.8,41.3,123.7C41.3,123.7,41.3,123.7,41.3,123.7z"/>
	<path class="st7" d="M82.7,122.6l-4,1.2c-0.4,0.1-0.8,0-1.1-0.3c-2.1-2.3-4.4-2.9-6.3-1.4c-0.1,0.5-0.2,1.1-0.2,1.6l1.5,0.2
		c1.4,1.1,2.1,2.3,2.4,3.6c0.5,1.7,0.3,3.6,0.3,5.7l1.3-0.4c0,0-0.1,0-0.1,0c0.2-1.8,0.2-3.9,0.9-5.7c0.2-0.6,0.5-1.3,0.9-1.8
		l0.1,1.6l0.3,5.9h0.9c0-2.1-0.3-4.2,0.6-6.2c0.1-0.2,0.1-0.3,0.2-0.5c0.3-0.6,0.8-0.3,1.5,0.2c0.6,0.4,1.3,0.9,2,0.9
		c0-0.5,0-0.9,0.2-1.3c0.2-0.4,0.6-0.7,1.3-0.7L82.7,122.6z"/>
	<path class="st10" d="M69.9,121.7l1.3,0.3c-0.1,0.5-0.2,1.1-0.2,1.6l-0.2,0v0.8l-0.1,1.6c0,0.1,0.1,0.2,0.1,0.4l-1.8,1.1l0,0
		c0-0.7,0-1.4,0-2c0-1.5-0.2-2.8-1.9-3.2l0,0l0.2-0.6l1.5-0.2C69,121.6,69.5,121.6,69.9,121.7z"/>
	<path class="st16" d="M85.2,125.2c-0.6,0-1,0.3-1.2,0.7c-0.2,0.4-0.2,0.8-0.2,1.3l-0.4,7.4l-0.1,0l0,0l0,0l2-0.8l0,0L85.2,125.2
		C85.2,125.2,85.2,125.2,85.2,125.2z"/>
	<path class="st7" d="M69,128.5c0-0.3,0-0.7-0.1-1l0,0c0-0.7,0-1.4,0-2c0-1.5-0.2-2.8-1.9-3.2l0,0c0,0,0,0,0,0c0,0,0,0,0,0.1
		c0,0-0.1,0-0.1,0c-0.6,0.2-1.7,0.2-0.8,1.2c1.4,1.1,1.5,3.2,1.5,5.2c0,2.3-0.1,4.5,1.6,4.3c0.1,0.5,0.3,1.1,0.5,1.6
		C69.2,132.6,69.1,130.6,69,128.5z"/>
	<path class="st16" d="M70.7,126.1c0,0.1,0.1,0.2,0.1,0.4c0.1,0.5,0.1,1.1,0.1,1.8l1-0.2C71.8,126.7,71.6,125.8,70.7,126.1z"/>
	<path class="st26" d="M81.8,126.3c-0.7-0.5-1.3-0.8-1.5-0.2c-0.1,0.2-0.2,0.3-0.2,0.5c-0.9,2-0.6,4.1-0.6,6.2h-0.9l-0.3-5.9
		l-0.1-1.6c-0.4,0.5-0.7,1.2-0.9,1.8c-0.6,1.8-0.6,3.9-0.9,5.7c0,0,0.1,0,0.1,0c0.8,0.3,2.4,0.9,3.8,1.4c0.9,0.3,1.6,0.6,2,0.8
		l0.9-0.4l0.1-0.1l0.1,0l0.4-7.4C83.1,127.1,82.4,126.7,81.8,126.3z"/>
	<path class="st26" d="M74.9,127.5c-0.3-1.3-1-2.5-2.4-3.6l-1.5-0.2l-0.2,0v0.8l-0.1,1.6c1-0.3,1.2,0.7,1.2,2c0,1.7-0.3,4,0.4,4.6
		c0,0,0.1,0,0.1,0s0,0,0.1,0c0.4,0.3,0.8,0.4,1.2,0.4c0.8,0.1,1.5-0.1,1.5,0C75.2,131.1,75.3,129.2,74.9,127.5z"/>
	<path class="st10" d="M47.6,131.2l0.5,1L47.6,131.2z"/>
</g>
</svg>
