<?xml version="1.0" encoding="utf-8"?>
<!-- Generator: Adobe Illustrator 25.0.1, SVG Export Plug-In . SVG Version: 6.00 Build 0)  -->
<svg version="1.1" id="Ebene_1" xmlns="http://www.w3.org/2000/svg" xmlns:xlink="http://www.w3.org/1999/xlink" x="0px" y="0px"
	 viewBox="0 0 156.6 54.5" style="enable-background:new 0 0 156.6 54.5;" xml:space="preserve">
<style type="text/css">
	.st0{fill:#6F9ACB;}
</style>
<g id="Sky_1">
	<path class="st0" d="M120.4,47.7c3.1-0.8,11.6-0.4,11.6-0.4c3,5.1,14.1,1.1,14.1,1.1c6.5,3.4,8.5-1.1,8.5-1.1c-1.7-4.8-7-2.2-7-2.2
		c-3.5-5.6-8.7-1.3-8.7-1.3c-2.6-5.2-7.8-0.4-7.8-0.4c3.5-7.4-6.5-13.9-6.5-13.9c-9.1-3.9-14.8,5.2-14.8,5.2c-3-5.6-5.6-1.7-5.6-1.7
		c-4.3-6.5-9.1-2.2-9.1-2.2c-2.2-12.2-14.3-9.6-14.3-9.6C74.3,5.2,59.6,2.5,47.9,8.8c-11.1,6-11,22.9-11,22.9
		c-2-2.9-6.2-1.4-6.2-1.4c-4.4,2.1-3,7.9-3,7.9c-0.9-3.9-6.1-7.4-11.7-5.2c-5.6,2.2-4.4,12.6-4.4,12.6c-3-4.8-7,0.9-7,0.9
		c-0.7,4.6,17.7,0.9,20.3,1.8c2.6,0.9,3.2-1.9,5.3-0.2c0,0,10.1,1.5,13.2-0.8c3-2.3,4-0.2,7.6,0.4c3.6,0.6,40.4-3.2,39.8-1
		c-0.6,2.3,7.2,2.5,7.8,0.6c0.4-1.4,1.7,3.8,6.9,0.6C105.7,47.9,115,49.1,120.4,47.7z"/>
</g>
</svg>
