<svg xmlns="http://www.w3.org/2000/svg" width="60mm" height="100mm" viewBox="0 0 170.08 283.46"><defs><style>.a{fill:none;}.b{fill:#e5b266;}.c{fill:#34343a;}.d{fill:#e98036;}.e{fill:#9a959b;}.f{fill:#4c5861;}.g{fill:#171114;}.h{fill:#fbf6ee;}.i{fill:#e5cfc9;}.j{fill:#c1541d;}.k{fill:#b03231;}.l{fill:#a16750;}.m{fill:#e8975a;}.n{fill:#26272c;}.o{fill:#284c8a;}.p{fill:#3b464f;}.q{fill:#3d65a2;}.r{fill:#d9712a;}.s{fill:#622317;}.t{fill:#844529;}.u{fill:#6f9aca;}.v{fill:#ca4e48;}.w{fill:#757b85;}.x{fill:#5f6772;}.y{fill:#f5c17d;}.z{fill:#e35d5c;}.aa{fill:#da5e17;}.ab{fill:#24366a;}.ac{fill:#8e1a1e;}.ad{fill:#d49f4d;}</style></defs><rect class="a" width="170.08" height="283.46"/><path class="b" d="M124,58.77h0a77.73,77.73,0,0,0-19.76-.13H103l-2.23-3.4,3.9-2.6c-3.4-4.2-10.9-8-15.4-3.9a22.2,22.2,0,0,0-1.46-6.27c-.83-3-1.58-5.43-2.42-8.63l-.19-1.2L84,30l-.38-.23a.42.42,0,0,0-.37-.22h-.87a.42.42,0,0,0-.4.26q-.08.19-.18.42c-3,4.66-3.85,11-4.33,16.57H76.24c-3.93-1.31-5.61-1.9-8.23-.5H66.64a15.79,15.79,0,0,0-6.2,4.5c1.39.8,3.08,1.59,3.69,3.07A19.62,19.62,0,0,0,61,59.53c-9.18.7-19.46-.89-26.95,5.4V71c.4.6,1.7,2.6,2.4,2.9,0-.1,0-.22,0-.33a7.67,7.67,0,0,1,.3.73h0c.38.94,1.37,2.92,1.9,3.16V78l1.7,1.6c0-.09,0-.18,0-.27a6.37,6.37,0,0,1,0,.87l.8,1.1c3.57,2.38,6.45,6.23,11.17,6.2l0,.1,3.57-.69c.7.07,1.72-.2,1.43,1.16-2.21,1.51-5.83,4-8.1,5.33-2,.2-2,2.1-2.8,3.2-2.1,3.6-1.7,8.2-3,12.2-.19,1.72.52,3.35.76,5.06,0,.51-.05,1-.06,1.44,0,.08,0,.16,0,.23a13.11,13.11,0,0,0-.62,2.24l1.2-.21,5.55-1,.84-.15,4.67-.82,4.42-.78,1.71-.3.9-.16,17-3,18.47-3.25,8.77-1.55.86-.15.72-.13,3.68-.65,1.16-.2,6.26-1.11,3.14-.55.41-.07,1.58-.28c-.59-2.39-1.18-4.75-1.77-7l-2.4-3.9-5.9-3.1c-.18,0-3.7-2.28-4.53-2.35l0-.25v-.06c.58-.42-.41-2,1.2-2.14,1.9.9,3.1,1.4,5.3.6l2.3-.5,7.8-6.3c2.7-3.5,5.6-8,6.4-12.3C135,61,127,60,124,58.77Z" transform="translate(0)"/><path class="b" d="M114.44,106.88a3,3,0,0,0-.49-1A4.06,4.06,0,0,1,114.44,106.88Z" transform="translate(0)"/><polygon class="b" points="125.52 105.96 125.52 105.97 125.52 105.96 125.52 105.96"/><path class="c" d="M40.53,256.76l2.94.36c4,.44,8.31.83,13,1.14h.19l1.27.08h0c3,.19,6.1.35,9.33.47l1.18.05,2.29.07,2.11.05h0l4.09.1q3.94.06,8,.06,3.17,0,6.27,0c3.23,0,6.4-.11,9.48-.21l3.21-.12c5.13-.21,10-.51,14.46-.88,3-.24,5.9-.52,8.57-.83l1.8-.21,2.91-.39,2.17-.33c.38-.06.76-.11,1.13-.18l.74-.12,8.61-4.89c0,.09-5.25-10-5.23-9.9l-1.5-4.92-1.72-1.8a2.56,2.56,0,0,0-.39,0c-.11-1-.24-1.9-.31-2.87a8.09,8.09,0,0,1-2.14-1.2,8.35,8.35,0,0,0,2.14,1.1c.1-4.7-4-8.5-8.4-9.5a5.63,5.63,0,0,0-.34,1.84c0-.13-.1-.26-.16-.38v-.16a10,10,0,0,0-3.9-5.9.19.19,0,0,1-.3-.1l-3.3-1.4a.37.37,0,0,1-.3-.1l-.88.59a41.65,41.65,0,0,0-7.66-1.88c-.76-.72-1.34-1.47-.52-2.71h.06l.1-1.5h-.1c.33-.59.66-1.24,1-1.9h.21c1.2-1.3,2.5-4.4,0-4.7-.6-.5-1-.8-1.6-1.3l.3-.8-2.3-2.4,2.1,2.19c3.6-2.7,6.5-10,1-14.69h-.18c.13-1-.83-1.56-1.29-2.37a5.19,5.19,0,0,0-.13-.83h-.09s0-.06,0-.1v.1c-1.58.2-1.41-1.63-1.9-2.8s-3.7-8.1-4.1-8.9l-2-3.2-.06,0-1.4-3a5.19,5.19,0,0,0,1-.21l-.08,0,1.2,1.34h1.2l.08-.08a5,5,0,0,0-.48.68l.9.8,3.5,2.2,7-1c3.9.3,6.9-2.4,9-5.4l2.8-4.7.6-.6c.52-.54,1.11-.84-.3-2.3a4.8,4.8,0,0,1-.55-.44,3.16,3.16,0,0,1,1.4-2.29,14.11,14.11,0,0,0,4.52-8.06,4.53,4.53,0,0,0,.77-1.59l-.63.11-.48.09h0l-3.92.69-4.06.72-6.44,1.13-.64-.56q-.45-.42-.87-.87l-1.08.47-4.7,1.4c-2.2-2.7-4.7-3.5-6.8-1.9l-1.9-.3v0a4.43,4.43,0,0,1-1.51.93,5.3,5.3,0,0,1-1.8.3h-.23a5.22,5.22,0,0,1-1.15-.17l-.62,1,0,.07,0,0-.07-.14a4.54,4.54,0,0,1-2.35,2.72l0,1.26-14.12,2.49v0l-.14-1.87a1.15,1.15,0,0,0-.86-1,4.61,4.61,0,0,1-1.4-.65A4.46,4.46,0,0,1,74.53,148a1.25,1.25,0,0,0-.63-.57,4.49,4.49,0,0,1-1.26-.79l-.29,0a1.15,1.15,0,0,1,.42.29,1.5,1.5,0,0,0-.54-.29h-.38a4.72,4.72,0,0,1-3-1,1.73,1.73,0,0,0-.85-.41,3.83,3.83,0,0,0-4.61,3h-1l-3.68-.67a1.52,1.52,0,0,0-1.12.21,4.74,4.74,0,0,1-.84.43,9.27,9.27,0,0,1-1.09.36,1.43,1.43,0,0,0-.87.69l-.6,1-.14.18h0l-.08.1c0,.21.05.46.08.72l-3.05,2-.58.4a1.56,1.56,0,0,0-.71,1.39c0,.2,0,.37,0,.39a4,4,0,0,0,0,.6l.1.06,0,0-.49,0-1.34.64a1.85,1.85,0,0,0-.82.77l-.77,1.36-.24.82h.1a6.89,6.89,0,0,1,.3.8l.1,1.1.8.8,2.1,2.2.6,1.2h.61c.74.91,1.43,2,2.19,2.8a6.51,6.51,0,0,0,3.07,1.31l.83.09h.2c3.84,1,8,2.3,11.45.13-2.14,6.95-9,13.12-8.65,20.47l1.6-3.6a15.91,15.91,0,0,0,1.19-1.61h0c.19.1-.63,1-1.14,1.63l-.06.07-1.6,3.6c.2.9.4,2,.6,3,.1,3.1,3.6,6.2.7,8.8l-7,6.4c-4,.9-5.1,4.9-6.8,8l1.21,1.44h0l-1.31-1.55a12,12,0,0,1-1.7,4.9l2.91.38,0,.11-2.94-.39-3,2-1.5,3.6H41l-.11,0-.29,1.55-2.2,2.8.2.6-.6,1.1v1l-.1,1.5L38,236c-.32,2.87-12.43,8.91-12.17,17.38.57.08,13.12,3.16,13.71,3.24ZM52,157.27h0Zm-.89-.41,0,0Zm48.08,46.55c-1.13,3.47,1.7,6.94.12,10.12a2.09,2.09,0,0,0-.56.8l-.24.4c-1.1-.2-2.2-.2-2.1,1.4-4.47-.2-8.74-.49-13.1-.79h0l-3.4-.3a15.37,15.37,0,0,0-4.35.19,28.66,28.66,0,0,0,.32-3.6c.12-.42.23-.83.34-1.25l.24-.89c.25-.92.49-1.84.71-2.76,1-2.85,2.12-5.63,3.14-8.49l-.07-.24c.36-1.56,1.35-3.91,2-6.2l.09-.16,0,0c.88-3.32.93-6.47-3-6.88h0l-1.6-1.6a15.58,15.58,0,0,1,.83-2.77A63.79,63.79,0,0,0,83.51,174a28.37,28.37,0,0,1,3.49-.08l.44.1c.77,2.31,2.74,4.07,4,6.07.88,2.25,3.16,6.46,3.56,7.33.16.42.29.84.41,1.26l-.06.05a8.85,8.85,0,0,0,1.5,11.71l0,0ZM50.39,156.47l-.06,0Z" transform="translate(0)"/><path class="a" d="M108.75,186a.15.15,0,0,1,0,.07h0Z" transform="translate(0)"/><path class="a" d="M103.22,155.69l.07,0-.08,0Z" transform="translate(0)"/><path class="a" d="M101.67,92.43h0l0,0Z" transform="translate(0)"/><path class="a" d="M114,157.64l.14,0h0Z" transform="translate(0)"/><path class="a" d="M114.14,157.59c.72-.28,1.54-.66,2-.85h0Z" transform="translate(0)"/><path class="a" d="M61.91,195.81a.61.61,0,0,1,.05.12h0Z" transform="translate(0)"/><path class="a" d="M69.54,169.2h0l0,0Z" transform="translate(0)"/><path class="a" d="M62.22,184.32c0-.82.75-1.43,1.12-2.09s.56-1.12.82-1.65l-.82,1.55C63,182.82,62.18,183.45,62.22,184.32Z" transform="translate(0)"/><path class="a" d="M79.83,189.25h0v0Z" transform="translate(0)"/><path class="a" d="M122.42,218.28a9.81,9.81,0,0,1,1.42,1.25c.32.34.63.73.94,1.13A7.55,7.55,0,0,0,122.42,218.28Z" transform="translate(0)"/><path class="a" d="M87.43,238.76l-.05-.28c0,.15,0,.25,0,.25Z" transform="translate(0)"/><path class="a" d="M58.16,75.88l.05.07,0-.08Z" transform="translate(0)"/><path class="a" d="M107.12,199h0l.07-.1Z" transform="translate(0)"/><path class="a" d="M69.16,228.11l1.12-.19A8.34,8.34,0,0,0,69.16,228.11Z" transform="translate(0)"/><path class="a" d="M73.9,196.16l-.35.47h0Z" transform="translate(0)"/><path class="a" d="M66.47,228.53,65.25,228l1.24.62S66.48,228.55,66.47,228.53Z" transform="translate(0)"/><path class="a" d="M55.71,162.3h0Z" transform="translate(0)"/><path class="a" d="M129.54,224.33l-.62.57.62-.51Z" transform="translate(0)"/><path class="a" d="M128.22,227.65l-.18-2H128c.08.72.1,1.43.18,2.07Z" transform="translate(0)"/><path class="a" d="M87,173.93a28.37,28.37,0,0,0-3.49.08,63.79,63.79,0,0,1-4.94,6.35,15.58,15.58,0,0,0-.83,2.77l1.6,1.6h0c3.88.41,3.83,3.56,3,6.88l0,0-.09.16c-.63,2.29-1.62,4.64-2,6.2l.07.24c-1,2.86-2.11,5.64-3.14,8.49-.22.92-.46,1.84-.71,2.76l-.24.89c-.11.42-.22.83-.34,1.25a28.66,28.66,0,0,1-.32,3.6,15.37,15.37,0,0,1,4.35-.19l3.4.3h0c4.36.3,8.63.59,13.1.79-.1-1.6,1-1.6,2.1-1.4l.24-.4a2.09,2.09,0,0,1,.56-.8c1.58-3.18-1.25-6.65-.12-10.12l-2.38-3,0,0a8.85,8.85,0,0,1-1.5-11.71l.06-.05c-.12-.42-.25-.84-.41-1.26-.4-.87-2.68-5.08-3.56-7.33-1.3-2-3.27-3.76-4-6.07Z" transform="translate(0)"/><path class="a" d="M59.41,226.21l-1.28.18,1.31-.12Z" transform="translate(0)"/><rect class="a" x="98.49" y="160.42" width="0.94"/><path class="a" d="M74.47,101.44l.13.07.14,0C74.65,101.51,74.56,101.47,74.47,101.44Z" transform="translate(0)"/><path class="a" d="M77.65,98.11a19.38,19.38,0,0,0,4.89.71l.1-.09A18.26,18.26,0,0,1,77.65,98.11Z" transform="translate(0)"/><path class="a" d="M85.83,52.13a2.89,2.89,0,0,1,.35.19,4.05,4.05,0,0,0-.35-.21s0,0,0,0Z" transform="translate(0)"/><path class="a" d="M74.39,63.81a3,3,0,0,1,.54-.9A2.38,2.38,0,0,0,74.39,63.81Z" transform="translate(0)"/><polygon class="a" points="106.74 67.83 106.56 67.69 106.74 67.84 106.74 67.83"/><path class="a" d="M80.39,96.4v0a18.4,18.4,0,0,0,10.68-1.16A18.85,18.85,0,0,1,80.39,96.4Z" transform="translate(0)"/><polygon class="a" points="48.67 218.53 48.67 218.53 48.73 218.61 48.73 218.61 48.67 218.53"/><path class="a" d="M76.46,95.3l.64.25h0Z" transform="translate(0)"/><rect class="a" x="74.06" y="156.13" width="0.57"/><path class="a" d="M92.31,89.87Z" transform="translate(0)"/><path class="a" d="M77.64,101.93h0Z" transform="translate(0)"/><path class="d" d="M60.64,66c-2.2,2.6-9.3,4.4-4.2,7.5a0,0,0,0,1,0,0l1.41.17-1.31.85-.06,1.71a6.22,6.22,0,0,0,.67-.86h.7c.1.16.21.3.32.45h0l-.23-.54c3.4-2,7.1-13.5,8.6-11.5l.38-.85-.08,0c-.6-1-.1-2.6-1.9-3.1l.07,0a12.67,12.67,0,0,1-4.17,1.13v0h-.2v0a22.79,22.79,0,0,0-13,.34v.7H58v.5a7.21,7.21,0,0,1-1.39.36C60,63.44,62,64.58,60.64,66Z" transform="translate(0)"/><path class="e" d="M100.12,224.86l-2.28-.53a1.14,1.14,0,0,0,.15-.16,6.51,6.51,0,0,1-3.15-1l-.3-1.49-.69-.08.09,1.27c-2.1,1.7-5-2.3-6.2.6-.31.06-.59-.27-.77-.57l-.23.17.5.9c-1.39.18-4.88.72-6.76.8h1.66v.6a3.74,3.74,0,0,1-2.23.51l-1.47.49v.3l-.4.3.4,0c1-.47,2.59-.74,3.4-1.15l1.68.09a4,4,0,0,0,.27-.4H84l.18.23a1.69,1.69,0,0,1,.1,1.62c-.7.56-2.35.61-3.38.55v.27c-.8,0-1.63-.09-2.38-.15l.48.48-.11.1h1.91c2.17,2,4.75,3.4,7.58,2.69l.11,0,.25-.07a5.62,5.62,0,0,0,.58-.19,20.89,20.89,0,0,0,7.38,1.49,54.63,54.63,0,0,1-5.54.9c6-.41,11.2-1.63,9.84-4.5,2.52,0,5.14.06,7.8.18l2-1.48c0-.08.14-.95.19-1.28,0-.06,0-.1,0-.12l-1.37-.06-.23,0a.55.55,0,0,1-.5-.3c-1.1-.9-3.2-.7-3.9-1.5-.9-1.3-1.8-.8-2.8-.6a6.58,6.58,0,0,1,0-1.43l-.15.13c-.4-.79-.89-2.06-1.38-2.86,0,0,0,0,0,.06l-.66-.69a20.5,20.5,0,0,0-1.43-1.6l-.11-.11C97.56,219.8,99.37,222.27,100.12,224.86Zm-15.48,3.87,2.6-1.8,1,2.3Zm20.1-4.2c.8.9,3.3.5,4.2,1.6-2.6-.3-5.3.2-7-2.2C102.94,223.63,103.84,223.23,104.74,224.53Zm-15.2,6.4-.1-.2h.1ZM90,227c2.5.3,6.1-1.3,7.8.8-.56,0-1.38,0-2.24,0-.24,2.8-1.5,2.4-3.46.35a1.45,1.45,0,0,1,.08-.33Zm9,4.6-1.5.7a14.87,14.87,0,0,1-5.6-.6l1.4-.7L91,229l1.4-.2c1.9,2,3.4,1.7,3.5-.7H98l.6,1.8,2,.5Zm1-3.9h.5l-.4.7C100.14,228.23,100,227.93,100,227.73Zm.5-.1h-2.7c-1.69-2-5.26-.42-7.76-.79-.19-.75-.46-1.57-.64-2.31h0c0-.06,0-.13,0-.19l4.1-.6c1.7-.2,5.7,1,7,1.2Z" transform="translate(0)"/><path class="e" d="M79.83,224.73h-.09A13.24,13.24,0,0,1,84,223.46l-2.34.37-.4-1.1,1.8-.2-.59-.17-1.51.17a7.6,7.6,0,0,1,.4,1.1l-2,.8c-.41.07-1.18.23-1.85.39-.29.24-.56.45-.8.62H77C77.74,225.23,79.13,224.93,79.83,224.73Z" transform="translate(0)"/><path class="e" d="M75.61,227.77v0l.54,0v0Z" transform="translate(0)"/><path class="e" d="M127.94,225.53a.62.62,0,0,1,0,.13H128l.1,0,.78-.73.62-.57v.06a8.2,8.2,0,0,0,3.56,5.84,8.35,8.35,0,0,0,2.14,1.1c.1-4.7-4-8.5-8.4-9.5a5.63,5.63,0,0,0-.34,1.84c0-.13-.1-.26-.16-.38v2.53C127,225.72,127.56,225.62,127.94,225.53Z" transform="translate(0)"/><path class="e" d="M107.4,215.46h-.05l-.77.07h0a3.83,3.83,0,0,0-3.31,2.29l-2-.4c0-.09,0-.17,0-.26,0,.12,0,.25,0,.37h0l2,.4c.26-.09.76-.29,1.38-.54l4.14-1.61a16.24,16.24,0,0,1,2-.65l1,.1a2.83,2.83,0,0,1-.37.4,2.34,2.34,0,0,0,.27-.2,2.25,2.25,0,0,1,1.4-.1l7.4,2.6c2.19.9,7.53,6.34,3.85,7.87a2,2,0,0,0,1.65-1.37,8.26,8.26,0,0,0-1.16-3.77c-.31-.4-.62-.79-.94-1.13a9.81,9.81,0,0,0-1.42-1.25,14.38,14.38,0,0,0-5.08-1.85l.32-.21a41.65,41.65,0,0,0-7.66-1.88c.24.23.5.45.74.69A13.08,13.08,0,0,1,107.4,215.46Z" transform="translate(0)"/><path class="e" d="M119.64,225c-.6-2.4,1.7-3.3-1-4.9-2.1-.9-5.3-3.9-7.1-1.3a.91.91,0,0,0,.1,1.1c1.76,2,5,4.87,1.15,6.21l11,.09-.13,0,.23,0,.1,0v-.38h0l-3.54-.1A1,1,0,0,1,119.64,225Zm-.9.6-3.2.1a.6.6,0,0,1-.6-.7c.8-2.8-3.6-5.1-3.2-5.6,1.6-2.5,4.6-.1,6.6,1.1,2.7,1.6.4,2.1,1,4.4A.6.6,0,0,1,118.74,225.63Z" transform="translate(0)"/><path class="e" d="M87.88,221.58l.17-.13c-3.38.07-6.42.28-7,.28l-.14,0,.51.16Z" transform="translate(0)"/><path class="e" d="M106.59,234.31l0,.22-.08,0,.16,0Z" transform="translate(0)"/><path class="e" d="M101.1,235.75h0a5.65,5.65,0,0,0,.47.88A9,9,0,0,1,101.1,235.75Z" transform="translate(0)"/><path class="e" d="M78.9,223l.14-.13-1.2-.6c-.58.11-1.21.24-1.85.39l1.65-.29Z" transform="translate(0)"/><path class="e" d="M96.14,216.93c.3.1.5.3.8.4l.09.52.51.08-.2-1.2.4,0a3.77,3.77,0,0,1-1.2-.37c-.1-1.57.77-1.6,2-1.41a4.1,4.1,0,0,1,.2-.59l-.24.4c-1.1-.2-2.2-.2-2.1,1.4-4.47-.2-8.74-.49-13.1-.79a2.32,2.32,0,0,0,.08.64C87.57,216.43,91.9,216.55,96.14,216.93Z" transform="translate(0)"/><path class="e" d="M92.55,235.92l.1-.09h0l-.1,0v0S92.56,235.83,92.55,235.92Z" transform="translate(0)"/><path class="f" d="M127.19,232.9l-.75-.07a.67.67,0,0,1-.09-.14l0,.15h0l.4,5.2h.08c.29,0,.65-.09,1-.09,3.3-1.3,1-3.1-.4-5l-.24,0Z" transform="translate(0)"/><path class="f" d="M123.15,236.15h.06c1.28-1,2.94-2.08,2.85-4.12l-.11-.22C126.16,234,124.46,235.16,123.15,236.15Z" transform="translate(0)"/><path class="f" d="M125.14,231.73h.75s0-.07,0-.1H125c-1.6,4.14-7.88,2.27-11.79,2.94l.2.09C117.37,234,123.65,235.93,125.14,231.73Z" transform="translate(0)"/><path class="f" d="M106.64,234.53l.11-.91-.16.69,0,.23Z" transform="translate(0)"/><path class="g" d="M71.94,250.33c.36.82.67,4.43.93,8.66h0c-.26-4.22-.57-7.84-.94-8.66Z" transform="translate(0)"/><path class="g" d="M53.74,250.43c-3.1-1.4-4.3-5.3-6.8-7.7C49.34,245.13,50.64,249,53.74,250.43Z" transform="translate(0)"/><path class="g" d="M74.94,249.33a8.22,8.22,0,0,1-3.4-1.6,7.31,7.31,0,0,0,3.4,1.7Z" transform="translate(0)"/><path class="g" d="M44.78,240.57c-.62-.64-1.72-1.4-2.62-2.23C42.39,239.84,43.52,240.28,44.78,240.57Z" transform="translate(0)"/><path class="g" d="M69.24,241.83c-.15.33-.29.65-.42,1,.13-.33.27-.65.42-1h0c0-.07,0-.13,0-.2Z" transform="translate(0)"/><path class="g" d="M90,240.24a10.77,10.77,0,0,0,1.08,2.25A12.74,12.74,0,0,1,90,240.23Z" transform="translate(0)"/><path class="g" d="M41.22,237.31a2.79,2.79,0,0,1-.38-.72v0h-.57c0,.17,0,.33.07.5H41Z" transform="translate(0)"/><path class="g" d="M56.64,250.13l-.15,8.13h.19l.26-7.84Z" transform="translate(0)"/><path class="g" d="M58,258.35h0c-.15-4.37-.21-8.22-.22-8.47C57.75,250.14,57.81,254,58,258.35Z" transform="translate(0)"/><path class="g" d="M124,239.63a1.29,1.29,0,0,1,1.28-1.17l-.06-.1A1.33,1.33,0,0,0,124,239.63Z" transform="translate(0)"/><path class="g" d="M123.92,240.32c-3.23-2.07-2.25-3-.71-4.16h-.06c-1.53,1.16-2.51,2.1.69,4.18l.1,1.1-3.2-.8a2.54,2.54,0,0,1-2.7-2.3l-.4,1.6c.58,1.74-.52,2.26-1.85,2.66,0,0,0,.1-.05.14a66.66,66.66,0,0,1-23.4,2.6c-4.2.8-9.5,2.6-14.2,1.1.3-.2.6-.6.8-.6,2.1.4,3.1-3,1.2-3.9l8.2-.4.43-.4-.43.3a.61.61,0,0,1,0-.14,1.1,1.1,0,0,1-.09.14l-8.2.3-5.32-2a26.29,26.29,0,0,1-3.08,1.37c-3,.4-1.2,4.9-4,4.6l-2.3.5a.37.37,0,0,0-.1-.3c.8-1.6-.9-2.2-1.9-3l0-.05a10.4,10.4,0,0,0-1.76-.38c2,.41,3.53,1.23,3.53,3.43-6.9-1.3-13.9-2.1-20.2-5.4l-.06.06.16,0c.1.5.2.8.3,1.3-1.7-.69-3.69-1.52-4.88-3l.28.56c-2.3.2-.8,1.6-.7,2.3a17.42,17.42,0,0,0,.55,2.11c-.17-.69-.33-1.36-.45-2-.1-.8-1.7-2.2.7-2.3l1.8,1.1A21.41,21.41,0,0,0,43,247.4a25.11,25.11,0,0,1-.31-6.47c1,.4,3.3,1.5,4.3,1.8a92.74,92.74,0,0,0,24.6,5c16.3,2.8,33.3.4,49.2-3.9-1.4.8-3.5,3.5-2.8,4.9a2.19,2.19,0,0,1,.87,1.94c.23-.56.17-1.15-.67-1.94-.5-1.4,1.2-4,2.8-4.9a8.48,8.48,0,0,0,5.69-2.68l-2.59.38A9.18,9.18,0,0,1,123.92,240.32Z" transform="translate(0)"/><path class="g" d="M126.74,241v-.3l-.47-.72a7.56,7.56,0,0,1,.45,1Z" transform="translate(0)"/><path class="f" d="M68.25,205.83c-.14-.7-.75-1.47-2-2.36l-.06.06-.19-.05C66.12,204.51,67.65,205,68.25,205.83Z" transform="translate(0)"/><polygon class="f" points="66.21 203.09 66.2 203.09 66.23 203.34 66.24 203.33 66.21 203.09"/><path class="f" d="M73.64,208.13l.8-.4a8.51,8.51,0,0,1,.6-2,1.14,1.14,0,0,0-.1.19l0-.1c-.2.73-.47,1.29-.56,1.85a3,3,0,0,0-1.76-2.91,3.38,3.38,0,0,0-1.4,1.54l2.26,1.87a1.9,1.9,0,0,1,1.28,1.6A1.5,1.5,0,0,0,73.64,208.13Z" transform="translate(0)"/><path class="f" d="M71.7,202.84l-.26.39-.55.11h.52l.32-.49Z" transform="translate(0)"/><path class="h" d="M99.61,61.28a1.3,1.3,0,0,0-.44,0h0A1.61,1.61,0,0,1,99.61,61.28Z" transform="translate(0)"/><path class="h" d="M101.54,70.53l.08-.06L99,63.06l-2.14-.93-1.7,3.2-1.3-.2a8.72,8.72,0,0,1-1,5.11C95.75,70.89,98.71,71.57,101.54,70.53Z" transform="translate(0)"/><polygon class="h" points="102.84 62.13 102.84 62.13 102.84 62.13 102.84 62.13"/><polygon class="i" points="89.44 70.41 90.05 71.59 90.09 71.55 89.44 70.41"/><path class="i" d="M89,69.53a34.55,34.55,0,0,1,3.88.71,8.72,8.72,0,0,0,1-5.11l1.3.2,1.7-3.2,2.14.93-.44-1.23a1,1,0,0,1,.63-.5h0a1,1,0,0,0-.63.5,11.43,11.43,0,0,0-5.25-2.48,14.59,14.59,0,0,1-4.36.36l-.09,0-.28,1q-.14,1.14-.3,2.22a2.21,2.21,0,0,1,.82.34c1-2,3.49-1.77,3.66,1.28-.07,1.41-.64,2.17-1.33,2.44-.32.54-.7,1.14-.87,1A18.05,18.05,0,0,0,87.76,66c-.05.3-.08.58-.11.83C89.45,67,88.35,68.77,89,69.53Z" transform="translate(0)"/><path class="e" d="M91.41,67c.69-.27,1.26-1,1.33-2.44-.17-3.05-2.71-3.29-3.66-1.28a2.21,2.21,0,0,0-.82-.34c-.18,1.13-.37,2.19-.5,3.09a18.05,18.05,0,0,1,2.78,1.93C90.71,68.11,91.09,67.51,91.41,67Zm-2-1.74c-.1-1.4,1.4-1.4,1.4,0S89.44,66.63,89.44,65.23Z" transform="translate(0)"/><polygon class="j" points="99.38 160.21 100.94 159.43 99.38 160.21 99.38 160.21"/><path class="j" d="M130.53,144l0-.06h0S130.54,144,130.53,144Z" transform="translate(0)"/><path class="j" d="M130.91,145.34a4.53,4.53,0,0,0,.77-1.59l-.63.11A9.37,9.37,0,0,1,130.91,145.34Z" transform="translate(0)"/><path class="j" d="M121.14,152c-.46-.53-.8-1-1.21-1.47h0l-.07,0c.38.56.79,1.22,1.19,1.84a7,7,0,0,1,4.49-1.49,1.64,1.64,0,0,1-.66,1.6,1.67,1.67,0,0,0,.86-1.7,6.81,6.81,0,0,0,.58-1.3,6.62,6.62,0,0,1-.78.9A6.46,6.46,0,0,0,121.14,152Z" transform="translate(0)"/><path class="d" d="M123,100.39l-.7.44.7.8c-.06.72-.09,1.45-.12,2.18l.41-.07C123.2,102.59,123.09,101.47,123,100.39Z" transform="translate(0)"/><path class="e" d="M70.14,90.63l-.06-.12c-1.41-1.69-2.46-3.45-5-3.08l-.14.11.44,1.59,2.3-.2C67.44,91.23,68.74,91.13,70.14,90.63Z" transform="translate(0)"/><path class="k" d="M77.1,95.55l.13,0-.12,0Z" transform="translate(0)"/><path class="k" d="M79.94,96.33c0-.15,0-.34.07-.52-.85-.25-1.76-.6-2.29-.75l-.38.57a19.73,19.73,0,0,0,3,.81v0Z" transform="translate(0)"/><path class="j" d="M37.83,70.85l-.09-.12.07.08a9,9,0,0,1-.49-1c-1.36,2.17,0,3,1,4.56l-.09.75.09,0,1,1.36c.6.6,2.09,2.15,3,3.26l.72.06c-2.46-2.83-2.44-4.38-3.95-7A12.5,12.5,0,0,1,37.83,70.85Z" transform="translate(0)"/><path class="l" d="M76.54,58.43c0,.06-.11.1-.26.13a7.45,7.45,0,0,1,1.21.32l1.07-3.21a5,5,0,0,1,.88-2.54c.9-.8,5.6-1.3,6.2-1.1l.19.1h0s0,0,0,0a13.09,13.09,0,0,0-1.5-.75l-3.14,0C78.82,52.93,78,55,76.74,57.83c-.14.05-.4.11-.67.17C76.38,58.18,76.57,58.33,76.54,58.43Z" transform="translate(0)"/><path class="m" d="M36.65,65.3c2.7-3.25,13.72-3.73,20-2.51A7.21,7.21,0,0,0,58,62.43v-.5H47.64v-.7a22.79,22.79,0,0,1,13-.34A10.81,10.81,0,0,1,61,59.53c-9.18.7-19.46-.89-26.95,5.4V71c.4.6,1.7,2.6,2.4,2.9,0-.1,0-.22,0-.33C35.5,71.56,33.28,67.51,36.65,65.3Z" transform="translate(0)"/><path class="m" d="M60.84,60.91h0Z" transform="translate(0)"/><path class="n" d="M117.94,248.73c-.7-1.4,1.4-4.1,2.8-4.9-15.9,4.3-32.9,6.7-49.2,3.9a8.22,8.22,0,0,0,3.4,1.6v.7l-3,.3c.37.82.68,4.44.94,8.66l4.09.1q3.94.06,8,.06,3.17,0,6.27,0c3.23,0,6.4-.11,9.48-.21l3.21-.12c5.13-.21,10-.51,14.46-.88.14-3.85.26-7,.35-7.23A2.19,2.19,0,0,0,117.94,248.73Z" transform="translate(0)"/><path class="d" d="M44.77,117.59l5.55-1a1.78,1.78,0,0,1,.82-.58v-.5c-3.1-3.8-1.6-4.3,4.2-10.6,1.8-1.9,2.91,3.3,6.31,2.8h0c.3-2.87.59-5.73,1-8.7l-2.3-.2a22.77,22.77,0,0,1,.07-5.45l-2.55-5-.52-.29h0c-2.21,1.51-5.83,4-8.1,5.33-2,.2-2,2.1-2.8,3.2l-.22,1.81c-.16,1.36-.31,2.69-.48,4.07a.87.87,0,0,1,.1-.08c.2.1.3,1.1.9,1.1-.5,1.3-1,5.7-2,5.9a3.21,3.21,0,0,0,0-.44c-.16,1.71-.28,3.43-.5,5.14,0-.08,0-.16,0-.24,0,.51-.05,1-.06,1.44,0,.08,0,.16,0,.23s0-.08.05-.13A17.91,17.91,0,0,1,44.77,117.59Z" transform="translate(0)"/><path class="o" d="M108.64,183.33h-.09a1.63,1.63,0,0,0,.22.83A5.19,5.19,0,0,0,108.64,183.33Z" transform="translate(0)"/><path class="o" d="M103.14,178.83c2.6.9.5,2.6.6,4.2-4.2.9-6.24-2.4-8.55-5.48-2.6-3.5-5.15-8.32-.75-11.72-1-3.05-5.82-4.26-8.36-6.39h-.84a6.53,6.53,0,0,0-.66-.31l-5.64.51,0,0-.06,0a2.91,2.91,0,0,0,0,.3l-.64.51h0v1.1l-.17.14.16.63c1.41,1,11.72,8.74,12.31,9.13-2.6,3.2,1.6,5.9,1,8.9l-.16-.23c.88,2.25,3.16,6.46,3.56,7.33.16.42.29.84.41,1.26a.26.26,0,0,1,.42.15,25.1,25.1,0,0,0,2.73,8c.5-.16,1.15.08,1.44-.31,1.5-1.41,4.33-2.28,6.14-1.29.56-1.4,1.73-2.78,2-4.21.45-1.64-1.4-4.18.6-4.93a.15.15,0,0,0,0-.07l0-.95a4.54,4.54,0,0,1-.26-1.75c-1.58.2-1.41-1.63-1.9-2.8s-3.7-8.1-4.1-8.9l-1.5.1C101.74,174.13,102.44,176.53,103.14,178.83Zm3.7,11.5c-3.5.8-3.9-1.3-3-4.7C106.94,185.63,107.74,187.43,106.84,190.33Z" transform="translate(0)"/><path class="c" d="M72,250.33l3-.3v-.6a7.31,7.31,0,0,1-3.4-1.7,92.74,92.74,0,0,1-24.6-5c2.5,2.4,3.7,6.3,6.8,7.7v-2.1l4.2.4a4.22,4.22,0,0,0-.2,1.15c0,.25.07,4.1.22,8.47,3,.19,6.1.35,9.33.47l1.18.05,2.29.07,2.11.05c-.26-4.23-.57-7.84-.93-8.66Z" transform="translate(0)"/><path class="p" d="M57.94,248.73l-4.2-.4v2.1c-3.1-1.4-4.4-5.3-6.8-7.7-1-.3-3.3-1.4-4.3-1.8A25.11,25.11,0,0,0,43,247.4c.18,1.13.38,5.06.52,9.72,4,.44,8.31.83,13,1.14l.15-8.13.3.3-.26,7.84,1.27.08c-.14-4.36-.2-8.21-.21-8.47A4.22,4.22,0,0,1,57.94,248.73Z" transform="translate(0)"/><path class="q" d="M62,195.93c3.63.06,3.17-4.53,4.65-7l.6.1,1.3,3,.7-.1c0-.15,0-.31,0-.47,0-2.07-1.27-5.32.17-6.83,2.3-1.9,1.9-5,3.6-7.1a2.79,2.79,0,0,0,.51-1.39,7,7,0,0,0,0-.8c0-.27,0-.54,0-.81,1.58-2.18-.46-2.69.48-5.13-.76-.56-1.49-1.12-2.17-1.65l-2,1.18c-.1.1-.2.17-.3.26h0l.4-.27a109.7,109.7,0,0,1-5.78,11.65c-.26.53-.53,1.08-.82,1.65s-1.1,1.27-1.12,2.09a1.82,1.82,0,0,0,.32.91.15.15,0,0,1,0,.09h0c.19.1-.63,1-1.14,1.63l-.06.07-1.6,3.6c.2.9.4,2,.6,3a8.71,8.71,0,0,1,1.57,2.18Z" transform="translate(0)"/><path class="c" d="M126.34,245.43l3-2v-3.2l-2.6.5v.3l0,0a.45.45,0,0,0,0,.08l-.11,0a8.48,8.48,0,0,1-5.69,2.68c-1.6.9-3.3,3.5-2.8,4.9.84.79.9,1.38.67,1.94-.09.2-.21,3.38-.35,7.23,3-.24,5.9-.52,8.57-.83l1.8-.21C128.9,251,128.6,245.79,126.34,245.43Z" transform="translate(0)"/><path class="r" d="M107.64,104.83s0,.08,0,.12c0-1.13-.07-2.5,0-3.58a.59.59,0,0,1,.38-.46c1.64-.72.56-1.85.47-3-.09-.61-.21-1.76-.29-3.09-.55,1.23-1.17,2.45-1.83,3.69A10.91,10.91,0,0,0,107.64,104.83Z" transform="translate(0)"/><path class="r" d="M119.54,150.13a5.22,5.22,0,0,1,.39.43c.41.46.75.94,1.21,1.47a6.46,6.46,0,0,1,4.4-1.6,6.62,6.62,0,0,0,.78-.9,11.31,11.31,0,0,0,.31-4.89l-4.06.72C122.59,147.21,123,148.09,119.54,150.13Z" transform="translate(0)"/><path class="r" d="M112.84,89.93c.76,1.14-.19,1,1.58.75a.57.57,0,0,1,.53.18,4.3,4.3,0,0,1,.79,1.92c.9,1.57,3.23,5.75,3.85,7.06l.15.19-.5.1a18.37,18.37,0,0,1,.54,4.23l3.14-.55c0-.73.06-1.46.12-2.18l-.7-.8.7-.44a24.27,24.27,0,0,1,.1-4l-2.4-3.9-5.9-3.1c-.18,0-3.7-2.28-4.53-2.35v.06A8.11,8.11,0,0,1,112.84,89.93Z" transform="translate(0)"/><path class="s" d="M107.14,202.93l-4.3,1.4-.1-.12-3.5-.78,0,0c-1.13,3.47,1.7,6.94.12,10.12l.1-.1c1.3.57,1.67,1.94,1.77,3.3,0,.07,0,.15,0,.23a1.48,1.48,0,0,1,0,.21c0,.09,0,.17,0,.26l2,.4a3.83,3.83,0,0,1,3.31-2.29h0l.77-.07h.05a13.08,13.08,0,0,0,3.34-.43c-.24-.24-.5-.46-.74-.69-.76-.72-1.34-1.47-.52-2.71-2.63-.26-8,2.28-8.44-1.2,2.37-1.28,5.91.06,8.5-.29.33-.59.66-1.24,1-1.9l-1.29.09h0a8.21,8.21,0,0,1-2.72.15l-5.78.45c.85-2.55,2.13-2.06,3.11-1.68l.49.18,4.3-.3,2-1.29-6,.59v-1.2h6c0-.61.08-1.5.08-1.7-.6-.5-1-.8-1.6-1.3l-2.06.63Z" transform="translate(0)"/><path class="t" d="M69.52,169.21l0,0c.1-.09.2-.16.3-.26l2-1.18-.41-.32,1.6-1.6a2.91,2.91,0,0,1,.73-.28,2.32,2.32,0,0,0-.63.18l3-2-.44-.71c-2.56.61-3.9-1.64-5,1.67l-1.06-.9-4.06.14-1.78,1.16c0,2.3-1.2,2.7-6.5,2.6l3.58,1.69-.58.51h-3.3c3.84,1,8,2.3,11.45.13a.5.5,0,0,0,0-.13ZM62.64,168l6.8-1.4C67.34,168.63,65,169.58,62.64,168Z" transform="translate(0)"/><path class="q" d="M107,199.13c-3,1.5-6.3,1.53-8.49-2.27l0,0a25.1,25.1,0,0,1-2.73-8,.26.26,0,0,0-.42-.15l-.06.05a8.85,8.85,0,0,0,1.5,11.71c1.48.6,2.87,1.49,4.35,2-.5-2.4,2.5-1.3,3.8-2.1l2,2.53,2.06-.63.3-.8-2.3-2.4h0Z" transform="translate(0)"/><path class="r" d="M132,64.33l0,0,.08.07Z" transform="translate(0)"/><path class="r" d="M132.14,64.41c-.3,1.3-1.2,2.32-1.4,3.62l-2.2,5.5c-.84,1.68-1.75,3.52-3.61,4h0l-1.9,2.3c-1.5,3.1-5.5,1.9-7.9,4.3l1.7,1.1,2.3-.5,7.8-6.3c2.7-3.5,5.6-8,6.4-12.3C131.72,66.42,132.73,65,132.14,64.41Z" transform="translate(0)"/><path class="r" d="M102.84,62.13h0l.06.21a8.79,8.79,0,0,0,2.34-2.41l.78.23c-.3,1.5-.28,4,.72,5a12.84,12.84,0,0,1,4.38,4.52,10.61,10.61,0,0,1-.18-2l-.06-.11h-1.14c-.89-1.29-4.42-4.24-1.67-5.17,1.06-3.46,6.41-2.34,10.27-2.12V58.82l-14.81-.09.77-.09H103l.07.1Z" transform="translate(0)"/><path class="u" d="M109.77,186.73c1.14,3.51-2.17,6.86-2.63,10.3l2.3-1c.58.5-1.1,1.7-1.8,2.4l-.43.5-.07.1,2.1,2.19c3.6-2.7,6.5-10,1-14.69h-.18a1.36,1.36,0,0,1,0,.2Z" transform="translate(0)"/><path class="v" d="M59.14,210.63a.44.44,0,0,1,0,.15l1.14-.72a4.39,4.39,0,0,1-.59-.73v0c-2.19-.18-2-1.72-1.41-3.18.8-1.4,2.6-1.6,2.8-3.7l-7,6.4c-4,.9-5.1,4.9-6.8,8l1.21,1.44C48.72,213.46,52.22,210.24,59.14,210.63Z" transform="translate(0)"/><path class="v" d="M48.82,218.59l-.15-.06.06.08Z" transform="translate(0)"/><path class="l" d="M60.82,169.42l-3.58-1.69c5.3.1,6.5-.3,6.5-2.6L65.52,164l-.43,0-3-1.46c-.09.34.17.71.25,1h0l-.24,2.59c-2.62.68-2.76-.05-3-2.3h-.22L57,163.16l-2.75.67a1.51,1.51,0,0,1,0,.3L54,164l.27.24-2.55.91a1.71,1.71,0,0,1-.15.59h-.89c.74.91,1.43,2,2.19,2.8a6.51,6.51,0,0,0,3.07,1.31l.83.09h3.5Z" transform="translate(0)"/><path class="w" d="M129.54,224.39l-.62.51-.78.73-.1,0,.18,2,0,0c2.7,1.4,7.2,4.9,4.3,7.9l-4.9-2.5-.2-.1c1.4,1.9,3.7,3.7.4,5-.37,0-.73.08-1,.09,0,0,0,.08,0,.11l-1.3.2c-.13,0-.24,0-.35,0l.06.1a2.58,2.58,0,0,1,.29,0,13.35,13.35,0,0,0,.73,1.58l.47.72,2.6-.5,1.1-.92-.3-.28c1-1.14,3.06-4.78,5.41-4.73-.11-1-.24-1.9-.31-2.87a8.09,8.09,0,0,1-2.14-1.2A8.2,8.2,0,0,1,129.54,224.39Z" transform="translate(0)"/><path class="f" d="M42.64,240.73l-1.8-1.1c-2.4.1-.8,1.5-.7,2.3.12.65.28,1.32.45,2,.38,1.23.84,2.53,1.15,3.71l-1.5-.33c-.08.82.15,4.84.29,9.44l2.94.36c-.14-4.66-.34-8.59-.52-9.72A21.41,21.41,0,0,1,42.64,240.73Z" transform="translate(0)"/><path class="p" d="M132.13,244.64a1,1,0,0,1-.39,0c-2.57-.38-.89-2.48-.72-4.06l-1.68-.34v3.2l-3,2c2.26.36,2.56,5.61,2.49,11.43l2.91-.39c.16-5.25.32-9.91.4-11C132.13,245.16,132.13,244.9,132.13,244.64Z" transform="translate(0)"/><path class="x" d="M130.14,239l.3.28,3.2-2.68c-.4.73-.82,1.56-1.26,2.34,2.39,2.21,1.25,5.47-.25,5.67,0,.26,0,.52,0,.79,1.31,0,1.68,5,1.77,10.71.38-.06.76-.11,1.13-.18l.74-.12,8.61-4.89c0,.09-5.25-10-5.23-9.9l-1.5-4.92-1.72-1.8a2.56,2.56,0,0,0-.39,0C133.2,234.25,131.09,237.89,130.14,239Zm5.4-2.9c0,.09,0,.22.06.34a10.17,10.17,0,0,1,.24,1.76l-.11,0-1.59-.66Z" transform="translate(0)"/><path class="w" d="M40.24,247.32l1.5.33c-.31-1.18-.77-2.48-1.15-3.71a17.42,17.42,0,0,1-.55-2.11c-.1-.7-1.6-2.1.7-2.3l-.28-.56a4.57,4.57,0,0,1-.82-1.44L38,236c-.32,2.87-12.43,8.91-12.17,17.38.57.08,13.12,3.16,13.71,3.24l1,.12C40.39,252.16,40.16,248.14,40.24,247.32Z" transform="translate(0)"/><path class="j" d="M123.39,155l.44-.35-1.69-1.52c.35-.07.74-.11,1.13-.16a9.89,9.89,0,0,0-1.63.26c-.17-.26-.35-.45-.52-.69a10.43,10.43,0,0,0,.62.89c-.5,1.9-2.1,2.7-3.6,3.9.8.4,1.9.6,2.1,1a10.15,10.15,0,0,0-.72,4.71h0l.2-.2c.6-2.9,3.1-3.2,5.5-3.8h0l.6-.6c.52-.54,1.11-.84-.3-2.3a4.8,4.8,0,0,1-.55-.44,2.37,2.37,0,0,0,.1.81Z" transform="translate(0)"/><path class="l" d="M119.54,163h0c0,.07,0,.13,0,.19l-2.5,1.4.2-2.8-.72.22.12,0a5.71,5.71,0,0,1-4.47,3.92l.58.35a19.38,19.38,0,0,1,3.79-1.57l.4.6c-.63,1.26-2.53,1.85-3.26,3.18a3.07,3.07,0,0,0-.24.62c3.9.3,6.9-2.4,9-5.4l-2.7-.9Z" transform="translate(0)"/><path class="d" d="M118.35,58.82v1.41h.1c4.65.4,9.1.58,13.56,4.07l0,0,0,0,.06,0h0c.59.57-.42,2,1.2,1.72C135,61,127,60,124,58.77l-2.9.06Z" transform="translate(0)"/><path class="d" d="M42.24,79.73l.19,0c-1-1.11-2.44-2.66-3-3.26l.35.44c-.16.33-.65.27-.88.45a1.85,1.85,0,0,1,1.49,2,6.37,6.37,0,0,1,0,.87l.8,1.1c3.57,2.38,6.45,6.23,11.17,6.2C51.6,83.44,44.12,83.4,42.24,79.73Z" transform="translate(0)"/><path class="i" d="M50.15,222.56l2.61.66L52.34,222c2.8-.2,5.1-.1,7.8-.4l.71,0c-2.46-.35-4.78-.81-6.38-1.12-2.32-.22-4.78-.9-5.93-1.92l.19,0-.06-.08-.23-.1c0-.05,0-.1,0-.15l-1.31-1.55a12,12,0,0,1-1.7,4.9l2.91.38a.19.19,0,0,0,0-.08Z" transform="translate(0)"/><path class="l" d="M65.34,48.13A19.56,19.56,0,0,1,68,46.33H66.64a15.79,15.79,0,0,0-6.2,4.5c1.39.8,3.08,1.59,3.69,3.07.92-1.21,1.9-2.35,2.81-3.37Z" transform="translate(0)"/><path class="u" d="M62.22,184.32c0-.87.74-1.5,1.12-2.19l.82-1.55a109.7,109.7,0,0,0,5.78-11.65l-.4.27h0l-1.08.72a.5.5,0,0,1,0,.13c-2.14,6.95-9,13.12-8.65,20.47l1.6-3.6a15.91,15.91,0,0,0,1.19-1.61.15.15,0,0,0,0-.09A1.82,1.82,0,0,1,62.22,184.32Z" transform="translate(0)"/><path class="l" d="M122.42,218.28a7.55,7.55,0,0,1,2.36,2.38,8.26,8.26,0,0,1,1.16,3.77,2,2,0,0,1-1.65,1.37l-.05,0H124v.38c.58-.11,1.47-.25,2.3-.39v-2.69a10,10,0,0,0-3.9-5.9.19.19,0,0,1-.3-.1l-3.3-1.4a.37.37,0,0,1-.3-.1l-.88.59-.32.21A14.38,14.38,0,0,1,122.42,218.28Z" transform="translate(0)"/><path class="j" d="M123,79.83c-3,1.8-8.8,2.3-10.5,2.7a.57.57,0,0,1-.7-.4s0-.09,0-.14c-.07.87-.18,1.75-.26,2.64,1.9.9,3.1,1.4,5.3.6l-1.7-1.1C117.54,81.73,121.54,82.93,123,79.83Z" transform="translate(0)"/><path class="f" d="M132.14,245.43c-.08,1.13-.24,5.79-.4,11l2.17-.33C133.82,250.47,133.45,245.48,132.14,245.43Z" transform="translate(0)"/><path class="b" d="M44.74,109c0-1.63-.6-5.3,1-6.48.17-1.38.32-2.71.48-4.07l.22-1.81c-2.1,3.6-1.7,8.2-3,12.2-.19,1.72.52,3.35.76,5.06,0,.08,0,.16,0,.24C44.46,112.42,44.58,110.7,44.74,109Z" transform="translate(0)"/><path class="m" d="M123,100.39c0,1.08.16,2.2.29,3.35l1.58-.28c-.59-2.39-1.18-4.75-1.77-7A24.27,24.27,0,0,0,123,100.39Z" transform="translate(0)"/><path class="y" d="M130.57,144l0,.06a28.59,28.59,0,0,1-2.59,5.82,14.73,14.73,0,0,1-3.9,5l-.21-.18-.44.35,1.7,1.5a2.37,2.37,0,0,1-.1-.81,3.16,3.16,0,0,1,1.4-2.29,14.11,14.11,0,0,0,4.52-8.06,9.37,9.37,0,0,0,.14-1.48Z" transform="translate(0)"/><path class="u" d="M63.07,202.74l2.87.49a1,1,0,0,0,0,.25l.19.05.06-.06-.06,0,.09-.09,0-.25a1.65,1.65,0,0,0-.36,0,12.35,12.35,0,0,1-4-7.2H62a.61.61,0,0,0-.05-.12,8.71,8.71,0,0,0-1.57-2.18c.1,3.1,3.6,6.2.7,8.8h2.2A3.07,3.07,0,0,0,63.07,202.74Z" transform="translate(0)"/><path class="m" d="M119.74,162.83l2.7.9,2.8-4.7h0C122.84,159.63,120.34,159.93,119.74,162.83Z" transform="translate(0)"/><path class="b" d="M44.24,115.43s0,.09-.05.13a13.11,13.11,0,0,0-.62,2.24l1.2-.21A17.91,17.91,0,0,0,44.24,115.43Z" transform="translate(0)"/><path class="e" d="M40.6,229.64c-.05,1.75.32,3.72.14,5.39l-.11,0a8.88,8.88,0,0,0,.18,1.11l1.43-.29c-3.19-5-.2-6.92,3.63-8l-2.43-.09,0-.11L41,227.34l-.11,0-.29,1.55a1.85,1.85,0,0,0,0,.23Q40.61,229.37,40.6,229.64Z" transform="translate(0)"/><path class="x" d="M101,210.43c.4,3.48,5.81.94,8.44,1.2h.06l.1-1.5h-.1C107,210.49,103.41,209.15,101,210.43Z" transform="translate(0)"/><path class="e" d="M44.57,224.16l3.68-.79.2-.34h0a4,4,0,0,1-.06-.91l-2.94-.39-3,2,2.2.2Z" transform="translate(0)"/><path class="x" d="M44.24,224.23l.33-.07.07-.23-2.2-.2-1.5,3.6H41l2.43.28C43.75,226.55,44,225.3,44.24,224.23Z" transform="translate(0)"/><path class="e" d="M110.74,205.23v.6h-.12l-2,1.29c.1.4.49.8.6,1.2l1.29-.09h.21c1.2-1.3,2.5-4.4,0-4.7,0,.2,0,1.09-.08,1.7Z" transform="translate(0)"/><path class="p" d="M40,234.63h.57a3,3,0,0,1,.09.38l.11,0c.18-1.67-.19-3.64-.14-5.39q0-.27,0-.48a1.85,1.85,0,0,1,0-.23l-2.2,2.8.2.6-.6,1.1v1h1.9Z" transform="translate(0)"/><path class="l" d="M118.35,58.82h2.79l2.9-.06h0a77.73,77.73,0,0,0-19.76-.13l-.77.09Z" transform="translate(0)"/><path class="f" d="M40.24,237.13h.1c0-.17-.05-.33-.07-.5h0c-.1-.7-.2-1.3-.3-2h0l0-.2H38l-.1,1.5L38,236l1.61,1.51Z" transform="translate(0)"/><path class="n" d="M108.84,184.43l.7,1.6h-.05a5,5,0,0,1,.28.69H110a1.36,1.36,0,0,0,0-.2c.13-1-.83-1.56-1.29-2.37a1.63,1.63,0,0,1-.22-.83s0-.06,0-.1v.1a4.54,4.54,0,0,0,.26,1.75Z" transform="translate(0)"/><path class="m" d="M38.86,77.38c.23-.18.72-.12.88-.45l-.35-.44-1-1.36-.09,0-1.51-.75h0c.38.94,1.37,2.92,1.9,3.16V78l1.7,1.6c0-.09,0-.18,0-.27A1.85,1.85,0,0,0,38.86,77.38Z" transform="translate(0)"/><path class="w" d="M135.84,238.23a10.17,10.17,0,0,0-.24-1.76c0-.12,0-.25-.06-.34l-1.4,1.4,1.59.66Z" transform="translate(0)"/><path class="z" d="M37.83,70.85a12.5,12.5,0,0,0,1.37,2A22,22,0,0,0,37.83,70.85Z" transform="translate(0)"/><path class="z" d="M52.74,78l3.14-3.13.36-1.37.19,0a0,0,0,0,0,0,0c-5.1-3.1,2-4.9,4.2-7.5,1.35-1.45-.64-2.59-4-3.24-6.28-1.22-17.3-.74-20,2.51a.71.71,0,0,1,.09-.07l.6,4.5,0,0a9,9,0,0,0,.49,1C47.12,82.45,43.16,66.46,52.74,78Zm0-15.1c-3.6.6-7.3.3-10.9.4C45.44,61.93,49,62.83,52.74,62.93Z" transform="translate(0)"/><path class="d" d="M38.25,75.08l.09-.75c-1-1.59-2.38-2.39-1-4.56l0,0-.6-4.5a.71.71,0,0,0-.09.07c-3.37,2.21-1.15,6.26-.21,8.3a7.67,7.67,0,0,1,.3.73h0Z" transform="translate(0)"/><path class="d" d="M52.74,62.93c-3.7-.1-7.3-1-10.9.4C45.44,63.23,49.14,63.53,52.74,62.93Z" transform="translate(0)"/><path class="b" d="M79.86,111.4c1.7-2.17-.2-4.07.08-6.57a.34.34,0,0,1,0-.1c-1.26-.79-1.49-2.46-2.28-2.79h0a.79.79,0,0,0-.51,0c.42-.09,1.16-.23,2.08-.37a4,4,0,0,1-.94-.4h-.44l-.3-.5c-6,0-9.23-5.53-13.19-9.34a22.12,22.12,0,0,0,10.12,10.15c.09,0,.18.07.27.09l-.14,0,.44.22-3.1-.1c.1,3.2-.4,10.8-5.2,7.1-1.2-.6-1.9-2.1-3.5-1.1a4.09,4.09,0,0,1-1.59.2,1.41,1.41,0,0,1,0,.2c0,2.15.82,4.22,1.22,6.37Z" transform="translate(0)"/><polygon class="b" points="61.65 107.73 61.65 107.73 61.65 107.73 61.65 107.73"/><path class="y" d="M61.65,107.83a4.09,4.09,0,0,0,1.59-.2c1.6-1,2.3.5,3.5,1.1,4.8,3.7,5.3-3.9,5.2-7.1l3.1.1-.44-.22-.13-.07A22.12,22.12,0,0,1,64.35,91.29c-.24-.23-.47-.45-.71-.66a1.66,1.66,0,0,1-.31-.91l-6-8.09.7-.5,11,5.41c1.87.1,5.08.46,6.88-.17,5.55-3.21,5.18-9.25,5.45-15.64,0-.4.8-.8,1.1-1.1l1-.3A5.84,5.84,0,0,1,86,69.4a3.14,3.14,0,0,0-1.63-.75c-1,.26-1.94.07-3.88-.62,0-.1,0-.2,0-.3l0,.2a1.48,1.48,0,0,1-.31-.22l-.2.22h0l-2,3.18,0,0-.15.61a.38.38,0,0,1,0,.19c.1,1,.1,4.1-4.8,7.8-3.8,3.4-9.8.6-14.1-1.9l.06-.09L58.21,76l-.05-.07c-.11-.15-.22-.29-.32-.45h-.7a6.22,6.22,0,0,1-.67.86l-.22,6.64c2.19.11,2.2,2.77,3,4.22a6.59,6.59,0,0,1,1.2,6.28l0-.05a22.77,22.77,0,0,0-.07,5.45l2.3.2c-.4,3-.69,5.83-1,8.7h0Z" transform="translate(0)"/><path class="aa" d="M51.16,116.46l4.67-.82a15.24,15.24,0,0,1,1.58-5.11h1.13a31.64,31.64,0,0,0,1.71,4.33l1.71-.3a1.75,1.75,0,0,0-1.12-1.73c-.49-.25-.31-1.57-.29-2.65a2.45,2.45,0,0,1,.38-1.26l.71-1.09v.2a1.41,1.41,0,0,0,0-.2v-.1h0c-3.4.5-4.51-4.7-6.31-2.8-5.8,6.3-7.3,6.8-4.2,10.6v.5h0C51.15,116.17,51.15,116.32,51.16,116.46Z" transform="translate(0)"/><path class="r" d="M51.15,116h0a1.78,1.78,0,0,0-.82.58l.84-.15C51.15,116.32,51.15,116.17,51.15,116Z" transform="translate(0)"/><path class="m" d="M61.64,108v-.2l-.71,1.09a2.45,2.45,0,0,0-.38,1.26c0,1.08-.2,2.4.29,2.65A1.75,1.75,0,0,1,62,114.56l.9-.16C62.46,112.25,61.63,110.18,61.64,108Z" transform="translate(0)"/><path class="i" d="M57.86,88.39v0l1.37-1.24,0,0c-.79-1.45-.8-4.11-3-4.22v.15a5.63,5.63,0,0,0,.4,1.55l-.7,2.3h0c.7.07,1.72-.2,1.43,1.16h0Z" transform="translate(0)"/><path class="b" d="M59.24,87.15l0,0-1.37,1.24v0l2.55,5,0,.05A6.59,6.59,0,0,0,59.24,87.15Z" transform="translate(0)"/><path class="m" d="M44.74,109a3.21,3.21,0,0,1,0,.44c1-.2,1.5-4.6,2-5.9-.6,0-.7-1-.9-1.1a.87.87,0,0,0-.1.08C44.14,103.69,44.7,107.36,44.74,109Z" transform="translate(0)"/><path class="r" d="M66.84,62.93l.08,0,0,0,.64.29h0a8.25,8.25,0,0,1,6.69-4.72c-1.3-.14-3-.41-4.42-.72a42.65,42.65,0,0,0-4.86,2l-.07,0C66.74,60.33,66.24,61.93,66.84,62.93Z" transform="translate(0)"/><path class="j" d="M98.54,61.83,99,63.06l2.64,7.41c2.36-1.74-3-7.28.67-7.53l-.05-.11.66-.49-.06-.21h0c-1,0-2.25-.8-3.23-.85a1.61,1.61,0,0,0-.44,0A1,1,0,0,0,98.54,61.83Z" transform="translate(0)"/><path class="l" d="M79,41.68c.79-2.59.91-5.66,3.29-7.45h1.6c1.41,2.82,2.88,5.44,3.94,8.23-.83-3-1.58-5.43-2.42-8.63l-.19-1.2L84,30l-.38-.23,0,0c.24.68.25,2.48-1.29,2.66-1.76,0-1-1.25-.56-2.24-3,4.66-3.85,11-4.33,16.57l1.09-.3C77.32,44.93,78,43,79,41.68Z" transform="translate(0)"/><path class="s" d="M88.84,59.73l.09,0s-.07,0-.08-.07Z" transform="translate(0)"/><path class="s" d="M60.64,60.93h.2A12.67,12.67,0,0,0,65,59.78a42.65,42.65,0,0,1,4.86-2c-2-.42-3.67-.91-3.63-1.24,0-.5,3.8-.9,7.4.4A17.45,17.45,0,0,1,76.07,58c.27-.06.53-.12.67-.17,1.27-2.84,2.08-4.9,4.45-6.49h0l-.53-3A1.62,1.62,0,0,1,82,46.44c3.12-.19,6.11,2.61,2.38,4.92h-.06a13.09,13.09,0,0,1,1.5.75,4.05,4.05,0,0,1,.35.21,2.89,2.89,0,0,0-.35-.19l-.19-.1c-.6-.2-5.3.3-6.2,1.1a5,5,0,0,0-.88,2.54l.08-.24c2.25,1.76,2.39,9.36,1.83,12.3,0,.1,0,.2,0,.3,1.94.69,2.88.88,3.88.62a13.82,13.82,0,0,0,2.82-1.32h0l.5-.5h0c0-.25.06-.53.11-.83.13-.9.32-2,.5-3.09q.17-1.08.3-2.22c.31-2.88.24-5.83-1.31-7.55,2.23,1.46,1.81,4.25,1.61,6.42.21-.5,3.46-2.13,7.08-2.23,1.1,0,3.2.1,3.2.4s-3,1.14-5.85,1.62a11.43,11.43,0,0,1,5.25,2.48,1,1,0,0,1,.63-.5,1.3,1.3,0,0,1,.44,0c1,0,2.27.85,3.23.85h0l.2-3.4-.07-.1-2.23-3.4,3.9-2.6c-3.4-4.2-10.9-8-15.4-3.9a22.2,22.2,0,0,0-1.46-6.27c-1.06-2.79-2.53-5.41-3.94-8.23h-1.6C79.86,36,79.74,39.09,79,41.68c-1,1.3-1.63,3.25-.41,4.85l-1.09.3H76.24c-3.93-1.31-5.61-1.9-8.23-.5a19.56,19.56,0,0,0-2.67,1.8l1.6,2.4c-.91,1-1.89,2.16-2.81,3.37A19.62,19.62,0,0,0,61,59.53a10.81,10.81,0,0,0-.34,1.36Z" transform="translate(0)"/><path class="l" d="M88.85,59.64h0s0,0,0-.07c.2-2.17.62-5-1.61-6.42,1.55,1.72,1.62,4.67,1.31,7.55l.28-1Z" transform="translate(0)"/><path class="ab" d="M97.56,165.22c-2.12-.61-3.56-2.93-4.43-5.69a.46.46,0,0,0,.07.07l0-.07-7.09-.09c2.54,2.13,7.38,3.34,8.36,6.39-4.4,3.4-1.85,8.22.75,11.72,2.31,3.08,4.35,6.38,8.55,5.48-.1-1.6,2-3.3-.6-4.2-.7-2.3-1.4-4.7-2.1-7.1l1.5-.1-2-3.2-.06,0,.06.12A5.31,5.31,0,0,1,97.56,165.22Z" transform="translate(0)"/><path class="ab" d="M87.44,174a1.51,1.51,0,0,0-.44-.1Z" transform="translate(0)"/><path class="ab" d="M76.31,163.87c-.19,1.63-1.52,1.52-2.54,1.68a2.91,2.91,0,0,0-.73.28l-1.6,1.6.41.32c.68.53,1.41,1.09,2.17,1.65,0,0,0-.05,0-.07,1.9,1.3,4,2.7,6.4,3l-.31-.58c-1.2-2.1-2.49-3.52-2.89-6,1.3.8,2.1,1.6,3.3,2.4,2.3,1,2.4,1.3,3.7,3.5l-2.2.9a3.76,3.76,0,0,0,.59.39c1.4.7,3.33.42,4.81,1.11.77,2.31,2.74,4.07,4,6.07l.16.23c.6-3-3.6-5.7-1-8.9-.59-.39-10.9-8.12-12.31-9.13v0C77.67,162.91,76.91,163.39,76.31,163.87Z" transform="translate(0)"/><path class="q" d="M92.66,154.29l-.12-.06-.76-.38c-4.21.65-8.61,0-12.73,1.25.15,1.48-.19,3.2-.12,4.53l.06,0c1.53-1.46,5-1.84,6.55-.56l-1,.09a6.53,6.53,0,0,1,.66.31h.84l7.09.09-.23-.7C92.74,157.33,92.86,155.79,92.66,154.29Z" transform="translate(0)"/><path class="s" d="M75.73,161.37c-2,.51-2.9,0-3.68-1.37v0l-1-.5c-1.5,3.2-6,5.2-9.1,2.2l0-.26-.49.06c0,.09,0,.2,0,.3l-2.1.7v-.17L56.8,163l.34.14-.13,0,1.93.67h.22l0-.19,3.25-.1c-.08-.29-.34-.66-.25-1l3,1.46.43,0,4.06-.14,1.06.9c1.15-3.31,2.49-1.06,5-1.67l-.15-.23,2.5-1.7.13.54.17-.14v-1.1h0l-.36.29A3.74,3.74,0,0,1,75.73,161.37Z" transform="translate(0)"/><path class="ab" d="M107,199.13l.08-.09.09-.11.43-.5-1.2-1.2-.57-.6a3.68,3.68,0,0,1,.31-1.39c-1.81-1-4.64-.12-6.14,1.29-.29.39-.94.15-1.44.31l0,0C100.74,200.66,104,200.63,107,199.13Z" transform="translate(0)"/><path class="m" d="M79.05,155.1l-.11,0a7,7,0,0,1-.43-1l-.12.2a3.44,3.44,0,0,1-3.85,1.56l-.4.4c.5,1.4.9,2.8,1.4,4.3l-1.6.4,2.3.2c-.18.06-.34.09-.51.14a3.74,3.74,0,0,0,2.21-.64l.36-.29.64-.51a2.91,2.91,0,0,1,0-.3C78.86,158.3,79.2,156.58,79.05,155.1Z" transform="translate(0)"/><path class="q" d="M106.44,197.23l1.2,1.2c.7-.7,2.38-1.9,1.8-2.4l-2.3,1c.46-3.44,3.77-6.79,2.63-10.3a5,5,0,0,0-.28-.69l-.75.19v-.13h0c-2,.75-.15,3.29-.6,4.93-.23,1.43-1.4,2.81-2,4.21a3.68,3.68,0,0,0-.31,1.39Z" transform="translate(0)"/><path class="ab" d="M106.84,190.33c.9-2.9.1-4.7-3-4.7C102.94,189,103.34,191.13,106.84,190.33Z" transform="translate(0)"/><path class="u" d="M79,159.59l0,0,5.64-.51,1-.09C84,157.75,80.52,158.13,79,159.59Z" transform="translate(0)"/><polygon class="u" points="108.74 186.23 109.49 186.04 109.54 186.03 108.84 184.43 108.8 185.07 108.75 186.03 108.75 186.1 108.74 186.23"/><path class="c" d="M45.34,241.93c-.1-.5-.2-.8-.3-1.3l-.16,0,0,0-.06-.06c-1.26-.29-2.39-.73-2.62-2.23a6.85,6.85,0,0,1-.94-1l-.18-.18h-.8l-.6.4a4.57,4.57,0,0,0,.82,1.44C41.65,240.41,43.64,241.24,45.34,241.93Z" transform="translate(0)"/><path class="o" d="M66.14,202.53l5.66-.19c.56-1.2,1.62-1.3,3.34-3.21l.35-.07c-1.12.14-2.41.53-3.17-.62-1.94,1.8-4.49,3.12-7.28,1.49-1.1-3.3,2.6-4.1,3.4-6.9l5.11,3.6.35-.47c1.92-2.71,3.38-5.78,2.44-9.23-.9,2.7-2,5.6-3,8.5l-.7-.2c.12-.91.25-1.83.41-2.73h0l-.51-8.27c2.3-.3,2.5-.8,2-2.9l4.68-3c1-1.84,2.47-4.1,2.72-4.6l1.7.1-.13.18a28.37,28.37,0,0,1,3.49-.08,1.51,1.51,0,0,1,.44.1c-1.48-.69-3.41-.41-4.81-1.11a3.76,3.76,0,0,1-.59-.39l2.2-.9c-1.3-2.2-1.4-2.5-3.7-3.5-1.2-.8-2-1.6-3.3-2.4.4,2.5,1.69,3.92,2.89,6l.31.58c-2.4-.3-4.5-1.7-6.4-3,0,0,0,0,0,.07-.94,2.44,1.1,2.95-.48,5.13,0,.27,0,.54,0,.81a7,7,0,0,1,0,.8,2.79,2.79,0,0,1-.51,1.39c-1.7,2.1-1.3,5.2-3.6,7.1-1.44,1.51-.13,4.76-.17,6.83,0,.16,0,.32,0,.47l-.7.1-1.3-3-.6-.1c-1.48,2.47-1,7.06-4.65,7h-.15a12.35,12.35,0,0,0,4,7.2,1.65,1.65,0,0,1,.36,0h0Z" transform="translate(0)"/><path class="o" d="M71.83,202.69h0l-.09.14h0Z" transform="translate(0)"/><path class="f" d="M124,239.63a1.55,1.55,0,0,0,0,.31c0,.12,0,.25,0,.39h0a9.18,9.18,0,0,0,.12,1.21l2.59-.38.11,0a.45.45,0,0,1,0-.08,7.56,7.56,0,0,0-.45-1,13.35,13.35,0,0,1-.73-1.58,2.58,2.58,0,0,0-.29,0A1.29,1.29,0,0,0,124,239.63Z" transform="translate(0)"/><path class="aa" d="M119.93,150.56a5.22,5.22,0,0,0-.39-.43c.1.13.21.3.32.45l.07,0Z" transform="translate(0)"/><path class="aa" d="M117.61,149.58a6,6,0,0,1,1.93.55c3.46-2,3-2.92,3-4.77l-6.44,1.13C117.09,147.32,117.92,148.18,117.61,149.58Z" transform="translate(0)"/><path class="aa" d="M108.07,100.91a.59.59,0,0,0-.38.46c-.11,1.08,0,2.45,0,3.58,0,.08,0,.16,0,.24.33.36.66.76,1,1.13l3.68-.65a.88.88,0,0,1,1.16-.2l6.26-1.11a18.37,18.37,0,0,0-.54-4.23l.5-.1-.15-.19,0,.09c-3.8,0-4.1-6-4.1-7.5,0,.09.12.22.2.35a4.3,4.3,0,0,0-.79-1.92.57.57,0,0,0-.53-.18c-1.77.27-.82.39-1.58-.75a8.11,8.11,0,0,0-2.53-2.79,23,23,0,0,1-2.06,7.7c.08,1.33.2,2.48.29,3.09C108.63,99.06,109.71,100.19,108.07,100.91Z" transform="translate(0)"/><path class="b" d="M110.08,80.61a9,9,0,0,1-.71,1.52h0C108,86,104.81,89.49,102.74,93l.1,0c-.8,1.8,0,3.5.3,5.4.5-1.1.7-2.3,1.4-2.8,1.6-.8,1.3-2.6,1.8-3.9.52,2.23.18,4.52.08,6.8.66-1.24,1.28-2.46,1.83-3.69a23,23,0,0,0,2.06-7.7v-.06l0-.25v-.06a.33.33,0,0,1-.1.06C107.87,84.47,111.76,81.75,110.08,80.61Z" transform="translate(0)"/><path class="y" d="M109.84,76.23c-1.23,4.65-6.07,6-9.53,8.61,3.08-1.47,9.43-4.49,9.43-4.41.31-.15.38,0,.34.18,1.68,1.14-2.21,3.86.16,6.22a.33.33,0,0,0,.1-.06c.58-.42-.41-2,1.2-2.14.08-.89.19-1.77.26-2.64A35.15,35.15,0,0,0,109.84,76.23Z" transform="translate(0)"/><path class="j" d="M119.64,99.93l0-.09c-.62-1.31-3-5.49-3.85-7.06-.08-.13-.15-.26-.2-.35C115.54,93.93,115.84,99.93,119.64,99.93Z" transform="translate(0)"/><path class="t" d="M100.66,219.57c.49.8,1,2.07,1.38,2.86l.15-.13a.75.75,0,0,1,.25-.47c1.7-1.6,3.4-3.3,5.1-4.8,1.11-.65,2.65-.54,3.83-1.4a2.83,2.83,0,0,0,.37-.4l-1-.1a16.24,16.24,0,0,0-2,.65l-4.14,1.61c-.62.25-1.12.45-1.38.54l-2-.4h0v.09C101.05,218.31,100.85,218.9,100.66,219.57Z" transform="translate(0)"/><path class="o" d="M102.74,204.21l.1.12,4.3-1.4-.06-.07-2-2.53c-1.3.8-4.3-.3-3.8,2.1l1.6,1.8Z" transform="translate(0)"/><path class="l" d="M98.58,214.92h.06c0,.66-.09,1.15-.1,1.79a.57.57,0,0,0,.1.41,1.89,1.89,0,0,0-.09.21,20.5,20.5,0,0,1,1.43,1.6l.66.69s0,0,0-.06c.19-.67.39-1.26.58-1.94v-.09c0-.12,0-.25,0-.37a1.48,1.48,0,0,0,0-.21c0-.08,0-.16,0-.23-.1-1.36-.47-2.73-1.77-3.3l-.1.1a2.09,2.09,0,0,0-.56.8A4.1,4.1,0,0,0,98.58,214.92Z" transform="translate(0)"/><path class="ab" d="M99.22,203.41l0,0,3.5.78.1,0-1.6-1.8c-1.48-.49-2.87-1.38-4.35-2l0,0Z" transform="translate(0)"/><path class="x" d="M104.34,207.43l-.5.6,3.3.4-.62,0a8.21,8.21,0,0,0,2.72-.15h0c-.11-.4-.5-.8-.6-1.2Z" transform="translate(0)"/><polygon class="ac" points="110.74 205.23 110.67 205.23 104.64 205.23 104.64 206.43 110.62 205.84 110.74 205.83 110.74 205.23"/><path class="w" d="M103.84,208l.5-.6-.49-.18c-1-.38-2.26-.87-3.11,1.68l5.78-.45.62,0Z" transform="translate(0)"/><path class="m" d="M62.64,168c2.4,1.55,4.7.6,6.8-1.4Z" transform="translate(0)"/><path class="f" d="M75.54,162.83l.15.23.44.71-3,2a2.32,2.32,0,0,1,.63-.18c1-.16,2.35-.05,2.54-1.68.6-.48,1.36-1,2-1.54v0l-.16-.63-.13-.54Z" transform="translate(0)"/><path class="v" d="M112.14,67.73a10.85,10.85,0,0,1,.67,1.43c2.13,1.27,8.58,0,10.93,3.77l7-4.9c.2-1.3,1.1-2.32,1.4-3.62h0l-.06,0L132,64.3c-4.46-3.49-8.91-3.67-13.56-4.07h-.1c-3.86-.22-9.21-1.34-10.27,2.12l.07,0,2.9,5.2h-.16l.06.11h0Z" transform="translate(0)"/><path class="k" d="M112.81,69.16a2.28,2.28,0,0,1-1,3h-.07l-.53,2.59c-.3.5-.9,1.4-1.4,1.5a35.15,35.15,0,0,1,2,5.76c0,.05,0,.1,0,.14a.57.57,0,0,0,.7.4c1.7-.4,7.5-.9,10.5-2.7-.18-1,.13-2.21,1.4-2.35.49-2.14.84-3,4.1-4l2.2-5.5-7,4.9C121.39,69.13,114.94,70.43,112.81,69.16Z" transform="translate(0)"/><path class="j" d="M124.44,77.48c-1.27.14-1.58,1.35-1.4,2.35l1.9-2.3h0c1.86-.48,2.77-2.32,3.61-4C125.28,74.52,124.93,75.34,124.44,77.48Z" transform="translate(0)"/><path class="aa" d="M102.29,62.94h.15c.37,0,.55.85.63,1.63l3.49,3.13.18.14h0l.1.09-.3.5-2.6-.6,0,0c.31.5.65,1,.91,1.35,1.6-.7,3.94,1.39,5.08,4.52.52.42,1,.79,1.34,1l.53-2.59-1,.09a3.21,3.21,0,0,0,.38-2.58,12.84,12.84,0,0,0-4.38-4.52c-1-1-1-3.47-.72-5l-.78-.23a8.79,8.79,0,0,1-2.34,2.41l-.66.49Z" transform="translate(0)"/><path class="j" d="M108.14,62.32l-.07,0c-2.75.93.78,3.88,1.67,5.17H111Z" transform="translate(0)"/><path class="d" d="M110.74,72.23l1-.09h.07a2.28,2.28,0,0,0,1-3,10.85,10.85,0,0,0-.67-1.43l-1.2-.1h0a10.61,10.61,0,0,0,.18,2A3.21,3.21,0,0,1,110.74,72.23Z" transform="translate(0)"/><path class="ac" d="M59,218.63c-.5-7.5,7.3-4.6,10.1-.7l.6-.7-6.8-6c2.15-1.93,5.73-3.36,5.31-5.4-.6-.86-2.13-1.32-2.3-2.35a1,1,0,0,1,0-.25l-2.87-.49c-1.19,2.1-2.75,4.21-3.23,6.59l-.19,0v0a4.39,4.39,0,0,0,.59.73l.21-.13.9.9-.1.6-2.46-.27c-1.14,1-4.71,2-4.54,4.67.19,4.53-1.94,4.23-5.42,2.76l-.09,0h0l-.19,0c1.15,1,3.61,1.7,5.93,1.92l-1.13-.22C55,219.83,59.44,221.63,59,218.63Z" transform="translate(0)"/><path class="k" d="M48.67,218.53h0l.15.06c3.48,1.47,5.61,1.77,5.42-2.76-.17-2.71,3.4-3.7,4.54-4.67l2.46.27.1-.6-.9-.9-.21.13-1.14.72a.44.44,0,0,0,0-.15c-6.92-.39-10.42,2.83-10.69,7.64h0c0,.05,0,.1,0,.15Z" transform="translate(0)"/><path class="k" d="M58.24,206.13c-.58,1.46-.78,3,1.41,3.18l.19,0c.48-2.38,2-4.49,3.23-6.59a3.07,3.07,0,0,1,.17-.31H61C60.84,204.53,59,204.73,58.24,206.13Z" transform="translate(0)"/><path class="y" d="M51.69,165.14l-.55.19c.6-1.2-.8-2.2-1.2-3.3l.9.39q-.18-.37-.3-.69a10.47,10.47,0,0,1-2.4-.46,2.26,2.26,0,0,1,0,.26l-1.7-1.1.1,1.1.8.8,2.1,2.2.6,1.2h1.5A1.71,1.71,0,0,0,51.69,165.14Z" transform="translate(0)"/><path class="s" d="M54.64,160.73c-.1-.9.3-2.5.3-3.4l-.35.2-.7.39-.55.31.1.8c-3.3-.3-.3,4.3.8,5.1a1.51,1.51,0,0,0,0-.3h0C54.24,162.83,53.14,161.53,54.64,160.73Z" transform="translate(0)"/><path class="d" d="M50.84,162.42l-.9-.39c.4,1.1,1.8,2.1,1.2,3.3l.55-.19,2.55-.91L54,164l-.53-.46Z" transform="translate(0)"/><path class="t" d="M59.16,163.82c.28,2.25.42,3,3,2.3l.24-2.59h0l-3.25.1Z" transform="translate(0)"/><path class="t" d="M56.8,163l-.29-.12.23.16-.9.1-.12-.82h0l-1.07-1.57c-1.5.8-.4,2.1-.4,3.1h0l2.75-.67.13,0Z" transform="translate(0)"/><polygon class="s" points="55.72 162.31 55.72 162.31 55.84 163.13 56.74 163.03 56.51 162.87 55.73 162.32 55.72 162.31"/><path class="i" d="M123.71,226.25a60.89,60.89,0,0,1-12.67.18v-.08h0c0,.33-.19,1.2-.19,1.28l-2,1.48c2.58.11,5.2.25,7.81.34l.36,0,1.72,0,1.68,0c1.94,0,3.86,0,5.74-.1l2-1.72c-.08-.64-.1-1.35-.18-2.07a.62.62,0,0,0,0-.13c-.38.09-1,.19-1.6.29-.83.14-1.72.28-2.3.39l-.1,0Z" transform="translate(0)"/><path class="f" d="M126.34,230.63c.3.3.5.6.7.8A5.72,5.72,0,0,0,126.34,230.63Z" transform="translate(0)"/><path class="f" d="M126.15,229.45l.39,0-.2,1.2a1.9,1.9,0,0,1,.7.8v1l.5.5h-.1l.2.1,4.9,2.5c2.9-3-1.6-6.5-4.3-7.9l0,0-.09.08Z" transform="translate(0)"/><path class="p" d="M126.34,232.83h0l0-.15a1.91,1.91,0,0,0-.11-.26,2.76,2.76,0,0,0-.18-.39c.09,2-1.57,3.15-2.85,4.12-1.54,1.15-2.52,2.09.71,4.16h0c0-.14,0-.27,0-.39a1.55,1.55,0,0,1,0-.31,1.33,1.33,0,0,1,1.22-1.27c.11,0,.22,0,.35,0l1.3-.2s0-.07,0-.11h-.08Z" transform="translate(0)"/><path class="c" d="M131,240.33c.4-.7.8-.9,1.2-1.5l.14.14c.44-.78.86-1.61,1.26-2.34l-3.2,2.68-1.1.92,1.68.34A1.94,1.94,0,0,0,131,240.33Z" transform="translate(0)"/><path class="r" d="M56.64,84.63a5.63,5.63,0,0,1-.4-1.55v.15l-.3.1c-4.5.1-9.2-.1-12.6-3.3-.07-.07-.12-.14-.19-.22l-.72-.06-.19,0c1.88,3.67,9.36,3.71,10.07,7.8l0,.1,3.57-.69h0Z" transform="translate(0)"/><path class="f" d="M131,240.33a1.94,1.94,0,0,1,0,.24c-.17,1.58-1.85,3.68.72,4.06a1,1,0,0,0,.39,0c1.5-.2,2.64-3.46.25-5.67l-.14-.14C131.84,239.43,131.44,239.63,131,240.33Z" transform="translate(0)"/><path class="s" d="M121.05,152.42c-.4-.62-.81-1.28-1.19-1.84-.11-.15-.22-.32-.32-.45a6,6,0,0,0-1.93-.55c0,.14-.07.28-.12.44l-.45,6.81c.39,4.68-2,5.74-5.25,4.31h0l-1.94-.71-.45.09h0c-2.92,1.8-5,1.48-8.45-1.08l-1.56.78-.84.42-2.7.2-2.9-2,.23.7,0,.07c1.89,2,4.37,3.62,6.94,2.33.8.5-.9,2.5,1.4,2.2l.3-1.9c1.9.1,5.3,1.1,5.8.8a5.12,5.12,0,0,1,4.8-.8c2,.58,2.94,0,4.08-.18l.72-.22-.2,2.8,2.5-1.4c0-.06,0-.12,0-.19a10.15,10.15,0,0,1,.72-4.71c-.2-.4-1.3-.6-2.1-1,1.5-1.2,3.1-2,3.6-3.9a10.43,10.43,0,0,1-.62-.89l-.08-.11Z" transform="translate(0)"/><path class="m" d="M124.88,152.53a4,4,0,0,1-1.61.44c-.39.05-.78.09-1.13.16l1.69,1.52.21.18a14.73,14.73,0,0,0,3.9-5l-2.2,1A1.67,1.67,0,0,1,124.88,152.53Z" transform="translate(0)"/><path class="d" d="M125.54,150.93a7,7,0,0,0-4.49,1.49h0l.08.11c.17.24.35.43.52.69a9.89,9.89,0,0,1,1.63-.26,4,4,0,0,0,1.61-.44A1.64,1.64,0,0,0,125.54,150.93Z" transform="translate(0)"/><path class="s" d="M116.94,165.33l-.4-.6a19.38,19.38,0,0,0-3.79,1.57l.39.23c-2.5,4.1-6.6,2.5-10.2,1.4l3.5,2.2,7-1a3.07,3.07,0,0,1,.24-.62C114.41,167.18,116.31,166.59,116.94,165.33Z" transform="translate(0)"/><path class="t" d="M113.14,166.53l-.39-.23-.58-.35a5.71,5.71,0,0,0,4.47-3.92l-.12,0c-1.14.13-2,.76-4.08.18a5.12,5.12,0,0,0-4.8.8c-.5.3-3.9-.7-5.8-.8l-.3,1.9c-2.3.3-.6-1.7-1.4-2.2-2.57,1.29-5-.36-6.94-2.33a.46.46,0,0,1-.07-.07c.87,2.76,2.31,5.08,4.43,5.69-.08-.19-.15-.39-.22-.59h1.4l.34.74a5.19,5.19,0,0,0,1-.21c1.71-.66,1.12.58,1.12,1.37h1.2l.08-.08a5,5,0,0,0-.48.68l.9.8C106.54,169,110.64,170.63,113.14,166.53Zm-10.5-.4c3,.4,6.5-.6,9.5-.2C110.94,168.93,105.44,167.53,102.64,166.13Z" transform="translate(0)"/><path class="m" d="M112.14,165.93c-3-.4-6.5.6-9.5.2C105.44,167.53,110.94,168.93,112.14,165.93Z" transform="translate(0)"/><path class="d" d="M126.63,144.64a11.31,11.31,0,0,1-.31,4.89,6.81,6.81,0,0,1-.58,1.3l2.2-1a28.59,28.59,0,0,0,2.59-5.82s0,0,0-.06Z" transform="translate(0)"/><path class="s" d="M67.84,221.83c1.9-.4,4.1,0,4.9-1.9.05-.16.11-.31.16-.47-.93-3.37,1.81-7.43,1.82-9.73a1.9,1.9,0,0,0-1.28-1.6l-2.26-1.87,0,.07-4.9-2.9h.27l-.27-.1h0l-.09.09.06,0c1.3.89,1.91,1.66,2,2.36.42,2-3.16,3.47-5.31,5.4l6.8,6-.6.7c-2.8-3.9-10.6-6.8-10.1.7.4,3-4,1.2-5.7,1.7l1.13.22c1.6.31,3.92.77,6.38,1.12l7,.34A.74.74,0,0,1,67.84,221.83Z" transform="translate(0)"/><path class="w" d="M61.79,222.13A1.18,1.18,0,0,1,62,222l6.06.55c0-.17-.16-.39-.22-.57l-7-.34-.71,0c-2.7.3-5,.2-7.8.4l.42,1.19,3.36.86C56.86,221.87,59.91,222.1,61.79,222.13Z" transform="translate(0)"/><path class="n" d="M51.14,224.63l-4.8,1.2c-.1.57-.1,1.32-.19,1.91,2-.53,4.14-.86,5.77-1.3l0,.49.92-.08c-.51-2.14-1.81-2.63-2.62-4l-1.79.14-.2.34.19,0Z" transform="translate(0)"/><path class="p" d="M48.45,223l1.79-.14c-.07-.12-.14-.23-.2-.36l.11,0-1.81-.63a.19.19,0,0,1,0,.08l0,.11a4,4,0,0,0,.06.91Z" transform="translate(0)"/><path class="d" d="M48.14,161.27c0-1.29-.88-1.73-2-1.64h0a6.89,6.89,0,0,1,.3.8l1.7,1.1A2.26,2.26,0,0,0,48.14,161.27Z" transform="translate(0)"/><path class="k" d="M102.44,221.83a.75.75,0,0,0-.25.47,6.58,6.58,0,0,0,0,1.43c1-.2,1.9-.7,2.8.6.7.8,2.8.6,3.9,1.5a.55.55,0,0,0,.5.3l.23,0,1.37.06.8-.1h1c3.88-1.34.61-4.25-1.15-6.21a.91.91,0,0,1-.1-1.1c1.8-2.6,5,.4,7.1,1.3,2.7,1.6.4,2.5,1,4.9a1,1,0,0,0,.9.7l3.54.1h.16l.05,0c3.68-1.53-1.66-7-3.85-7.87l-7.4-2.6a2.25,2.25,0,0,0-1.4.1,2.34,2.34,0,0,1-.27.2c-1.18.86-2.72.75-3.83,1.4C105.84,218.53,104.14,220.23,102.44,221.83Z" transform="translate(0)"/><path class="k" d="M111,226.35v-.12s0,.06,0,.12Z" transform="translate(0)"/><path class="ab" d="M71.44,203.23l.26-.39.09-.14h0l2-.4,0-.11.29,0,2.37-.47c.77-1.65,1.27-3.49,1.94-5.16a5.74,5.74,0,0,0-2.8,2.43l-.15,0-.35.07c-1.72,1.91-2.78,2-3.34,3.21l-5.66.19.07.56,0,.24.27.1,4.38-.09Z" transform="translate(0)"/><path class="f" d="M97.34,164.63c.07.2.14.4.22.59a5.31,5.31,0,0,0,3,3.31l-.06-.12-1.4-3-.34-.74Z" transform="translate(0)"/><path class="s" d="M100.12,165.16l-.08,0,1.2,1.34C101.24,165.74,101.83,164.5,100.12,165.16Z" transform="translate(0)"/><path class="w" d="M40.84,236.59a2.79,2.79,0,0,0,.38.72,6.85,6.85,0,0,0,.94,1c.9.83,2,1.59,2.62,2.23l.06.06,0,0,.06-.06c6.3,3.3,13.3,4.1,20.2,5.4,0-2.2-1.52-3-3.53-3.43-3-.42-6.39.11-8.77-1.87,0-.09,0-.2,0-.31l-7-2.69.2-.8,7.05.56c1.17-2.62-.81-1.28,0-4.06,1.3.5,3-.5,1.3-1.3-3.7,0-8,1.4-9.9,4.8a2.73,2.73,0,0,1-.9-5.1c2.7-1.4,6.2-1.3,7.6-3.6l.7-1.2,0-.49c-1.63.44-3.79.77-5.77,1.3,0,0,0,.06,0,.09h-.27c-3.83,1.09-6.82,3-3.63,8l-1.43.29a.45.45,0,0,0,0,.11Z" transform="translate(0)"/><path class="p" d="M46.15,227.74c.09-.59.09-1.34.19-1.91l4.8-1.2-2.7-1.3-.19,0-3.68.79-.33.07c-.29,1.07-.49,2.32-.77,3.39l0,.11,2.43.09h.27S46.15,227.77,46.15,227.74Z" transform="translate(0)"/><path class="c" d="M40.84,236.59v-.36a.45.45,0,0,1,0-.11,8.88,8.88,0,0,1-.18-1.11,3,3,0,0,0-.09-.38h-.6c.1.7.2,1.3.3,2h.6Z" transform="translate(0)"/><path class="v" d="M56.53,74.58l1.31-.85-1.41-.17-.19,0-.36,1.37L52.74,78c-9.58-11.57-5.62,4.42-14.93-7.22l-.07-.08.09.12a22,22,0,0,1,1.37,2c1.51,2.57,1.49,4.12,3.95,7,.07.08.12.15.19.22,3.4,3.2,8.1,3.4,12.6,3.3l.3-.1v-.3l.22-6.64Z" transform="translate(0)"/><path class="m" d="M59.74,76.73c3.2-1.2,4.7-4.3,5-7.4l1.12,2c.29-2.55.51-5.56,1.58-8l.14-.11-.64-.29,0,0-.38.85c-1.5-2-5.2,9.5-8.6,11.5l.23.54,0,.08L59,77.74C59.25,77.34,59.37,76.82,59.74,76.73Z" transform="translate(0)"/><path class="p" d="M115.74,241.13a3.75,3.75,0,0,0-.2-1.85l-3.2-.25-.23-.14c-2.5,1.29-7.55-.1-8.11-3l-1.86-.09-.1.74-.5.1a5.65,5.65,0,0,1-.47-.88l-4.67-.21a1.93,1.93,0,0,1-1,.59c-1,.3-1.4,2-3,1.6-1.6,3.1,3.6,2,2,6.6a4.66,4.66,0,0,1-3-1.42c-.07-.09-.15-.18-.22-.28a1.34,1.34,0,0,0-.11-.14A10.77,10.77,0,0,1,90,240.24l-1.25.89-.43.4-8.2.4c1.9.9.9,4.3-1.2,3.9-.2,0-.5.4-.8.6,4.7,1.5,10-.3,14.2-1.1a66.66,66.66,0,0,0,23.4-2.6s0-.1.05-.14l-.15,0Z" transform="translate(0)"/><path class="n" d="M85.74,236.23l1.49,1.08a1.43,1.43,0,0,1,0-.38c1.92.25,4.12.28,5.31-1,0-.09,0-.13,0-.09v0c-4.56-1.15-9.84-.11-14.29-1.45l.29.57-3.79-1a5.87,5.87,0,0,1,0,1.54c-.4,2.7-3.1,5-5.5,6.5,0,0,0-.07,0-.11h0c-.15.33-.29.65-.42,1-.39,1-.73,1.95-1.18,2.92,2.8.3,1-4.2,4-4.6a26.29,26.29,0,0,0,3.08-1.37l-.08,0C77.44,237.33,82,235.63,85.74,236.23Z" transform="translate(0)"/><path class="c" d="M126,231.82l-.06-.09h-.75c-1.49,4.2-7.77,2.31-11.69,2.93a10.13,10.13,0,0,1,4.09,2.87c-.8-.1-1.5.5-1.4,1.8l-.6-.05a3.75,3.75,0,0,1,.2,1.85l1.9-1.2.4-1.6,2.7,2.3,3.2.8-.1-1.1c-3.2-2.08-2.22-3-.69-4.18C124.46,235.16,126.16,234,126,231.82Z" transform="translate(0)"/><path class="p" d="M69.24,241.83l0-.21c.16-1.43.19-2.8.45-4.23-2.38,1.43-4.86,3-6.18,5.54l-.17-.05,0,.05c1,.8,2.7,1.4,1.9,3a.37.37,0,0,1,.1.3l2.3-.5c.45-1,.79-1.95,1.18-2.92C69,242.48,69.09,242.16,69.24,241.83Z" transform="translate(0)"/><path class="n" d="M115.64,242.63l.15,0c1.33-.4,2.43-.92,1.85-2.66l-1.9,1.2Z" transform="translate(0)"/><path class="n" d="M120.74,240.63l-2.7-2.3A2.54,2.54,0,0,0,120.74,240.63Z" transform="translate(0)"/><path class="i" d="M97.34,91.23l-4.2,3a14.47,14.47,0,0,1-2.08,1,18.4,18.4,0,0,1-10.68,1.16,19.73,19.73,0,0,1-3-.81h0l-.11,0-.13,0-.64-.25c-3.18-1.19-5.22-2.47-6.32-4.67-1.4.5-2.7.6-2.5-1.7l-2.3.2a22.82,22.82,0,0,0,12.31,9,18.26,18.26,0,0,0,5,.62l-.1.09h.3l-1.7,1.8.1.5h-3a4,4,0,0,0,.94.4c2.33-.36,5.81-.7,8.18.06,2.08-1.14,4.26-2.3,6.61-2.06h0l7.64-7.07,0,0c.88-1.65,1.75-3.12,2.68-4.54l-.41-.43-.78-.79C102.09,88.52,100.25,91.41,97.34,91.23Z" transform="translate(0)"/><path class="h" d="M77.54,100.63l.3.5h3.4l-.1-.5,1.7-1.8h-.3a19.38,19.38,0,0,1-4.89-.71,22.82,22.82,0,0,1-12.31-9l-.44-1.59-.93.72c-.1.4-.53,1-.63,1.47h0a1.66,1.66,0,0,0,.31.91c.24.21.47.43.71.66C68.31,95.1,71.59,100.63,77.54,100.63Z" transform="translate(0)"/><path class="b" d="M87.54,74.33c-.7,2.4.1,6.4-3,6.9-4,.7-1.6-7.8-2.1-11.6-.3.3-1.1.7-1.1,1.1-.27,6.39.1,12.43-5.45,15.64l.15,0c4.11.82,15,.64,20.4.3h0l2.36-1.08,1.51-.71c3.46-2.62,8.3-4,9.53-8.61l-1.5.5-.7.8-.11,0c-3.83,2.1-8.22,1.45-12.43.86l0,.08-1.1-.2c-4.7-.8-4.7-7.6-6.9-10.9a13.82,13.82,0,0,1-2.82,1.32A3.14,3.14,0,0,1,86,69.4C87.77,69.94,88.2,71.75,87.54,74.33Z" transform="translate(0)"/><path class="d" d="M77.48,70.78l0,0c-3.8.5-7.5,1.6-11.4,1.2l-.07-.5h-.13c0-.06,0-.13,0-.2l-1.12-2c-.3,3.1-1.8,6.2-5,7.4-.37.09-.49.61-.74,1l-.06.09c4.3,2.5,10.3,5.3,14.1,1.9.4-3.2.6-7.8,4.3-8.2a.55.55,0,0,1,.45.21l.15-.61,0,0-.08.12Z" transform="translate(0)"/><path class="i" d="M75.14,89.53l2.4.4,15.7-.69a15.23,15.23,0,0,1,2-.95l1.17-1.66c-5.38.34-16.29.52-20.4-.3l-.15,0c-1.8.63-5,.27-6.88.17l2.43,1.19Z" transform="translate(0)"/><path class="ad" d="M84.54,81.23c3.1-.5,2.3-4.5,3-6.9.66-2.58.23-4.39-1.59-4.93a5.84,5.84,0,0,0-2.51-.07l-1,.3C82.94,73.43,80.54,81.93,84.54,81.23Z" transform="translate(0)"/><path class="t" d="M62.45,85.78,64,88.26h0l.93-.72.14-.11c2.58-.37,3.63,1.39,5,3.08l0-.08c0-.07.53.16,1.22.55.11-1-1.44-2.2.18-3.25L69,86.54,58,81.13l.7,1A6.65,6.65,0,0,0,62.45,85.78Z" transform="translate(0)"/><path class="m" d="M73,79.73c4.9-3.7,4.9-6.8,4.8-7.8a.38.38,0,0,0,0-.19.55.55,0,0,0-.45-.21C73.64,71.93,73.44,76.53,73,79.73Z" transform="translate(0)"/><path class="r" d="M64,88.26h0l-1.52-2.48a6.65,6.65,0,0,1-3.71-3.65l-.7-1-.7.5,6,8.09h0C63.44,89.23,63.87,88.66,64,88.26Z" transform="translate(0)"/><path class="j" d="M58.54,110.53H57.41a15.24,15.24,0,0,0-1.58,5.11l4.42-.78A31.64,31.64,0,0,1,58.54,110.53Z" transform="translate(0)"/><path class="j" d="M62.29,157.56a1.55,1.55,0,0,0,0,.4Z" transform="translate(0)"/><path class="d" d="M58.94,158.73l.06.38c.15,1,.24,2.21.33,3.25v.17l2.1-.7c0-.1,0-.21,0-.3C61.67,160.12,61.44,159.54,58.94,158.73Z" transform="translate(0)"/><path class="d" d="M111.24,74.73c-.36-.26-.82-.63-1.34-1a4.72,4.72,0,0,1,.16.45l-5.44-4.87.2-.1c-.26-.38-.6-.85-.91-1.35a2.57,2.57,0,0,1-1-2.38l.1-.9,0,0c-.08-.78-.26-1.63-.63-1.63h-.15c-3.65.25,1.69,5.79-.67,7.53l-.08.06c-2.83,1-5.79.36-8.71-.29A34.55,34.55,0,0,0,89,69.53l.09.1.4.78.65,1.14.75-.62c2.9,1.4,6.6.9,9.6,1,3.4.2,5.2,3.3,7.9,4.8l1.5-.5C110.34,76.13,110.94,75.23,111.24,74.73Z" transform="translate(0)"/><path class="y" d="M94,78.23c-1.59-1.49-3.46-2.88-3.49-5.34l-.91-1,.41-.34-.61-1.18-.4-.78-.09-.1c-.6-.76.5-2.5-1.3-2.7h0l-.5.5h0C89.34,70.63,89.34,77.43,94,78.23Z" transform="translate(0)"/><path class="h" d="M65.86,71.33c0,.07,0,.14,0,.2H66l0-.2c3-.7,7,.3,9.4-1.6h0a5.35,5.35,0,0,1-2.43-5.39l-1,.2-1.4-2.4-3,1.2.06-.12h0l-.14.11C66.37,65.77,66.15,68.78,65.86,71.33Z" transform="translate(0)"/><path class="g" d="M58.13,226.39l1.28-.18c0-.06,0-.11-.07-.18l1.6-.1.4.1,3.91,2,1.22.54c-.63-4.05,6.47-5,9.37-6.2l-.24.36.39-.07c.64-.15,1.27-.28,1.85-.39l-.4-.2,3.1-.4.36.12.14,0c.59,0,3.63-.21,7-.28l.69-.52,5.1.4v.23l.69.08h0l.14,0,.71.07c2,.16,5.29.18,3,2.51l-.45-.06a1.14,1.14,0,0,1-.15.16l2.28.53c-.75-2.59-2.56-5.06-1.68-7.63l.11.11a1.89,1.89,0,0,1,.09-.21.57.57,0,0,1-.1-.41v.11l-.8-.13-.4,0,.2,1.2-.51-.08.11.68c-2.5-.4-4.9-.8-7.3.7-.6.4-2.3-.5-2.9-1.1-1-2-4,.6-4-2.2l.48,0a2.32,2.32,0,0,1-.08-.64h0l-3.4-.3a15.37,15.37,0,0,0-4.35.19,13.23,13.23,0,0,1-3.11,7.05l.46,0c-3,3.07-7.4,3.1-11.08,2.13a1.07,1.07,0,0,1-.32.47l-5.5-.5a1.83,1.83,0,0,1,.08-.25l-3.36-.86-2.61-.66-.11,0c.06.13.13.24.2.36.81,1.33,2.11,1.82,2.62,4Zm25-11.06-3.4-.3C81,215.13,82.34,215.23,83.14,215.33Z" transform="translate(0)"/><path class="e" d="M79.74,215l3.4.3C82.34,215.23,81,215.13,79.74,215Z" transform="translate(0)"/><path class="n" d="M71.83,202.69l-.1.15-.32.49h0c.2.5,1,.9,1.3,1.3h0l1.79.27-.65-2.62Z" transform="translate(0)"/><path class="n" d="M77.92,202.94l-1.43-1.16v0l-2.37.47,2.74.5a16.69,16.69,0,0,0-1.83,3,8.51,8.51,0,0,0-.6,2l-.8.4a1.5,1.5,0,0,1,1.08,1.6c0,2.3-2.75,6.36-1.82,9.73,1-2.84,2.09-5.69,3-8.53l0,.69c.12-.42.23-.83.34-1.25l.24-.89c.25-.92.49-1.84.71-2.76-.08.24-.18.47-.26.71A24.64,24.64,0,0,1,77.92,202.94Z" transform="translate(0)"/><path class="l" d="M79.78,186c.57,1.95,1,3.81,1.56,5.67l.5-.2.45.18c.88-3.32.93-6.47-3-6.88h0l.4.4C79.74,185.36,79.75,185.65,79.78,186Z" transform="translate(0)"/><path class="l" d="M80,195.75a2,2,0,0,1-.08.26l.12,0c.1.5.2,1.4.3,1.9l0,.06V198c.36-1.56,1.35-3.91,2-6.2l-2.31,4A.19.19,0,0,0,80,195.75Z" transform="translate(0)"/><path class="ab" d="M79.22,178.33l-4.68,3c.5,2.1.3,2.6-2,2.9l.51,8.27h0a13.85,13.85,0,0,1,3.59-7.77l1.1-1.6a15.58,15.58,0,0,1,.83-2.77c-.11.12-.22.26-.33.37A6,6,0,0,1,79.22,178.33Z" transform="translate(0)"/><path class="f" d="M72.9,219.46c-.05.16-.11.31-.16.47-.8,1.9-3,1.5-4.9,1.9a.74.74,0,0,0,0,.18c.06.18.17.4.22.57l.54,0,3.84-.36a13.23,13.23,0,0,0,3.11-7.05,28.66,28.66,0,0,0,.32-3.6l0-.69C75,213.77,73.87,216.62,72.9,219.46Z" transform="translate(0)"/><path class="n" d="M79.83,189.24h0a18,18,0,0,1-.09-3.42.65.65,0,0,0,0,.13c0-.31,0-.6,0-.83l-.4-.4-1.6-1.6-1.1,1.6A10.29,10.29,0,0,1,79.83,189.24Z" transform="translate(0)"/><path class="f" d="M78.09,203.08l-.17-.14a24.64,24.64,0,0,0-1,4.49c.08-.24.18-.47.26-.71,1-2.85,2.12-5.63,3.14-8.49l-.07-.24v-.05C79.47,199.62,78.68,201.4,78.09,203.08Z" transform="translate(0)"/><path class="x" d="M81.94,173.73c-.25.5-1.71,2.76-2.72,4.6a6,6,0,0,0-1,2.4c.11-.11.22-.25.33-.37A63.79,63.79,0,0,0,83.51,174l.13-.18Z" transform="translate(0)"/><path class="d" d="M96.21,150l-3.76.66.09,3.56.12.06c4,.3,4.28,2.54,3.18,6.54l2.7-.2h0C98.84,156.71,97.6,153.35,96.21,150Z" transform="translate(0)"/><path class="l" d="M86.84,152.13l-8.17,1.16c.1.14,0,.54-.16.88a7,7,0,0,0,.43,1l.11,0c4.12-1.23,8.52-.6,12.73-1.25l0,0C90.14,151.23,89.94,151,86.84,152.13Z" transform="translate(0)"/><path class="m" d="M92.66,154.29c.2,1.5.08,3,.28,4.54l2.9,2C96.94,156.83,96.66,154.59,92.66,154.29Z" transform="translate(0)"/><path class="d" d="M71.26,154.4l-2.28.41a11,11,0,0,0,.26,1.42c-3.8,1.36-5.28,1.42-5.71-.46l-.94.16c-.13.65-.25,1.23-.3,1.63l0,.4v0h0c-.08,1.25-.18,2.46-.29,3.49l0,.26c3.1,3,7.6,1,9.1-2.2,0-1.2.1-2.3.1-3.6C71.17,155.58,71.21,155,71.26,154.4Z" transform="translate(0)"/><path class="d" d="M71.84,159.63c.07.14.14.25.21.37.78,1.38,1.73,1.88,3.68,1.37.17-.05.33-.08.51-.14l-2.3-.2,1.6-.4c-.5-1.5-.9-2.9-1.4-4.3h0C72.44,156.73,72.24,158.13,71.84,159.63Z" transform="translate(0)"/><path class="q" d="M78.44,196.6l0-.12,1.38-.47a2,2,0,0,0,.08-.26,21.8,21.8,0,0,0-.12-6.49v0a10.29,10.29,0,0,0-3.19-4.51,13.85,13.85,0,0,0-3.59,7.77c-.16.9-.29,1.82-.41,2.73l.7.2c1-2.9,2.1-5.8,3-8.5.94,3.45-.52,6.52-2.44,9.23l-.34.48.28.19a17.45,17.45,0,0,1-1.52,1.61c.76,1.15,2.05.76,3.17.62l.15,0A5.74,5.74,0,0,1,78.44,196.6Z" transform="translate(0)"/><path class="ab" d="M73.84,196.83l-.28-.19h0L68.44,193c-.8,2.8-4.5,3.6-3.4,6.9,2.79,1.63,5.34.31,7.28-1.49A17.45,17.45,0,0,0,73.84,196.83Z" transform="translate(0)"/><path class="b" d="M89.64,107c1.4.2,3.2,1,4.6.6,1.6-.6,2.7-.8,4,.4a.94.94,0,0,1,.09.12l8.77-1.55c-1.88-4.44-8.12-7.67-12.76-6.57-.38-.09-1.64,1-2,1.25C91.39,103,88.85,104,89.64,107Z" transform="translate(0)"/><path class="j" d="M112.36,105.67l1.16-.2A.88.88,0,0,0,112.36,105.67Z" transform="translate(0)"/><path class="r" d="M107.66,105.19a7.36,7.36,0,0,0,.3,1.26l.72-.13C108.32,106,108,105.55,107.66,105.19Z" transform="translate(0)"/><path class="l" d="M107.9,83.23h0c.2,1.1-2.28,3.45-3.28,5l-.3-.3c-.93,1.42-1.8,2.89-2.68,4.54h0l1.07.55c2.07-3.49,5.29-7,6.62-10.85h-.82C108.36,82.4,108.1,82.91,107.9,83.23Z" transform="translate(0)"/><path class="l" d="M87.4,101.59l.09,0,4.85-.38,0,0c.39-.29,1.65-1.34,2-1.25h0a.28.28,0,0,1-.08-.11L94,99.53C91.66,99.29,89.48,100.45,87.4,101.59Z" transform="translate(0)"/><path class="d" d="M116.12,156.74h0Z" transform="translate(0)"/><path class="d" d="M116.05,148.14h.09v8.6l.9.1.45-6.81c.05-.16.09-.3.12-.44.31-1.4-.52-2.26-1.48-3.09l-1.42.25Z" transform="translate(0)"/><path class="s" d="M96.44,86.63h0l-1.17,1.66c1.07-.42,2.18-.76,3.07-1.06a16.65,16.65,0,0,1-1.72,2.71l.82.09a12.71,12.71,0,0,1,6.13-4l-.4.68.78.79c.7-1.7.79-4.59,4-4.22.2-.32.46-.83.64-1.1h.83a9,9,0,0,0,.71-1.52c0-.22,0-.33-.34-.18,0-.08-6.35,2.94-9.43,4.41l-1.51.71Z" transform="translate(0)"/><path class="w" d="M96.54,216.33a3.77,3.77,0,0,0,1.2.37l.8.13v-.11c0-.64.1-1.13.1-1.79h-.06C97.31,214.73,96.44,214.76,96.54,216.33Z" transform="translate(0)"/><path class="j" d="M102.94,65.43a2.57,2.57,0,0,0,1,2.38l0,0,2.6.6.3-.5-.1-.09-.18-.15-3.49-3.13,0,0Z" transform="translate(0)"/><path class="j" d="M110.06,74.13a4.72,4.72,0,0,0-.16-.45c-1.14-3.13-3.48-5.22-5.08-4.52l-.2.1Z" transform="translate(0)"/><path class="g" d="M91.2,233.43a54.23,54.23,0,0,1-13.53-.23l.58,1.16c4.45,1.34,9.73.3,14.29,1.45l.1,0h0a3.17,3.17,0,0,0,.49-.8,24.15,24.15,0,0,0,3.5-1.2,2,2,0,0,1-.24,1.71l4.67.21h0a5.13,5.13,0,0,1-.36-1.22,4.37,4.37,0,0,1,1.7-.8l-.3,2.06,1.86.09a2.32,2.32,0,0,1-.06-.45l.8-.3.8-.1.29.15-.59-.35,1.22-.26.08,0,0-.22.16-.69.19-1.49c1.59.66,4.09,1.44,6.31,2.44,3.91-.67,10.19,1.2,11.79-2.94h.8s0,.07,0,.1l.06.09.11.22a2.76,2.76,0,0,1,.18.39h.8v-1c-.2-.2-.4-.5-.7-.8l.2-1.2-.39,0c-1.88.1-3.8.13-5.74.1l-1.68,0-1.72,0-.36,0c-2.61-.09-5.23-.23-7.81-.34s-5.28-.21-7.8-.18C102.4,231.8,97.15,233,91.2,233.43Z" transform="translate(0)"/><path class="l" d="M111,226.43a60.89,60.89,0,0,0,12.67-.18l.13,0-11-.09h-1l-.8.1v.2Z" transform="translate(0)"/><path class="p" d="M126.34,230.63a5.72,5.72,0,0,1,.7.8A1.9,1.9,0,0,0,126.34,230.63Z" transform="translate(0)"/><path class="w" d="M127.54,232.93l-.5-.5h-.8a1.91,1.91,0,0,1,.11.26.67.67,0,0,0,.09.14l.75.07h0l.24,0h.1Z" transform="translate(0)"/><path class="d" d="M106.07,157c-.46.09-1-.54-1.57-.88a2.61,2.61,0,0,1-1.21-.41l-.07,0h0c-2.36-.47-1.15-4.27-1.58-6.3l-1.83,1.1a52.61,52.61,0,0,0,.7,7.17,18.15,18.15,0,0,1,.43,1.77c3.44,2.56,5.53,2.88,8.45,1.08C108.7,158.32,109.36,156.11,106.07,157Z" transform="translate(0)"/><path class="r" d="M100,156c-2.19.21-1.29-3.41-1.67-6.41l-2.16.39c1.39,3.34,2.63,6.7,2.33,10.62l.84-.42,1.56-.78a18.15,18.15,0,0,0-.43-1.77C100.35,157.11,100.18,156.56,100,156Z" transform="translate(0)"/><path class="m" d="M116.12,156.74c-.44.19-1.26.57-2,.85h0l-.14,0-.86.39c0,1.3.53,2.7-1.35,3.11,3.27,1.43,5.64.37,5.25-4.31l-.9-.1Z" transform="translate(0)"/><path class="r" d="M111.14,157.22c-1.38-.52-3-1.11-3.79-1.44l-1.31.35c0-.13-.73.07-1.54,0,.55.34,1.11,1,1.57.88,3.29-.9,2.63,1.31,3.32,3.5h0l.45-.09C110.36,158.66,110,157.12,111.14,157.22Z" transform="translate(0)"/><path class="d" d="M113.14,158c-.37-.18-1.13-.48-2-.81-1.19-.1-.78,1.44-1.3,3.21l1.94.71h0C113.67,160.73,113.14,159.33,113.14,158Z" transform="translate(0)"/><path class="f" d="M69.72,237.39c0-.06,0-.11,0-.16a32.42,32.42,0,0,1,4.7-3.9c.08-.06.13,0,.18.07.39-1.54,1.57-1,2.42-.9v-1.37l-.7-.2,2.5-2.3h.09l.11-.1-.48-.48a8.81,8.81,0,0,0-2.42,0,2.17,2.17,0,0,1,0-.26l-.54,0c-.27,1.44-1.8,3.16-6.44,1.16-1,0-2,0-2.63,0,0-.11,0-.22-.05-.32L65.25,228l-3.91-2-.4-.1-1.6.1c0,.07,0,.12.07.18l0,.06.5,0c.6,2.1,4.6,1,2.6,4.5l3.2.2v.8c-3.88,1.47-2.78,2.19-3.37,4.68,1.76-1.18,3.46-2.45,5.27-3.48.2,3.7-2.6,5.9-5.2,8.1-5.4.38-6.93-.77-2.33-3.27l-3.67.07-2,1.3-.4-.6.8-1.2-1.24.26c0,.89-.36,2-.36,2.88l-.39-.15c0,.11,0,.22,0,.31,2.38,2,5.72,1.45,8.77,1.87a10.4,10.4,0,0,1,1.76.38l.17.05C64.86,240.38,67.34,238.82,69.72,237.39Z" transform="translate(0)"/><path class="x" d="M93.44,223.73l-4.1.6c0,.06,0,.13,0,.19h0c.18.74.45,1.56.64,2.31,2.5.37,6.07-1.2,7.76.79h2.7l-.1-2.7C99.14,224.73,95.14,223.53,93.44,223.73Z" transform="translate(0)"/><path class="c" d="M66.54,228.93c.63,0,1.64,0,2.63,0-.42-.19-.86-.39-1.33-.64l.8-.13c1.61-2.68,4.22-2.71,7.2-2.75l-1.3-1.22.8-1.5.26,0,.24-.36c-2.9,1.16-10,2.15-9.37,6.2,0,0,0,.05,0,.08S66.51,228.82,66.54,228.93Z" transform="translate(0)"/><path class="n" d="M96.14,216.93c-4.24-.38-8.57-.5-12.72-1l-.48,0c0,2.8,3,.2,4,2.2.6.6,2.3,1.5,2.9,1.1,2.4-1.5,4.8-1.1,7.3-.7l-.11-.68-.09-.52C96.64,217.23,96.44,217,96.14,216.93Z" transform="translate(0)"/><path class="c" d="M68.1,222.58,62,222a1.18,1.18,0,0,0-.25.1H62c-1.09.76.06,1.44-.18,2.23,3.68,1,8.11.94,11.08-2.13l-.46,0-3.84.36Z" transform="translate(0)"/><path class="x" d="M87.88,221.58l-6.47.33,1.33.42-.29,0,.59.17-1.8.2.4,1.1,2.34-.37c1.14-.2,2.19-.35,2.76-.43l.23-.17c-.11-.18-.19-.35-.23-.43Z" transform="translate(0)"/><path class="f" d="M86.74,222.43c0,.08.12.25.23.43s.46.63.77.57c1.2-2.9,4.1,1.1,6.2-.6l-.09-1.27v-.23l-5.1-.4-.69.52-.17.13Z" transform="translate(0)"/><path class="p" d="M74.54,224.23l1.3,1.22h.85c.24-.17.51-.38.8-.62l-.85.21L78.9,223l-1.26-.63-1.65.29-.39.07-.26,0Z" transform="translate(0)"/><path class="f" d="M62,222.13h-.25c-1.88,0-4.93-.26-5.67,2a1.83,1.83,0,0,0-.08.25l5.5.5a1.07,1.07,0,0,0,.32-.47C62.1,223.57,61,222.89,62,222.13Z" transform="translate(0)"/><path class="c" d="M98,224.17l.45.06c2.24-2.33-1-2.35-3-2.51l-.71-.07-.14,0h0l.3,1.49A6.51,6.51,0,0,0,98,224.17Z" transform="translate(0)"/><path class="f" d="M78.9,223,76.64,225l.85-.21c.67-.16,1.44-.32,1.85-.39l2-.8a7.6,7.6,0,0,0-.4-1.1l1.51-.17.29,0-1.33-.42-.51-.16-.36-.12-3.1.4.4.2,1.2.6Z" transform="translate(0)"/><path class="x" d="M72.58,204.72a3,3,0,0,1,1.76,2.91c.09-.56.36-1.12.56-1.85,0-.05,0-.09,0-.15l-.3-.7-.12,0-1.79-.27h0c-.3-.4-1.1-.8-1.3-1.3h-.55l-4.38.09h-.27l4.9,2.9,0-.07A3.38,3.38,0,0,1,72.58,204.72Z" transform="translate(0)"/><path class="ac" d="M118.34,220.53c-2-1.2-5-3.6-6.6-1.1-.4.5,4,2.8,3.2,5.6a.6.6,0,0,0,.6.7l3.2-.1a.6.6,0,0,0,.6-.7C118.74,222.63,121,222.13,118.34,220.53Z" transform="translate(0)"/><path class="ac" d="M108.94,226.13c-.9-1.1-3.4-.7-4.2-1.6-.9-1.3-1.8-.9-2.8-.6C103.64,226.33,106.34,225.83,108.94,226.13Z" transform="translate(0)"/><path class="x" d="M53.6,237.59l1.24-.26-.8,1.2.4.6,2-1.3,3.67-.07c-4.6,2.5-3.07,3.65,2.33,3.27,2.6-2.2,5.4-4.4,5.2-8.1-1.81,1-3.51,2.3-5.27,3.48.59-2.49-.51-3.21,3.37-4.68v-.8l-3.2-.2c2-3.5-2-2.4-2.6-4.5l-.5,0-1.31.12-5.27.46-.92.08-.7,1.2c-1.4,2.3-4.9,2.2-7.6,3.6a2.73,2.73,0,0,0,.9,5.1c1.9-3.4,6.2-4.8,9.9-4.8,1.7.8,0,1.8-1.3,1.3-.86,2.78,1.12,1.44,0,4.06L46,236.83l-.2.8,7,2.69.39.15C53.24,239.62,53.56,238.48,53.6,237.59Z" transform="translate(0)"/><path class="i" d="M78.84,66c-.7.93-1.27,1.92-2,2.74h-1.1a4.68,4.68,0,0,1-1.35-4.92,2.38,2.38,0,0,1,.54-.9,3.44,3.44,0,0,1,2.14-1.12,5.84,5.84,0,0,1-.23-1l.65-1.95a7.45,7.45,0,0,0-1.21-.32,9,9,0,0,1-2-.07,8.25,8.25,0,0,0-6.69,4.72l-.06.12,3-1.2,1.4,2.4,1-.2a5.35,5.35,0,0,0,2.43,5.39h0c-2.4,1.9-6.4.9-9.4,1.6l0,.2L66,72c3.9.4,7.6-.7,11.4-1.2l0,0,0,0a5,5,0,0,1,2.49-2.8l.2-.22A6.5,6.5,0,0,1,78.84,66Z" transform="translate(0)"/><path class="x" d="M87.44,238.83v-.07l-.09,0s0-.1,0-.25a11,11,0,0,1-.15-1.17l-1.49-1.08c-3.7-.6-8.3,1.1-11.1,3.5l.08,0,5.32,2,8.2-.3a1.1,1.1,0,0,0,.09-.14C88.32,240.39,89.05,239.12,87.44,238.83Z" transform="translate(0)"/><path class="f" d="M90,240.23a12.74,12.74,0,0,0,1.06,2.26,1.34,1.34,0,0,1,.11.14c.07.1.15.19.22.28a4.66,4.66,0,0,0,3,1.42c1.6-4.6-3.6-3.5-2-6.6,1.6.4,2-1.3,3-1.6a1.93,1.93,0,0,0,1-.59,2,2,0,0,0,.24-1.71,24.15,24.15,0,0,1-3.5,1.2,3.17,3.17,0,0,1-.49.8l-.1.09c-1.19,1.29-3.39,1.26-5.31,1a1.43,1.43,0,0,0,0,.38,11,11,0,0,0,.15,1.17l.05.28v.07c1.61.29.88,1.56.89,2.46a.61.61,0,0,0,0,.14l.43-.3,1.25-.89Z" transform="translate(0)"/><path class="n" d="M112.11,238.89l.23.14,3.2.25.6.05c-.1-1.3.6-1.9,1.4-1.8a10.13,10.13,0,0,0-4.09-2.87l-.2-.09c-2.22-1-4.72-1.78-6.31-2.44l-.19,1.49-.11.91h0l-.16,0-1.22.26.59.35,6.71,3.45A2.34,2.34,0,0,1,112.11,238.89Z" transform="translate(0)"/><path class="c" d="M112.11,238.89a2.34,2.34,0,0,0,.43-.26l-6.71-3.45-.29-.15-.8.1-.8.3a2.32,2.32,0,0,0,.06.45C104.56,238.79,109.61,240.18,112.11,238.89Z" transform="translate(0)"/><path class="f" d="M102,236.53l.1-.74.3-2.06a4.37,4.37,0,0,0-1.7.8,5.13,5.13,0,0,0,.36,1.22,9,9,0,0,0,.44.88Z" transform="translate(0)"/><path class="c" d="M77,232.83v-.33c-.85-.13-2-.64-2.42.9-.05-.08-.1-.13-.18-.07a32.42,32.42,0,0,0-4.7,3.9c0,.05,0,.1,0,.16-.26,1.43-.29,2.8-.45,4.23,0,.07,0,.13,0,.2s0,.08,0,.11c2.4-1.5,5.1-3.8,5.5-6.5a5.87,5.87,0,0,0,0-1.54l3.79,1-.29-.57-.58-1.16-.53-.07A.37.37,0,0,0,77,232.83Z" transform="translate(0)"/><path class="e" d="M103.17,86.66l.4-.68a12.71,12.71,0,0,0-6.13,4l-.1,1.2C100.25,91.41,102.09,88.52,103.17,86.66Z" transform="translate(0)"/><path class="ac" d="M80,95.81c0,.18-.07.37-.07.52l.45.07a18.85,18.85,0,0,0,10.67-1.12,14.47,14.47,0,0,0,2.08-1l-.69-.59A16.55,16.55,0,0,1,82,95.84C81.83,96.24,81,96.09,80,95.81Z" transform="translate(0)"/><path class="l" d="M76.46,95.3l.65.25.12,0,.11,0h0l.38-.57-.08,0-6.4-3.9a.77.77,0,0,0,0-.15c-.69-.39-1.17-.62-1.22-.55l0,.08.06.12C71.24,92.83,73.28,94.11,76.46,95.3Z" transform="translate(0)"/><path class="t" d="M104.66,88.18c1-1.5,3.48-3.85,3.28-5h0c-3.16-.37-3.25,2.52-4,4.22l.41.43Z" transform="translate(0)"/><path class="t" d="M94.54,92.33a20.37,20.37,0,0,1-2.09,1.31l.69.59,4.2-3,.1-1.2-.82-.09A18.52,18.52,0,0,1,94.54,92.33Z" transform="translate(0)"/><path class="r" d="M90.84,70.93l-.75.62,0,0-.41.34.91,1a.13.13,0,0,1,0-.06l2.1.7c4.6-2.8,2.4,4.3,6.2,4,2.8-.2,6-1.4,8.8-.1l-.11.06.11,0,.7-.8c-2.7-1.5-4.5-4.6-7.9-4.8C97.44,71.83,93.74,72.33,90.84,70.93Z" transform="translate(0)"/><path class="d" d="M98.84,77.53c-3.8.3-1.6-6.8-6.2-4-.59,2.07,1.62,3.26,2.46,4.82,4.21.59,8.6,1.24,12.43-.86l.11-.06C104.84,76.13,101.64,77.33,98.84,77.53Z" transform="translate(0)"/><path class="m" d="M92.64,73.53l-2.1-.7a.13.13,0,0,0,0,.06c0,2.46,1.9,3.85,3.49,5.34l1.1.2,0-.08C94.26,76.79,92.05,75.6,92.64,73.53Z" transform="translate(0)"/><path class="k" d="M93.44,89.23a2,2,0,0,1-1.13.64h0l.23,0c-4.6,5.8-10.3,3.5-14.7,1.2v-.69h-.1l-.2-.4-2.4-.4c.1,3.4,7.2,1.9,6.9,6.2a.25.25,0,0,1,0,.11,16.55,16.55,0,0,0,10.45-2.2,20.37,20.37,0,0,0,2.09-1.31,18.52,18.52,0,0,0,2.08-2.39,16.65,16.65,0,0,0,1.72-2.71c-.89.3-2,.64-3.07,1.06a15.23,15.23,0,0,0-2,.95Z" transform="translate(0)"/><path class="v" d="M77.64,95l.08,0c.53.15,1.44.5,2.29.75s1.82.43,2,0a.25.25,0,0,0,0-.11c.3-4.3-6.8-2.8-6.9-6.2l-3.7-1.8c-1.62,1-.07,2.28-.18,3.25a.77.77,0,0,1,0,.15Z" transform="translate(0)"/><path class="s" d="M77.84,90.34h0l8.1.7,6.35-1.15h0a2,2,0,0,0,1.13-.64h-.2l-15.7.69.2.4Z" transform="translate(0)"/><path class="r" d="M62.26,158h0v0a1.55,1.55,0,0,1,0-.4c.05-.4.17-1,.3-1.63l-.38.07C62.22,156.65,62.23,157.3,62.26,158Z" transform="translate(0)"/><path class="e" d="M74.39,63.81a4.68,4.68,0,0,0,1.35,4.92h1.1c.73-.82,1.3-1.81,2-2.74a21.68,21.68,0,0,1-1.77-4.2,3.44,3.44,0,0,0-2.14,1.12A3,3,0,0,0,74.39,63.81Zm2.75,1.42c0,1.4-1.6,1.4-1.6,0S77.14,63.83,77.14,65.23Z" transform="translate(0)"/><path class="s" d="M78.44,196.6c-.67,1.67-1.17,3.51-1.94,5.16v0l1.43,1.16.17.14c.59-1.68,1.38-3.46,2.17-5.14l0-.06c-.1-.5-.2-1.4-.3-1.9l-.12,0-1.38.47Z" transform="translate(0)"/><path class="s" d="M73.87,202.29l.65,2.62.12,0,.3.7c0,.06,0,.1,0,.15l0,.1a1.14,1.14,0,0,1,.1-.19,16.69,16.69,0,0,1,1.83-3l-2.74-.5-.29,0Z" transform="translate(0)"/><path class="p" d="M81.34,191.63c-.59-1.86-1-3.72-1.56-5.67a.65.65,0,0,1,0-.13,18,18,0,0,0,.09,3.42h0a21.8,21.8,0,0,1,.12,6.49.19.19,0,0,1,0,.08l2.31-4,.09-.16,0,0-.45-.18Z" transform="translate(0)"/><path class="j" d="M106,156.13l1.31-.35-.11-.05c.3-2.4.2-5.4,1.8-7.5l.4,7.5h.9c0-2.3-.4-4.5.8-6.7.5-1.1,2,1,3.5,1.1,0-1,.2-1.94,1.41-2l-1.34-1.4-9.85,1.74C106.35,150.71,106,153.26,106,156.13Z" transform="translate(0)"/><path class="m" d="M99.82,149.37c0,.36,0,.74,0,1.12h0l1.83-1.1c0-.11-.06-.22-.09-.33Z" transform="translate(0)"/><path class="r" d="M114.64,150.13l-.4,7.4-.1.05h0l2-.85h0v-8.6h-.09C114.84,148.19,114.64,149.16,114.64,150.13Z" transform="translate(0)"/><path class="g" d="M100,227.73c0,.2.1.5.1.7l.4-.7Z" transform="translate(0)"/><path class="x" d="M76.34,230.93l.7.2v1.7a.37.37,0,0,1,.1.3l.53.07a53.87,53.87,0,0,0,19.07-.67A20.89,20.89,0,0,1,89.36,231a5.62,5.62,0,0,1-.58.19l-.25.07-.11,0c-2.83.71-5.41-.7-7.58-2.69h-2Z" transform="translate(0)"/><path class="f" d="M98,228.13h-2.1c-.1,2.4-1.6,2.7-3.5.7L91,229l2.3,2-1.4.7a14.87,14.87,0,0,0,5.6.6l1.5-.7,1.6-1.2-2-.5Z" transform="translate(0)"/><path class="j" d="M99.82,149.37l-1.45.25c.38,3-.52,6.62,1.67,6.41.14.53.31,1.08.47,1.63a52.61,52.61,0,0,1-.7-7.17h0C99.82,150.11,99.83,149.73,99.82,149.37Z" transform="translate(0)"/><path class="r" d="M103.14,155.63c-1.21-1,.43-6.43-1.18-6.64l-.41.07c0,.11.07.22.09.33.43,2-.78,5.83,1.58,6.3h0Z" transform="translate(0)"/><path class="aa" d="M114.24,157.53l.4-7.4c-1.5-.1-3-2.2-3.5-1.1-1.2,2.2-.8,4.4-.8,6.7h-.9l-.4-7.5c-1.6,2.1-1.5,5.1-1.8,7.5l.11.05c.76.33,2.41.92,3.79,1.44.87.33,1.63.63,2,.81l.86-.39.14-.06Z" transform="translate(0)"/><path class="w" d="M77,225.43h-1.2c-3,0-5.59.07-7.2,2.75l.52-.09a8.34,8.34,0,0,1,1.12-.19l5.36-.89a2.34,2.34,0,0,1,0,.74l.54,0c0-1.54,1-1.78,2-1.88v-.13l2.4-.1-.63.21a3.74,3.74,0,0,0,2.23-.51v-.6H80.48c-.25,0-.47,0-.65,0C79.13,224.93,77.74,225.23,77,225.43Z" transform="translate(0)"/><path class="p" d="M78.14,225.86c-1,.1-2,.34-2,1.88v0a2.17,2.17,0,0,0,0,.26,8.81,8.81,0,0,1,2.42,0c.75.06,1.58.13,2.38.15v-.27c1,.06,2.68,0,3.38-.55a1.69,1.69,0,0,0-.1-1.62l-.18-.23h-.25a4,4,0,0,1-.27.4h.22c-1.2,2.2-3.6,1.4-5.7,1.5a.35.35,0,0,0-.2-.1,2.26,2.26,0,0,1,.6-.35l-.4,0,.4-.3v-.3l-.3.1Z" transform="translate(0)"/><path class="p" d="M75.64,227l-5.36.89-1.12.19-.52.09-.8.13c.47.25.91.45,1.33.64,4.64,2,6.17.28,6.44-1.16v0A2.34,2.34,0,0,0,75.64,227Z" transform="translate(0)"/><path class="c" d="M95.64,227.23c0,.24,0,.45,0,.65.86,0,1.68,0,2.24,0-1.7-2.1-5.3-.5-7.8-.8l2.18.87c0-.11.08-.24.12-.37Z" transform="translate(0)"/><path class="p" d="M79.74,224.73h.09c.18,0,.4,0,.65,0,1.88-.08,5.37-.62,6.76-.8l-.5-.9c-.57.08-1.62.23-2.76.43A13.24,13.24,0,0,0,79.74,224.73Z" transform="translate(0)"/><path class="ac" d="M85.94,91l-8.1-.7h0V91c4.4,2.3,10.1,4.6,14.7-1.2l-.23,0h0Z" transform="translate(0)"/><path class="x" d="M95.6,227.88c0-.2,0-.41,0-.65l-3.3.3c0,.13-.09.26-.12.37a1.45,1.45,0,0,0-.08.33C94.1,230.28,95.36,230.68,95.6,227.88Z" transform="translate(0)"/><path class="x" d="M78,227.43c2.1-.1,4.5.7,5.7-1.5h-.22l-1.68-.09c-.81.41-2.4.68-3.4,1.15a2.26,2.26,0,0,0-.6.35A.35.35,0,0,1,78,227.43Z" transform="translate(0)"/><polygon class="f" points="78.14 225.73 78.14 225.86 78.14 226.43 78.44 226.33 79.91 225.84 80.54 225.63 78.14 225.73"/><polygon class="c" points="84.64 228.73 88.24 229.23 87.24 226.93 84.64 228.73"/><path class="x" d="M89.54,230.93v-.2h-.1Z" transform="translate(0)"/><path class="t" d="M76.84,60.83a5.84,5.84,0,0,0,.23,1A21.68,21.68,0,0,0,78.84,66a6.5,6.5,0,0,0,1.29,1.72,1.48,1.48,0,0,0,.31.22l0-.2c.56-2.94.42-10.54-1.83-12.3l-.08.24-1.07,3.21Z" transform="translate(0)"/><path class="b" d="M77.44,70.73l0,0,.36.45.08-.12,2-3.18h0A5,5,0,0,0,77.44,70.73Z" transform="translate(0)"/><path class="g" d="M90.84,65.23c0-1.4-1.5-1.4-1.4,0S90.84,66.63,90.84,65.23Z" transform="translate(0)"/><path class="g" d="M77.14,65.23c0-1.4-1.6-1.4-1.6,0S77.14,66.63,77.14,65.23Z" transform="translate(0)"/><path class="ad" d="M98.24,108c-1.3-1.2-2.4-1-4-.4-1.4.4-3.2-.4-4.6-.6-.79-3.07,1.75-4.08,2.67-5.75l0,0-4.85.38-.09,0c-2.37-.76-5.85-.42-8.18-.06-.92.14-1.66.28-2.08.37a.79.79,0,0,1,.51,0h0c.79.33,1,2,2.28,2.79a.34.34,0,0,0,0,.1c-.28,2.5,1.62,4.4-.08,6.57l18.47-3.25A.94.94,0,0,0,98.24,108Z" transform="translate(0)"/><path class="ad" d="M101.65,92.45,94,99.52h0l.25.39a.28.28,0,0,0,.08.11h0c4.64-1.1,10.88,2.13,12.76,6.57l.86-.15a7.36,7.36,0,0,1-.3-1.26c0-.08,0-.16,0-.24s0-.08,0-.12a10.91,10.91,0,0,1-1.22-6.3c.1-2.28.44-4.57-.08-6.8-.5,1.3-.2,3.1-1.8,3.9-.7.5-.9,1.7-1.4,2.8-.3-1.9-1.1-3.6-.3-5.4l-.1,0-1.07-.55Z" transform="translate(0)"/><path class="ad" d="M78.33,153.16v.17l.33,0,8.17-1.16c3.1-1.1,3.3-.9,4.9,1.7l0,0,.76.38-.09-3.56Z" transform="translate(0)"/><path class="c" d="M76.28,58.56c.15,0,.24-.07.26-.13s-.16-.25-.47-.43a17.45,17.45,0,0,0-2.43-1.07c-3.6-1.3-7.4-.9-7.4-.4,0,.33,1.62.82,3.63,1.24,1.47.31,3.12.58,4.42.72A9,9,0,0,0,76.28,58.56Z" transform="translate(0)"/><path class="c" d="M88.85,59.64s0,0,.08.07a14.59,14.59,0,0,0,4.36-.36c2.81-.48,5.9-1.23,5.85-1.62s-2.1-.4-3.2-.4c-3.62.1-6.87,1.73-7.08,2.23,0,0,0,0,0,.07Z" transform="translate(0)"/><path class="s" d="M82.34,32.5c1.54-.18,1.53-2,1.29-2.66l0,0a.42.42,0,0,0-.37-.22h-.87a.42.42,0,0,0-.4.26q-.08.19-.18.42C81.31,31.25,80.58,32.5,82.34,32.5Z" transform="translate(0)"/><path class="g" d="M84.39,51.36c3.73-2.31.74-5.11-2.38-4.92a1.62,1.62,0,0,0-1.36,1.88l.53,3h0l3.14,0Z" transform="translate(0)"/><path class="aa" d="M104.86,148.48,102,149c1.61.21,0,5.62,1.18,6.64l.07.05.08,0a2.61,2.61,0,0,0,1.21.41c.81.07,1.54-.13,1.54,0C106,153.26,106.35,150.71,104.86,148.48Z" transform="translate(0)"/><path class="c" d="M147.79,250.66H146.5c1.56.73,2.41,1.5,2.41,2.29,0,1.47-2.83,2.85-7.81,4.05l-1.16.27c-1.48.32-3.12.63-4.9.93-2.41.4-5.09.77-8,1.11-6.62.76-14.43,1.35-23,1.7q-1.59.08-3.21.12c-3.08.1-6.25.18-9.48.22q-3.11,0-6.27,0-4.08,0-8-.07-3.18,0-6.25-.14l-2.29-.08-1.18,0c-10.64-.41-20.15-1.17-27.72-2.18-1.64-.22-3.19-.45-4.64-.7-2-.34-3.89-.7-5.52-1.08l-.63-.15c-4.85-1.19-7.61-2.55-7.61-4,0-.79.85-1.56,2.4-2.29H22.29c-2.57,1.45-4,3-4,4.63,0,7.51,29.88,13.6,66.73,13.6s66.73-6.09,66.73-13.6C151.77,253.66,150.36,252.11,147.79,250.66Z" transform="translate(0)"/><path class="a" d="M114,105.9a4.06,4.06,0,0,1,.49,1A3,3,0,0,0,114,105.9Z" transform="translate(0)"/><path class="a" d="M40.12,144.31h0a2.17,2.17,0,0,0,0,.26v0C40.13,144.46,40.13,144.38,40.12,144.31Z" transform="translate(0)"/><path class="a" d="M54,150.43h0l.12-.18Z" transform="translate(0)"/><path class="a" d="M115.49,145.93q-.45-.42-.87-.87A7.94,7.94,0,0,0,115.49,145.93Z" transform="translate(0)"/><polygon class="a" points="63.94 148.23 63.94 148.23 63.94 148.23 63.94 148.23"/><path class="j" d="M53.44,159l-.1-.8.55-.31a6.76,6.76,0,0,1-1-.29,18.56,18.56,0,0,1-3.24-1.56l-.49,0-1.34.64a1.85,1.85,0,0,0-.82.77l-.77,1.36-.24.82h.1c1.12-.09,2,.35,2,1.64a10.47,10.47,0,0,0,2.4.46q.12.32.3.69l2.6,1.11L54,164l.27.14C53.14,163.33,50.14,158.73,53.44,159Z" transform="translate(0)"/><polygon class="b" points="125.52 105.96 125.52 105.97 125.52 105.96 125.52 105.96"/><path class="m" d="M57,149.16a6.61,6.61,0,0,0-.21-.63Z" transform="translate(0)"/><path class="m" d="M57.57,156.82c-.56-1.94-.3-4.34-.43-6.29a3.41,3.41,0,0,0-.19-1.37l-.21-.63s0-.17,0-.33a9.27,9.27,0,0,1-1.09.36,1.43,1.43,0,0,0-.87.69l-.6,1-.12.18-.08.1c0,.21.05.46.08.72l0,0,.54,6.12v.18l.35-.2c0,.9-.4,2.5-.3,3.4l1.07,1.57,0,0,.78.55.29.12,2.53-.63c-.09-1-.18-2.26-.33-3.25A4.59,4.59,0,0,1,57.57,156.82Z" transform="translate(0)"/><path class="t" d="M54.58,157.35,54,151.23l0,0-3.05,2-.58.4a1.56,1.56,0,0,0-.71,1.39c0,.2,0,.37,0,.39a4,4,0,0,0,0,.6,18.19,18.19,0,0,0,3.3,1.6,6.76,6.76,0,0,0,1,.29l.7-.39Z" transform="translate(0)"/><path class="j" d="M62.14,151.53c0-1.1.1-2.2.1-3.3h.1l-3.68-.67a1.52,1.52,0,0,0-1.12.21,4.74,4.74,0,0,1-.84.43c0,.16,0,.29,0,.33a6.61,6.61,0,0,1,.21.63,3.41,3.41,0,0,1,.19,1.37c3.17.93,2.41,4,2.66,5.89.15,1.12.65,1.85,2.46,1.56h0c0-.67,0-1.32,0-2C62.19,154.52,62.21,153.06,62.14,151.53Z" transform="translate(0)"/><path class="r" d="M59.8,156.42c-.25-1.91.51-5-2.66-5.89.13,1.95-.13,4.35.43,6.29A4.59,4.59,0,0,0,59,159.11l-.06-.38c2.5.81,2.73,1.39,2.54,2.8l.49-.06c.11-1,.21-2.24.29-3.49C60.45,158.27,60,157.54,59.8,156.42Z" transform="translate(0)"/><path class="d" d="M94.87,146.8l0,0-.07-.14a4.54,4.54,0,0,1-2.35,2.72l0,1.26,3.76-.66C95.76,148.94,95.3,147.88,94.87,146.8Z" transform="translate(0)"/><path class="d" d="M69.69,152.08l-.14.12a2,2,0,0,0-.3.42l0,.08a3.89,3.89,0,0,0-.22,2.11l2.28-.41c.07-.92.16-2,.23-3A3,3,0,0,0,69.69,152.08Z" transform="translate(0)"/><path class="d" d="M63.44,152.63v-.1h-.62a9.86,9.86,0,0,1-.23,3.4l.94-.16A11.63,11.63,0,0,1,63.44,152.63Z" transform="translate(0)"/><path class="r" d="M78.18,151.25a1.15,1.15,0,0,0-.86-1,4.61,4.61,0,0,1-1.4-.65c-1.09,1.45-2.51,2.69-3,4.51a2.88,2.88,0,0,0-.11.42c-.1.6-1.1.9-1.7,1.4,0,1.3-.1,2.4-.1,3.6l1,.5v0c-.07-.12-.14-.23-.21-.37.4-1.5.6-2.9,2.3-3.3l.4-.4c.18-.85.23-1.59.33-2.16.21-1.25.69-1.68,3.45-.65Z" transform="translate(0)"/><path class="d" d="M78.67,153.29l-.33,0v-.21c-2.76-1-3.24-.6-3.45.65-.1.57-.15,1.31-.33,2.16h0a3.44,3.44,0,0,0,3.85-1.56l.12-.2C78.68,153.83,78.77,153.43,78.67,153.29Z" transform="translate(0)"/><path class="j" d="M74.53,148a1.25,1.25,0,0,0-.63-.57,4.49,4.49,0,0,1-1.26-.79l-.29,0a1.15,1.15,0,0,1,.42.29c.66.63-.41,1.71.17,2.38l-1.23.35a10.76,10.76,0,0,1-.17,1.75h-.05c-.07.94-.16,2-.23,3-.05.63-.09,1.18-.12,1.53.6-.5,1.6-.8,1.7-1.4a2.88,2.88,0,0,1,.11-.42c.46-1.82,1.88-3.06,3-4.51A4.46,4.46,0,0,1,74.53,148Z" transform="translate(0)"/><path class="d" d="M114.71,146.74l1.42-.25-.64-.56a7.94,7.94,0,0,1-.87-.87l-1.08.47Z" transform="translate(0)"/><path class="r" d="M96.61,145.92a5.22,5.22,0,0,1-1.15-.17l-.62,1,0,.07c.43,1.08.89,2.14,1.34,3.21l2.16-.39a4.4,4.4,0,0,0-1.43-3.09A1,1,0,0,1,96.61,145.92Z" transform="translate(0)"/><path class="l" d="M71.85,146.68a4.72,4.72,0,0,1-3-1,1.73,1.73,0,0,0-.85-.41,3.83,3.83,0,0,0-4.61,3h.6c1-2.57,3.28-2.75,7.14-.73.2-.14.7-.68,1-.83Z" transform="translate(0)"/><path class="m" d="M62.82,152.53h.62a11.92,11.92,0,0,1,.5-4.3h-1.7c0,1.1-.1,2.2-.1,3.3A1.26,1.26,0,0,1,62.82,152.53Z" transform="translate(0)"/><path class="r" d="M62.82,152.53a1.26,1.26,0,0,0-.68-1c.07,1.53,0,3,.07,4.47l.38-.07A9.86,9.86,0,0,0,62.82,152.53Z" transform="translate(0)"/><path class="r" d="M71.54,149.73l-.5-2.2,0,0c-3.86-2-6.18-1.84-7.14.73h0a11.92,11.92,0,0,0-.5,4.3v.1a11.63,11.63,0,0,0,.09,3.14c.43,1.88,1.91,1.82,5.71.46a11,11,0,0,1-.26-1.42,3.89,3.89,0,0,1,.22-2.11l0-.08a2,2,0,0,1,.3-.42l.14-.12a3,3,0,0,1,1.8-.64h.05a10.76,10.76,0,0,0,.17-1.75Z" transform="translate(0)"/><path class="t" d="M72.77,147a1.5,1.5,0,0,0-.54-.29H72c-.25.15-.75.69-1,.83l0,0,.5,2.2.17,0,1.23-.35C72.36,148.66,73.43,147.58,72.77,147Z" transform="translate(0)"/><path class="j" d="M103.34,146.83a7.46,7.46,0,0,1,1.52,1.65l9.85-1.74-1.17-1.21-4.7,1.4c-2.2-2.7-4.7-3.5-6.8-1.9a11.51,11.51,0,0,0-.22,1.62Z" transform="translate(0)"/><path class="m" d="M100.14,144.73v0a4.43,4.43,0,0,1-1.51.93c1,.56,1.16,1.7,1.14,2.89a7.81,7.81,0,0,1,0,.85l1.73-.31a0,0,0,0,1,0,0l.1-1.6v-.8l.18,0A11.51,11.51,0,0,1,102,145Z" transform="translate(0)"/><path class="j" d="M98.64,145.63a5.3,5.3,0,0,1-1.8.3h-.23a1,1,0,0,0,.33.61,4.4,4.4,0,0,1,1.43,3.09l1.45-.25a7.81,7.81,0,0,0,0-.85C99.8,147.33,99.65,146.19,98.64,145.63Z" transform="translate(0)"/><path class="r" d="M101.54,149a0,0,0,0,0,0,0L102,149A.91.91,0,0,0,101.54,149Z" transform="translate(0)"/><path class="aa" d="M102,149l2.9-.51a7.46,7.46,0,0,0-1.52-1.65l-1.52-.18-.18,0v.8l-.1,1.6A.91.91,0,0,1,102,149Z" transform="translate(0)"/></svg>